<svg id="Calque_1" data-name="Calque 1" xmlns="http://www.w3.org/2000/svg" xmlns:xlink="http://www.w3.org/1999/xlink" viewBox="0 0 224.86 208.42"><defs><style>.cls-1{fill:none;}.cls-2{fill:#f5f4f2;}.cls-3{clip-path:url(#clip-path);}.cls-4{fill:#1b2439;}.cls-5{fill:#25509e;}.cls-6{fill:#fee0c0;}.cls-7,.cls-9{fill:#f18511;}.cls-7{opacity:0.4;}.cls-13,.cls-8{fill:#fff;}.cls-10{fill:#e7334d;}.cls-11,.cls-12{opacity:0.1;}.cls-12{fill:#29235c;}.cls-13{opacity:0.2;}.cls-14,.cls-15{opacity:0.07;}.cls-14{fill:url(#Dégradé_sans_nom_3);}.cls-15{fill:url(#Dégradé_sans_nom_3-2);}</style><clipPath id="clip-path"><circle class="cls-1" cx="112.43" cy="108.22" r="90.6"/></clipPath><linearGradient id="Dégradé_sans_nom_3" x1="91.02" y1="108.37" x2="91.02" y2="99.72" gradientUnits="userSpaceOnUse"><stop offset="0" stop-color="#fff" stop-opacity="0"/><stop offset="0.06" stop-color="#dce3ef" stop-opacity="0.16"/><stop offset="0.16" stop-color="#a4b6d7" stop-opacity="0.42"/><stop offset="0.26" stop-color="#7691c2" stop-opacity="0.63"/><stop offset="0.37" stop-color="#5275b2" stop-opacity="0.79"/><stop offset="0.48" stop-color="#3960a7" stop-opacity="0.91"/><stop offset="0.59" stop-color="#2a54a0" stop-opacity="0.98"/><stop offset="0.72" stop-color="#25509e"/></linearGradient><linearGradient id="Dégradé_sans_nom_3-2" x1="-1933.94" y1="108.37" x2="-1933.94" y2="99.72" gradientTransform="matrix(-1, 0, 0, 1, -1797.76, 0)" xlink:href="#Dégradé_sans_nom_3"/></defs><title>avatar-Lorette</title><circle class="cls-2" cx="112.43" cy="108.22" r="90.6"/><g class="cls-3"><path class="cls-4" d="M115.11,33S59.6,30.77,51.73,68s3.7,54.38-1.85,67.28-3.83,12.95-1,23.66,1.1,14.66-2.66,21.23c-2.56,4.49-.64,9.18-1.52,13.8a4.36,4.36,0,0,0,4.64,5.15c28-2.13,109.2.1,126.25.61a3,3,0,0,0,3.1-3.06c-.18-5.17-.86-15.45-3.46-21.5-1.79-4.17.42-16,2.74-23.4s-2.51-19.5-.25-25.31c5.76-14.81.16-28.7-3-39.52a2.09,2.09,0,0,1,0-.21C171.49,72.49,171,34.71,115.11,33Z"/><path class="cls-5" d="M175.69,200h-.1c-16.15-.48-98.16-2.75-126.22-.61a4.6,4.6,0,0,1-4.89-5.44,23.44,23.44,0,0,0,.18-5.29c-.12-2.83-.25-5.76,1.36-8.58,3.69-6.45,5.48-10.32,2.64-21-.44-1.65-.85-3.05-1.21-4.28-2-6.73-2.52-8.54,2.21-19.53,2.37-5.5,1.61-11.66.55-20.18C48.86,104.13,47,89.2,51.5,68c4.09-19.36,21.18-27.91,34.81-31.68a107.37,107.37,0,0,1,28.81-3.57h0C165.58,34.3,171.06,65.19,174,81.79c.32,1.79.62,3.49.94,4.9a1.46,1.46,0,0,0,.05.2c.36,1.25.76,2.54,1.16,3.87,3.09,10.08,6.93,22.63,1.8,35.8-1.08,2.79-.5,7.1.12,11.66.66,4.83,1.33,9.82.13,13.64-2.16,6.91-4.53,19.07-2.74,23.23,2.58,6,3.29,16.11,3.48,21.59A3.18,3.18,0,0,1,178,199,3.32,3.32,0,0,1,175.69,200Zm-88.2-2c34.5,0,77,1.18,88.12,1.51a2.86,2.86,0,0,0,2.07-.82,2.65,2.65,0,0,0,.78-2c-.19-5.44-.89-15.46-3.44-21.41-1.86-4.32.48-16.38,2.73-23.56,1.16-3.72.5-8.66-.15-13.44-.63-4.62-1.22-9-.09-11.89,5.06-13,1.25-25.48-1.81-35.49-.41-1.33-.81-2.63-1.17-3.88a1.42,1.42,0,0,1-.05-.22c-.33-1.43-.63-3.13-.95-4.93-2.92-16.46-8.36-47.1-58.43-48.67h0a106.23,106.23,0,0,0-28.68,3.56C72.93,40.49,56,49,52,68.06c-4.46,21.16-2.62,36-1.28,46.91,1,8.27,1.84,14.81-.58,20.43-4.66,10.83-4.19,12.43-2.2,19.21.37,1.23.78,2.63,1.22,4.29,2.89,10.91,1.07,14.84-2.68,21.41-1.55,2.7-1.43,5.43-1.3,8.32A23.89,23.89,0,0,1,45,194a4.08,4.08,0,0,0,1,3.51,4.13,4.13,0,0,0,3.41,1.36C58.05,198.24,72,198,87.49,198Z"/><path class="cls-6" d="M160.86,102.43s8.77-2.12,8.77,5.51-16.52,23.39-16.52,23.39A61.75,61.75,0,0,0,160.86,102.43Z"/><path class="cls-4" d="M161.34,104.17c3-.67,6.41.07,6.48,3.77.07,3.26-2.76,6.8-4.57,9.29a97.82,97.82,0,0,1-11.41,12.83l2.83,2.18c5.27-8.85,7.81-19.6,8-29.81,0-2.32-3.56-2.32-3.6,0-.17,9.58-2.55,19.68-7.5,28a1.81,1.81,0,0,0,2.83,2.19c6-5.72,12.77-12.54,16-20.28,3.12-7.55-2.16-13.4-10-11.64C158.12,101.2,159.07,104.68,161.34,104.17Z"/><path class="cls-6" d="M62.81,102.43s-8.76-2.12-8.76,5.51,16.51,23.39,16.51,23.39A61.75,61.75,0,0,1,62.81,102.43Z"/><path class="cls-4" d="M63.29,100.69c-7.82-1.76-13.1,4.09-10,11.64,3.2,7.74,10,14.56,16,20.28a1.82,1.82,0,0,0,2.84-2.19c-5-8.3-7.34-18.42-7.5-28,0-2.32-3.65-2.33-3.61,0,.18,10.22,2.72,21,8,29.81l2.84-2.18a97.9,97.9,0,0,1-11.42-12.83c-1.8-2.48-4.66-6-4.57-9.29.1-3.72,3.48-4.45,6.48-3.77C64.6,104.68,65.56,101.2,63.29,100.69Z"/><path class="cls-6" d="M85.62,197.3l-1.45-27.25c3.13-2.81,20.4-4.16,22.27-7.12s-.49-9.84-.49-9.84H121s-1.74,6.88.13,9.84,18.51,4.31,21.64,7.12l-2.42,27.25"/><path class="cls-4" d="M86.58,197.3l-.75-14.13-.48-9a21,21,0,0,1-.16-3c.14-1.39-.17-.46.13-.74,2-1.88,7.06-2.16,9.61-2.72,3.29-.71,6.95-1.17,10-2.63,4.65-2.22,3.27-8.16,1.93-12.23l-.92,1.21H121l-.93-1.21c-1,4.22-2,10.08,2.62,12.28,3,1.41,6.47,1.89,9.64,2.59,2,.45,8.62,1.33,9.51,2.62,0,0-.33,3.13-.4,4l-.84,9.36-1.21,13.63c-.1,1.23,1.81,1.22,1.92,0l1.08-12.17.79-8.87c.14-1.64.89-4.2.51-5.82-.75-3.2-7-3.71-9.75-4.33-3.3-.74-6.91-1.21-10-2.55-3.8-1.63-2.78-6.86-2-10.21a1,1,0,0,0-.92-1.22H106a1,1,0,0,0-.93,1.22c1.16,3.49,2.35,8.11-1.27,10.16-2.6,1.46-6.45,1.73-9.33,2.35s-10.06,1.08-11.19,4.38c-.44,1.25.19,3.74.26,5l.48,8.89.69,13.13c.07,1.22,2,1.23,1.92,0Z"/><path class="cls-6" d="M112.09,161.69c54.59,0,49.13-81.74,49.13-81.74s0-41.45-49.13-41.45S63,80,63,80,57.51,161.69,112.09,161.69Z"/><path class="cls-4" d="M112.09,163.13c15.14-.15,28.22-6.9,36.71-19.49,7.79-11.56,11.23-25.7,12.9-39.37,1.74-14.24,2.65-30-4-43.22C150.63,47,136.6,39.43,121.32,37.59c-17.72-2.12-38.08,1.3-49.92,15.85-9.87,12.13-10.64,27-9.74,41.85,1.57,25.65,9.83,59,38.38,66.38a50.43,50.43,0,0,0,12,1.46,1.44,1.44,0,0,0,0-2.88c-31.74-.32-44-30.67-46.95-57.87-1.36-12.53-2.26-26.49,3-38.29,6.54-14.52,20.57-22.18,36-23.77,17.29-1.77,37,1.79,47.76,16.75,8,11.23,8.48,24.37,7.72,37.56C158,123.73,147,159.9,112.09,160.25A1.44,1.44,0,0,0,112.09,163.13Z"/><ellipse class="cls-4" cx="133.18" cy="107.59" rx="6.67" ry="5.43"/><ellipse class="cls-4" cx="94.11" cy="107.59" rx="6.67" ry="5.43"/><path class="cls-4" d="M113.59,129.29c6.44,0,17-2.63,17-2.63s2.84,16.11-17,17c-19.86-.85-17-17-17-17S107.15,129.29,113.59,129.29Z"/><path class="cls-4" d="M113.59,130.73A81.51,81.51,0,0,0,131,128.05l-1.77-1c3.26,19.73-34.54,19.73-31.28,0l-1.77,1a81.51,81.51,0,0,0,17.41,2.68c1.85,0,1.85-2.83,0-2.88A77.57,77.57,0,0,1,97,125.28a1.45,1.45,0,0,0-1.77,1c-4.05,24.56,40.87,24.56,36.82,0a1.46,1.46,0,0,0-1.77-1,77.57,77.57,0,0,1-16.64,2.57C111.74,127.9,111.74,130.77,113.59,130.73Z"/><path class="cls-4" d="M85.76,102.16a7.64,7.64,0,0,1,1.88,2.22,10.6,10.6,0,0,1,.58,1.11l.66,1.36a2.27,2.27,0,0,1-1.73-.29A3.47,3.47,0,0,1,86,105.35a3.78,3.78,0,0,1-.5-1.53A3,3,0,0,1,85.76,102.16Z"/><path class="cls-4" d="M82.16,106.11c.71,0,1.28,0,1.85,0a15.71,15.71,0,0,1,1.68.2,11.54,11.54,0,0,1,1.66.42,6.74,6.74,0,0,1,1.73.82,4.65,4.65,0,0,1-1.85.69,6,6,0,0,1-1.89,0,5.22,5.22,0,0,1-1.8-.66A3.28,3.28,0,0,1,82.16,106.11Z"/><path class="cls-4" d="M141.22,101.79a3.08,3.08,0,0,1,.28,1.66A3.78,3.78,0,0,1,141,105a3.47,3.47,0,0,1-1.17,1.21,2.27,2.27,0,0,1-1.73.29l.66-1.36a10.6,10.6,0,0,1,.58-1.11A7.64,7.64,0,0,1,141.22,101.79Z"/><path class="cls-4" d="M144.82,105.74a3.28,3.28,0,0,1-1.38,1.47,5.22,5.22,0,0,1-1.8.66,6,6,0,0,1-1.89,0,4.65,4.65,0,0,1-1.85-.69,6.74,6.74,0,0,1,1.73-.82,11.54,11.54,0,0,1,1.66-.42,15.71,15.71,0,0,1,1.68-.2C143.54,105.74,144.11,105.74,144.82,105.74Z"/><ellipse class="cls-7" cx="83.97" cy="120.83" rx="4.06" ry="4.98" transform="translate(-59.49 153.51) rotate(-68.03)"/><ellipse class="cls-7" cx="142.76" cy="120.83" rx="4.98" ry="4.06" transform="translate(-34.83 62.18) rotate(-21.97)"/><path class="cls-8" d="M102.55,129.37a19.2,19.2,0,0,0,11.09,4,16.64,16.64,0,0,0,10.54-4,57.39,57.39,0,0,1-10.7,1.24A61.61,61.61,0,0,1,102.55,129.37Z"/><path class="cls-9" d="M102.39,136.72a49.64,49.64,0,0,1,22.28,0,.85.85,0,0,1,.3,1.54c-3.62,2.37-13.15,7.14-22.87-.06A.85.85,0,0,1,102.39,136.72Z"/><path class="cls-10" d="M62.08,198.53s16.45-26.67,22-29.18,20.25-4.46,20.25-4.46,8.73,12.69,18.13,1.64c0,0,1.39-2.27,2.77-2.27s11.07,3.31,17.89,5.36,23,30.36,23,30.36"/><path class="cls-4" d="M63.32,199.25a229.32,229.32,0,0,1,15.41-22.54c3.27-4.09,5.83-6.33,11-7.65a131.69,131.69,0,0,1,15-2.78l-1.62-.66c3,4.21,8.12,7.89,13.49,6.57a12.11,12.11,0,0,0,5.15-2.87c1.6-1.42,2.43-3.42,4.69-3.35,2.08.06,4.68,1.38,6.65,2,2.78.88,5.6,1.68,8.35,2.63,6.67,2.31,11.12,10.56,14.83,16.14,3,4.55,5.93,9.21,8.66,13.95a1.44,1.44,0,0,0,2.48-1.45c-2.55-4.43-5.26-8.79-8.07-13.06-3.71-5.63-7.79-12.62-13.38-16.61-3.06-2.19-7.2-2.82-10.73-3.94-2.81-.89-7.12-3.17-10.17-2.79-1.55.2-2.36,1.23-3.36,2.31-2.35,2.55-5,5-8.71,4.32-2.94-.5-5.72-2.93-7.4-5.31a1.52,1.52,0,0,0-1.62-.66,122.34,122.34,0,0,0-16.11,3.06C83,167.91,80.44,170.1,77.29,174A220.46,220.46,0,0,0,60.84,197.8c-1,1.58,1.51,3,2.48,1.45Z"/><path class="cls-4" d="M111.57,36.74S72.32,42.63,72,86.84v15s16.35-10,43.12-10,36.65,10,36.65,10S158.19,37.16,111.57,36.74Z"/><path class="cls-4" d="M152,102.32l-.36-.36c-.1-.1-10.14-10-36.48-10s-42.83,9.9-43,10l-.36.23V86.84c.16-22.94,11-35.4,20-41.82a51.44,51.44,0,0,1,19.77-8.52h0c11.25.1,20.37,4,27.12,11.47,16.62,18.52,13.36,53.49,13.32,53.84ZM111.59,37A51.18,51.18,0,0,0,92,45.42c-8.94,6.35-19.63,18.7-19.79,41.43v14.52c2.57-1.45,18.52-9.86,42.88-9.86,23.78,0,34.42,8,36.45,9.77.33-4.27,2.18-35.81-13.24-53C131.68,40.89,122.69,37.09,111.59,37Z"/><path class="cls-4" d="M112.09,33.35S53.62,30,58.28,80.39s9.6,69.08,9.25,77.13c1.29-30.86-1.19-61.45,4.74-77.55S96,44.79,112.09,45.22s35.41,22.46,41,36,.75,56.1,0,62.38C160.72,106.11,185.4,40.55,112.09,33.35Z"/><path class="cls-4" d="M67.77,157.53l-.48,0v0c.14-3.38-.65-8.65-2-17.36C63.5,127.94,60.74,109.56,58,80.41c-1.26-13.7,2-24.71,9.76-32.72,15.52-16,44-14.59,44.31-14.58h0c20.32,2,34.75,8.77,42.88,20.13,14.6,20.38,7.25,51.8,1.35,77-1.11,4.74-2.16,9.22-3,13.37l-.47-.07c1-8.08,5.47-49.07,0-62.26-5.79-14-25-35.46-40.8-35.87h-.53c-15.54,0-33,18.09-39.07,34.6-4.09,11.1-4.16,28.87-4.24,49.45,0,9.09-.08,18.49-.48,28v0ZM110,33.55c-6.82,0-28.93,1.09-41.87,14.48-7.64,7.9-10.88,18.78-9.63,32.34C61.22,109.5,64,127.87,65.8,140c.76,5.07,1.35,9,1.68,12,.22-7.64.25-15.2.29-22.56.08-20.61.15-38.42,4.27-49.61C78.18,63.23,95.83,45,111.57,45h.53c16,.42,35.39,22,41.24,36.17,4.77,11.53,2,44,.55,57.67.62-2.77,1.29-5.65,2-8.64,5.88-25.15,13.2-56.45-1.27-76.66-8.05-11.24-22.36-18-42.54-19.93C112,33.59,111.26,33.55,110,33.55Z"/><g class="cls-11"><path class="cls-5" d="M153.88,124.31s-22,28.83-30.36,32.53l-8.39,3.69s17,.61,24.74-9.07S153.93,128.83,153.88,124.31Z"/><path class="cls-5" d="M115.62,160.75h-.5l-.94,0,9.25-4.08c8.25-3.63,30.06-32.18,30.28-32.46l.38-.5v.62c.05,4.48-6.08,17.37-14.06,27.29C133,160.31,118.51,160.75,115.62,160.75Zm38-35.77c-3.16,4.12-22.21,28.61-30,32.05l-7.46,3.29c3.75-.06,17-.86,23.55-9C147.26,141.93,153.14,129.9,153.63,125Z"/></g><path class="cls-12" d="M106.84,160l-2.5,5.2s10.34,5.64,18.13,0a29.21,29.21,0,0,1-1.78-5.65Z"/><path class="cls-13" d="M71.88,90.15s4.23-33.85,36.67-42.31C88.2,46,69.05,62.18,71.88,90.15Z"/><path class="cls-13" d="M114.2,33S58.68,30.73,50.82,68.64,54.52,124,49,137.12c0,0,6.25-11.69,4.55-23.92s-4.23-44.6,7.91-58C74.72,40.51,81.08,38.42,114.2,33Z"/><path class="cls-14" d="M104.78,108.22S104,97.48,93,98.14s-13.56,5.12-15.78,10.08"/><path class="cls-15" d="M122.42,108.22s.82-10.74,11.74-10.08,13.56,5.12,15.78,10.08"/><path class="cls-4" d="M73.64,96.46c0-.63.29-.6.5-.72l.67-.3,1.34-.58c.89-.38,1.8-.75,2.7-1.1,1.82-.72,3.66-1.36,5.53-2a39.28,39.28,0,0,1,11.75-2,13,13,0,0,1,6.26,1.46,7.65,7.65,0,0,1,1.41,1.08l.61.7.43.6c.55.8,1.11,1.6,1.64,2.44a20.63,20.63,0,0,1,2.67,5.45,11.51,11.51,0,0,1,.35,3.06c0,.5,0,1,0,1.48s.08,1-.55,1.45c-.62-.48-.5-1-.56-1.44s-.08-1-.13-1.41a10.24,10.24,0,0,0-.65-2.63,19.52,19.52,0,0,0-3-4.61l-1.8-2.22-.45-.55-.38-.37a4.63,4.63,0,0,0-.92-.62A7.46,7.46,0,0,0,98.71,93a15,15,0,0,0-2.63-.25,37.17,37.17,0,0,0-5.53.38c-1.87.22-3.74.55-5.6.94s-3.74.79-5.6,1.26q-1.39.36-2.79.75l-1.38.4-.69.21C74.25,96.7,74.08,96.91,73.64,96.46Z"/><path class="cls-4" d="M122,95.61c-.21-.67.14-.75.33-1L123,94c.44-.41.9-.81,1.37-1.2a25.7,25.7,0,0,1,3-2.09,15.77,15.77,0,0,1,7.19-2.16,13.37,13.37,0,0,1,3.83.38A13.56,13.56,0,0,1,142,90.41a17.42,17.42,0,0,1,2.92,2.3c.45.41.83.89,1.24,1.33.21.22.38.47.57.7a1.16,1.16,0,0,1,.37.87,1.17,1.17,0,0,1-.86-.39c-.23-.18-.44-.38-.68-.54-.48-.32-.93-.68-1.43-1a15.24,15.24,0,0,0-3-1.44,16.32,16.32,0,0,0-6.31-.86,22.52,22.52,0,0,0-6.34,1.4,23.64,23.64,0,0,0-3.12,1.34c-.5.26-1,.54-1.5.83l-.73.46C122.78,95.58,122.69,95.89,122,95.61Z"/></g></svg>