<svg id="Calque_1" data-name="Calque 1" xmlns="http://www.w3.org/2000/svg" xmlns:xlink="http://www.w3.org/1999/xlink" viewBox="0 0 224.86 208.42"><defs><style>.cls-1{fill:#f5f4f2;}.cls-2{fill:none;opacity:0.5;}.cls-3{clip-path:url(#clip-path);}.cls-4{fill:#fee9d4;}.cls-5{fill:#1b2439;}.cls-6{fill:#f8a931;}.cls-11,.cls-7{fill:#29235c;}.cls-10,.cls-7{opacity:0.1;}.cls-8{fill:#fee9d5;}.cls-16,.cls-9{fill:#f18511;}.cls-9{opacity:0.4;}.cls-12{fill:#25509e;}.cls-13,.cls-14{opacity:0.07;}.cls-13{fill:url(#Dégradé_sans_nom_10);}.cls-14{fill:url(#Dégradé_sans_nom_10-2);}.cls-15{fill:#fff;}.cls-17{fill:#ca9e67;}</style><clipPath id="clip-path"><circle class="cls-1" cx="112.43" cy="104.21" r="90.6"/></clipPath><linearGradient id="Dégradé_sans_nom_10" x1="90.98" y1="101.2" x2="90.98" y2="92.73" gradientUnits="userSpaceOnUse"><stop offset="0" stop-color="#fff" stop-opacity="0"/><stop offset="0.06" stop-color="#dce3ef" stop-opacity="0.16"/><stop offset="0.16" stop-color="#a4b6d7" stop-opacity="0.42"/><stop offset="0.26" stop-color="#7691c2" stop-opacity="0.63"/><stop offset="0.37" stop-color="#5275b2" stop-opacity="0.79"/><stop offset="0.48" stop-color="#3960a7" stop-opacity="0.91"/><stop offset="0.59" stop-color="#2a54a0" stop-opacity="0.98"/><stop offset="0.72" stop-color="#25509e"/></linearGradient><linearGradient id="Dégradé_sans_nom_10-2" x1="-1932.92" y1="101.56" x2="-1932.92" y2="93.1" gradientTransform="matrix(-1, 0, 0, 1, -1797.76, 0)" xlink:href="#Dégradé_sans_nom_10"/></defs><title>avatar-Julien</title><circle class="cls-2" cx="112.43" cy="104.21" r="90.6"/><circle class="cls-1" cx="112.43" cy="104.21" r="90.6"/><g class="cls-3"><path class="cls-4" d="M84.56,192.13l-1.44-27.25c3.13-2.81,20.39-4.16,22.26-7.12s-.49-9.84-.49-9.84H120s-1.73,6.88.14,9.84,18.5,4.31,21.63,7.12l-2.41,27.25"/><path class="cls-5" d="M85.52,192.13,84.77,178,84.29,169a20.84,20.84,0,0,1-.16-2.95c.14-1.4-.16-.47.13-.75,2-1.88,7.06-2.16,9.62-2.71,3.28-.71,6.94-1.17,10-2.64,4.65-2.22,3.28-8.16,1.93-12.23l-.92,1.21H120l-.92-1.21c-1,4.22-2,10.08,2.61,12.28,3,1.41,6.47,1.89,9.64,2.59,2,.45,8.63,1.34,9.51,2.62,0,0-.33,3.13-.4,4l-.83,9.36-1.21,13.63c-.11,1.23,1.8,1.22,1.91,0L141.36,180l.79-8.87c.15-1.64.89-4.2.52-5.81-.75-3.21-7-3.72-9.76-4.34-3.3-.74-6.9-1.21-10-2.55-3.81-1.63-2.79-6.86-2-10.21A1,1,0,0,0,120,147H104.89a1,1,0,0,0-.92,1.22c1.15,3.5,2.34,8.11-1.28,10.16-2.6,1.46-6.45,1.73-9.32,2.35s-10.06,1.08-11.2,4.38c-.43,1.25.2,3.74.27,5l.47,8.89.69,13.13c.07,1.22,2,1.23,1.92,0Z"/><path class="cls-6" d="M61,193.36s16.45-26.67,22-29.18,20.24-4.46,20.24-4.46,8.73,12.69,18.13,1.64c0,0,1.39-2.27,2.77-2.27s11.07,3.31,17.89,5.37,23,30.35,23,30.35"/><path class="cls-5" d="M62.26,194.08a227.69,227.69,0,0,1,15.42-22.54c3.26-4.09,5.82-6.33,11-7.65a131.69,131.69,0,0,1,15-2.78l-1.62-.66c3,4.21,8.12,7.89,13.5,6.57a12.13,12.13,0,0,0,5.14-2.87c1.6-1.42,2.44-3.42,4.7-3.35,2.07.06,4.67,1.38,6.65,2,2.78.88,5.59,1.68,8.35,2.63,6.66,2.31,11.11,10.57,14.82,16.14,3,4.55,5.94,9.21,8.66,13.95a1.44,1.44,0,0,0,2.48-1.45q-3.83-6.65-8.07-13.06c-3.71-5.63-7.79-12.62-13.38-16.61-3.06-2.18-7.2-2.82-10.73-3.94-2.81-.89-7.11-3.17-10.17-2.79-1.55.2-2.36,1.23-3.35,2.31-2.36,2.55-5,5-8.71,4.32-3-.5-5.72-2.93-7.41-5.31a1.52,1.52,0,0,0-1.62-.66,123.53,123.53,0,0,0-16.1,3.06c-4.85,1.34-7.41,3.53-10.57,7.38a221.45,221.45,0,0,0-16.45,23.85c-1,1.58,1.51,3,2.48,1.45Z"/><path class="cls-7" d="M105.79,154.78l-2.51,5.2s10.34,5.64,18.13,0a29.62,29.62,0,0,1-1.77-5.64Z"/><path class="cls-4" d="M159.31,96.73s8.57-2.07,8.57,5.39S151.73,125,151.73,125A60.42,60.42,0,0,0,159.31,96.73Z"/><path class="cls-5" d="M159.68,98.09c2.8-.63,6.06-.17,6.68,3.14.64,3.51-2.38,7.38-4.31,10A95.22,95.22,0,0,1,150.73,124l2.21,1.7c5.13-8.61,7.6-19,7.77-29a1.41,1.41,0,0,0-2.81,0c-.17,9.44-2.51,19.39-7.39,27.57a1.41,1.41,0,0,0,2.21,1.7c5.79-5.55,12.49-12.23,15.57-19.77,2.91-7.1-2-12.51-9.36-10.85C157.17,95.77,157.91,98.49,159.68,98.09Z"/><path class="cls-4" d="M63.39,96.73s-8.58-2.07-8.58,5.39S71,125,71,125A60.42,60.42,0,0,1,63.39,96.73Z"/><path class="cls-5" d="M63.76,95.38c-7.37-1.66-12.27,3.74-9.36,10.85C57.49,113.77,64.18,120.45,70,126a1.41,1.41,0,0,0,2.21-1.7c-4.87-8.18-7.22-18.14-7.39-27.57a1.41,1.41,0,0,0-2.81,0c.18,9.94,2.64,20.38,7.77,29L72,124a96.55,96.55,0,0,1-11.32-12.76c-1.77-2.44-4.5-5.94-4.42-9.14.09-3.87,3.65-4.74,6.79-4C64.78,98.49,65.53,95.77,63.76,95.38Z"/><path class="cls-8" d="M111.6,154.71c53.4,0,48.06-80,48.06-80s0-40.55-48.06-40.55S63.54,74.74,63.54,74.74,58.2,154.71,111.6,154.71Z"/><path class="cls-5" d="M111.6,156.12c15.12-.16,28.06-7.05,36.34-19.74,7.37-11.29,10.64-24.93,12.23-38.16,1.67-14,2.52-29.34-4.07-42.23-7.06-13.8-20.94-21.05-36-22.74C103,31.31,83.36,34.68,71.87,48.71c-9.71,11.85-10.49,26.4-9.61,40.93,1.81,30,13.65,66.11,49.34,66.48a1.41,1.41,0,0,0,0-2.82c-31-.32-43-30-45.94-56.59-1.33-12.23-2.21-25.87,3-37.4,6.46-14.44,20.46-21.93,35.79-23.39,16.75-1.6,35.76,1.94,46.16,16.38,7.89,11,8.33,23.79,7.6,36.68-1.6,28.5-12.32,64-46.56,64.32A1.41,1.41,0,0,0,111.6,156.12Z"/><ellipse class="cls-5" cx="132.23" cy="101.78" rx="6.53" ry="5.31"/><ellipse class="cls-5" cx="94" cy="101.78" rx="6.53" ry="5.31"/><path class="cls-5" d="M75,90.93c0-.62.28-.58.49-.7l.65-.29,1.31-.57c.88-.38,1.76-.74,2.65-1.09,1.77-.69,3.58-1.32,5.41-1.9A38.5,38.5,0,0,1,97,84.44a12.62,12.62,0,0,1,6.12,1.43,7,7,0,0,1,1.38,1.07l.59.68.42.59c.54.78,1.1,1.56,1.61,2.37a20.09,20.09,0,0,1,2.61,5.34,11,11,0,0,1,.35,3c0,.49,0,1,0,1.45s.07,1-.54,1.42c-.62-.47-.49-.94-.55-1.41s-.08-.93-.14-1.38a10.17,10.17,0,0,0-.62-2.57,19.66,19.66,0,0,0-2.93-4.51l-1.75-2.18-.45-.54-.37-.36a5.22,5.22,0,0,0-.9-.6,7.47,7.47,0,0,0-2.27-.73A15.34,15.34,0,0,0,97,87.26a36.9,36.9,0,0,0-5.41.37c-1.82.22-3.65.55-5.48.92s-3.66.77-5.48,1.24c-.91.23-1.82.47-2.72.73l-1.36.39-.67.21C75.64,91.17,75.47,91.37,75,90.93Z"/><path class="cls-5" d="M122.39,90.1c-.21-.66.14-.73.32-1l.63-.62q.66-.6,1.35-1.17a23.41,23.41,0,0,1,3-2,15.36,15.36,0,0,1,7-2.12,13.24,13.24,0,0,1,3.76.37A13.1,13.1,0,0,1,141.87,85a17,17,0,0,1,2.85,2.25c.45.4.82.87,1.22,1.3.2.21.37.46.55.69a1.11,1.11,0,0,1,.36.85,1.13,1.13,0,0,1-.84-.38c-.22-.18-.43-.37-.66-.53-.47-.32-.91-.67-1.4-.94a14.82,14.82,0,0,0-3-1.41,16.2,16.2,0,0,0-6.17-.84,22.55,22.55,0,0,0-6.21,1.36,24,24,0,0,0-3.05,1.32q-.75.38-1.47.81l-.72.45C123.11,90.07,123,90.37,122.39,90.1Z"/><ellipse class="cls-9" cx="84.09" cy="114.73" rx="3.97" ry="4.87" transform="translate(-53.77 149.8) rotate(-68.03)"/><ellipse class="cls-9" cx="141.6" cy="114.73" rx="4.87" ry="3.97" transform="translate(-32.64 61.3) rotate(-21.97)"/><g class="cls-10"><path class="cls-11" d="M151.74,122.94s-21.92,24.7-30.3,27.87L113.06,154s16.93.51,24.7-7.78S151.79,126.82,151.74,122.94Z"/><path class="cls-12" d="M113.56,154.18h-.5l-1,0,9.31-3.52c8.23-3.11,30-27.56,30.22-27.81l.34-.38v.51c.05,3.83-6.07,14.89-14,23.4C130.91,153.8,116.43,154.18,113.56,154.18Zm37.95-30.68c-3,3.38-22.18,24.54-30,27.5l-7.36,2.78c3.85-.06,17-.79,23.46-7.72C145.16,138,151,127.69,151.51,123.5Z"/></g><path class="cls-13" d="M104.45,101.05s-.8-10.51-11.49-9.86-13.27,5-15.44,9.86"/><path class="cls-14" d="M121.7,101.42s.8-10.51,11.49-9.87,13.26,5,15.43,9.87"/><path class="cls-5" d="M113.06,123.13c6.34,0,16.77-2.59,16.77-2.59s2.79,15.86-16.77,16.7c-19.56-.84-16.77-16.7-16.77-16.7S106.72,123.13,113.06,123.13Z"/><path class="cls-5" d="M113.06,124.55a80.43,80.43,0,0,0,17.15-2.64l-1.75-1c3.21,19.45-34,19.47-30.8,0l-1.74,1a80.25,80.25,0,0,0,17.14,2.64c1.82,0,1.82-2.79,0-2.83a77.14,77.14,0,0,1-16.39-2.54,1.42,1.42,0,0,0-1.74,1c-4,24.18,40.25,24.18,36.27,0a1.44,1.44,0,0,0-1.75-1,77.14,77.14,0,0,1-16.39,2.54C111.24,121.76,111.24,124.59,113.06,124.55Z"/><path class="cls-15" d="M102.19,123.2a18.92,18.92,0,0,0,10.92,3.94,16.45,16.45,0,0,0,10.39-3.94A56.35,56.35,0,0,1,113,124.43,60.25,60.25,0,0,1,102.19,123.2Z"/><path class="cls-16" d="M102,130.44a49,49,0,0,1,22,0,.83.83,0,0,1,.29,1.51c-3.57,2.34-13,7-22.53-.05A.85.85,0,0,1,102,130.44Z"/><path class="cls-17" d="M111.94,59.14c22.72.5,23.58-6.25,31.33-1,4.82,3.24,7.14,19.57,7.14,19.57s-.65.25,5,4.77.8,30.82.8,30.82,12.9-25.24,3.92-50.81-18.53-30.92-47.66-31.42c-29.13.5-38.68,5.85-47.66,31.42s3.92,50.81,3.92,50.81-4.81-26.3.8-30.82,5-4.77,5-4.77,2.32-16.33,7.14-19.57c7.75-5.23,8.61,1.52,31.33,1Z"/><path class="cls-5" d="M156.17,114.56a1.53,1.53,0,0,1-.41-.07,1.28,1.28,0,0,1-.85-1.44c1.81-9.88,3.31-26.65-.34-29.59-5.39-4.34-5.55-5.15-5.46-5.83-.67-4.56-3.05-16.09-6.55-18.45s-5.32-2-9.55-1a72.8,72.8,0,0,1-20.58,2.21,73.29,73.29,0,0,1-20.58-2.21c-4.23-1-6-1.45-9.55,1s-5.88,13.89-6.55,18.45c.09.68-.07,1.49-5.46,5.83-3.65,2.94-2.15,19.71-.34,29.59a1.28,1.28,0,0,1-2.4.81c-.54-1-13-26-4-51.81,8.93-25.42,18.51-31.76,48.84-32.28,30.37.52,40,6.86,48.88,32.28,9.06,25.79-3.44,50.76-4,51.81A1.27,1.27,0,0,1,156.17,114.56ZM112.41,32.33C83.22,32.83,74.53,38.55,66,62.9c-5.2,14.81-2.85,29.63-.09,39.2-.73-8-.77-17.76,2.8-20.63a32.25,32.25,0,0,0,4.5-4c.29-2,2.6-17,7.68-20.39,4.51-3,7.17-2.38,11.58-1.31a70.13,70.13,0,0,0,19.26,2.14l.23,0h1l.23,0a70.13,70.13,0,0,0,19.26-2.14c4.41-1.07,7.07-1.72,11.58,1.31,5.08,3.43,7.39,18.39,7.68,20.39a32.25,32.25,0,0,0,4.5,4c3.57,2.87,3.53,12.57,2.81,20.6,2.75-9.58,5.09-24.39-.1-39.17C150.33,38.55,141.64,32.83,112.41,32.33Z"/></g></svg>