<svg id="Calque_1" data-name="Calque 1" xmlns="http://www.w3.org/2000/svg" xmlns:xlink="http://www.w3.org/1999/xlink" viewBox="0 0 224.86 208.42"><defs><style>.cls-1{fill:#f5f4f2;}.cls-2{fill:none;opacity:0.5;}.cls-3{clip-path:url(#clip-path);}.cls-4{fill:#bf9c7e;}.cls-5,.cls-8{fill:#1b2439;}.cls-6{fill:#f8a931;}.cls-10,.cls-7{fill:#29235c;}.cls-7,.cls-8,.cls-9{opacity:0.1;}.cls-11{fill:#25509e;}.cls-12,.cls-13{opacity:0.07;}.cls-12{fill:url(#Dégradé_sans_nom_13);}.cls-13{fill:url(#Dégradé_sans_nom_13-2);}.cls-14{fill:#fff;}.cls-15{fill:#f18511;}.cls-16{opacity:0.8;}</style><clipPath id="clip-path"><circle class="cls-1" cx="112.43" cy="104.21" r="90.6"/></clipPath><linearGradient id="Dégradé_sans_nom_13" x1="91.01" y1="102.52" x2="91.01" y2="93.92" gradientUnits="userSpaceOnUse"><stop offset="0" stop-color="#fff" stop-opacity="0"/><stop offset="0.06" stop-color="#dce3ef" stop-opacity="0.16"/><stop offset="0.16" stop-color="#a4b6d7" stop-opacity="0.42"/><stop offset="0.26" stop-color="#7691c2" stop-opacity="0.63"/><stop offset="0.37" stop-color="#5275b2" stop-opacity="0.79"/><stop offset="0.48" stop-color="#3960a7" stop-opacity="0.91"/><stop offset="0.59" stop-color="#2a54a0" stop-opacity="0.98"/><stop offset="0.72" stop-color="#25509e"/></linearGradient><linearGradient id="Dégradé_sans_nom_13-2" x1="-1933.63" y1="101.55" x2="-1933.63" y2="92.96" gradientTransform="matrix(-1, 0, 0, 1, -1797.76, 0)" xlink:href="#Dégradé_sans_nom_13"/></defs><title>avatar-Dylan</title><circle class="cls-2" cx="112.43" cy="104.21" r="90.6"/><circle class="cls-1" cx="112.43" cy="104.21" r="90.6"/><g class="cls-3"><path class="cls-4" d="M84.08,192.93l-1.44-27.25c3.13-2.81,20.39-4.15,22.26-7.12s-.49-9.83-.49-9.83h15.08s-1.73,6.87.14,9.83,18.5,4.31,21.63,7.12l-2.42,27.25"/><path class="cls-5" d="M85,192.93l-.75-14.12-.48-9.06a20.84,20.84,0,0,1-.16-2.95c.14-1.4-.16-.47.13-.74,2-1.88,7.06-2.17,9.62-2.72,3.28-.71,6.94-1.17,10-2.63,4.65-2.22,3.28-8.16,1.93-12.24l-.92,1.21h15.08l-.92-1.21c-1,4.22-2,10.08,2.61,12.28,2.95,1.41,6.47,1.89,9.64,2.6,2,.44,8.63,1.33,9.51,2.61,0,0-.33,3.13-.4,4l-.83,9.36-1.21,13.62c-.11,1.23,1.8,1.22,1.91,0l1.08-12.17.79-8.86c.15-1.65.89-4.2.52-5.82-.75-3.21-7-3.72-9.76-4.33-3.3-.75-6.91-1.22-10-2.56-3.81-1.63-2.79-6.85-2-10.21a1,1,0,0,0-.92-1.21H104.41a1,1,0,0,0-.92,1.21c1.15,3.5,2.34,8.11-1.28,10.16-2.6,1.47-6.45,1.73-9.32,2.35s-10.06,1.09-11.2,4.38c-.44,1.25.2,3.74.27,5l.47,8.89.69,13.12c.07,1.23,2,1.24,1.92,0Z"/><path class="cls-6" d="M60.54,194.16S77,167.49,82.56,165s20.24-4.46,20.24-4.46,8.73,12.69,18.13,1.63c0,0,1.39-2.26,2.77-2.26s11.07,3.31,17.89,5.36,23,30.35,23,30.35"/><path class="cls-5" d="M61.78,194.89A226.52,226.52,0,0,1,77.2,172.35c3.26-4.09,5.82-6.34,11-7.66a131.69,131.69,0,0,1,15-2.78l-1.62-.66c3,4.21,8.12,7.89,13.5,6.57A12.13,12.13,0,0,0,120.2,165c1.6-1.42,2.44-3.41,4.7-3.35,2.07.06,4.67,1.39,6.65,2,2.77.88,5.59,1.68,8.35,2.64,6.66,2.3,11.11,10.56,14.82,16.13,3,4.56,5.94,9.21,8.66,14a1.44,1.44,0,0,0,2.48-1.45q-3.83-6.66-8.07-13.07c-3.71-5.63-7.79-12.61-13.38-16.61-3.06-2.18-7.2-2.81-10.73-3.93-2.81-.9-7.11-3.17-10.17-2.79-1.55.19-2.36,1.22-3.35,2.3-2.36,2.56-5,5-8.71,4.33-3-.5-5.72-2.94-7.41-5.32a1.53,1.53,0,0,0-1.62-.66,122.37,122.37,0,0,0-16.11,3.07c-4.84,1.33-7.4,3.52-10.56,7.38A219.48,219.48,0,0,0,59.3,193.44c-1,1.58,1.51,3,2.48,1.45Z"/><path class="cls-7" d="M105.43,155.67l-2.5,5.2s10.34,5.64,18.13,0a30,30,0,0,1-1.78-5.65Z"/><path class="cls-4" d="M160.4,98s8.71-2.1,8.71,5.48S152.7,126.7,152.7,126.7A61.37,61.37,0,0,0,160.4,98Z"/><path class="cls-5" d="M160.78,99.36c3.19-.72,6.82.16,6.9,4.1.07,3.31-2.75,6.87-4.59,9.41a97,97,0,0,1-11.4,12.82l2.24,1.73c5.21-8.74,7.72-19.35,7.9-29.44A1.43,1.43,0,0,0,159,98c-.17,9.58-2.55,19.69-7.5,28a1.43,1.43,0,0,0,2.24,1.73c5.89-5.65,12.63-12.38,15.8-20,3-7.22-2-12.76-9.49-11.07C158.22,97,159,99.76,160.78,99.36Z"/><path class="cls-4" d="M63,98s-8.71-2.1-8.71,5.48S70.68,126.7,70.68,126.7A61.37,61.37,0,0,1,63,98Z"/><path class="cls-5" d="M63.36,96.61c-7.49-1.69-12.48,3.85-9.49,11.07,3.16,7.65,9.9,14.38,15.8,20A1.43,1.43,0,0,0,71.91,126c-5-8.3-7.34-18.42-7.5-28a1.43,1.43,0,0,0-2.86,0c.18,10.09,2.68,20.7,7.89,29.44l2.25-1.73a96.94,96.94,0,0,1-11.4-12.82c-1.84-2.53-4.68-6.1-4.59-9.41.09-4,3.69-4.82,6.9-4.1C64.39,99.76,65.15,97,63.36,96.61Z"/><path class="cls-4" d="M111.94,156.87c54.24,0,48.81-81.23,48.81-81.23s0-41.18-48.81-41.18S63.13,75.64,63.13,75.64,57.71,156.87,111.94,156.87Z"/><path class="cls-5" d="M111.94,158.29c15.15-.15,28.19-6.95,36.62-19.59,7.66-11.47,11.05-25.46,12.69-39,1.71-14.11,2.61-29.71-4-42.8-7.13-14.21-21.36-21.69-36.76-23.41-17.59-2-37.61,1.57-49.23,16.08-9.67,12.08-10.37,26.82-9.45,41.5,1.89,30.38,14,66.86,50.09,67.22a1.43,1.43,0,0,0,0-2.85c-31.59-.32-43.74-30.57-46.66-57.63-1.34-12.4-2.22-26.19,3-37.88C74.78,45.5,88.69,37.87,104,36.28c17.31-1.8,37.13,1.82,47.73,16.92,7.85,11.18,8.22,24.16,7.46,37.21-1.68,28.88-12.62,64.67-47.28,65A1.43,1.43,0,0,0,111.94,158.29Z"/><ellipse class="cls-5" cx="132.89" cy="103.11" rx="6.63" ry="5.4"/><ellipse class="cls-5" cx="94.07" cy="103.11" rx="6.63" ry="5.4"/><ellipse class="cls-8" cx="84" cy="116.26" rx="4.03" ry="4.95" transform="translate(-55.24 150.68) rotate(-68.03)"/><ellipse class="cls-8" cx="142.42" cy="116.26" rx="4.95" ry="4.03" transform="translate(-33.15 61.71) rotate(-21.97)"/><g class="cls-9"><path class="cls-10" d="M152.72,124.6s-22.27,25.09-30.78,28.3l-8.51,3.22s17.19.53,25.08-7.9S152.77,128.54,152.72,124.6Z"/><path class="cls-11" d="M113.93,156.33h-.51l-1,0,9.46-3.57c8.36-3.17,30.47-28,30.69-28.25l.35-.39v.52c.05,3.9-6.17,15.12-14.26,23.76C131.56,155.94,116.85,156.33,113.93,156.33Zm38.55-31.16C149.4,128.6,130,150.09,122,153.09l-7.48,2.83c3.91-.06,17.24-.8,23.84-7.83C146,139.9,152,129.42,152.48,125.17Z"/></g><path class="cls-12" d="M104.68,102.37s-.81-10.67-11.67-10-13.47,5.09-15.67,10"/><path class="cls-13" d="M122.2,101.41s.81-10.68,11.67-10,13.47,5.09,15.68,10"/><path class="cls-5" d="M74.74,92.2c0-.62.28-.59.49-.71l.67-.29,1.33-.58c.89-.38,1.78-.75,2.69-1.1,1.8-.71,3.63-1.35,5.49-1.94a39.06,39.06,0,0,1,11.67-2,12.77,12.77,0,0,1,6.22,1.45,7.19,7.19,0,0,1,1.41,1.07l.59.69.43.6c.55.8,1.11,1.6,1.63,2.42A20.09,20.09,0,0,1,110,97.27a11.38,11.38,0,0,1,.36,3c0,.5,0,1-.05,1.47s.08,1-.55,1.45c-.62-.48-.49-1-.55-1.43s-.08-1-.14-1.41a10.08,10.08,0,0,0-.64-2.61,19.58,19.58,0,0,0-3-4.58L103.68,91l-.45-.54-.37-.38a4.86,4.86,0,0,0-.92-.6,7.4,7.4,0,0,0-2.3-.75A15.73,15.73,0,0,0,97,88.48a37.89,37.89,0,0,0-5.49.37c-1.86.23-3.72.56-5.57.94s-3.71.79-5.56,1.26c-.93.23-1.85.48-2.77.74l-1.38.4-.68.21C75.34,92.45,75.17,92.65,74.74,92.2Z"/><path class="cls-5" d="M122.83,91.36c-.22-.67.14-.74.32-1l.65-.63c.44-.41.89-.8,1.36-1.19a24.18,24.18,0,0,1,3-2.07,15.59,15.59,0,0,1,7.14-2.15,13.3,13.3,0,0,1,3.82.37,13.63,13.63,0,0,1,3.49,1.48,17.62,17.62,0,0,1,2.9,2.29,17,17,0,0,1,1.23,1.32,7.89,7.89,0,0,1,.57.7,1.13,1.13,0,0,1,.36.86,1.11,1.11,0,0,1-.85-.39c-.23-.17-.44-.37-.68-.53-.48-.32-.92-.68-1.42-1a15.61,15.61,0,0,0-3-1.43,16.25,16.25,0,0,0-6.26-.85,23,23,0,0,0-6.31,1.38,24.66,24.66,0,0,0-3.09,1.34c-.51.26-1,.53-1.5.83l-.72.45C123.56,91.33,123.47,91.64,122.83,91.36Z"/><path class="cls-5" d="M112.44,128.78c4.81,0,12.7-2,12.7-2s2.12,12-12.7,12.65c-14.81-.63-12.7-12.65-12.7-12.65S107.64,128.78,112.44,128.78Z"/><path class="cls-5" d="M112.44,129.85a62.81,62.81,0,0,0,13-2l-1.32-.75c2.4,14.85-25.73,14.85-23.34,0l-1.32.75a62.92,62.92,0,0,0,13,2c1.38,0,1.38-2.11,0-2.15A60.22,60.22,0,0,1,100,125.78a1.07,1.07,0,0,0-1.31.75c-3,18.32,30.42,18.32,27.47,0a1.09,1.09,0,0,0-1.32-.75,60,60,0,0,1-12.42,1.92C111.06,127.74,111.06,129.89,112.44,129.85Z"/><path class="cls-14" d="M104.21,128.83a14.27,14.27,0,0,0,8.27,3,12.44,12.44,0,0,0,7.87-3,42.69,42.69,0,0,1-8,.93A45.66,45.66,0,0,1,104.21,128.83Z"/><path class="cls-15" d="M104.08,134.31a37.15,37.15,0,0,1,16.63,0,.63.63,0,0,1,.22,1.15c-2.7,1.77-9.81,5.33-17.06-.05A.64.64,0,0,1,104.08,134.31Z"/><path class="cls-5" d="M69.47,118.54s-4.9-43.93,3.44-52.27a52,52,0,0,1,13.23-9.42,52.52,52.52,0,0,1,31.36-5.21C137.42,54.53,146,61,149.55,71.21s6.76,32.17,5.23,47.32c6-19.17,8.81-34.55,8.84-43.92s-2.89-25.18-22.88-34.85c-18.58-9-35.75-10.73-58.56,0C56.56,51.82,56.85,97.4,69.47,118.54Z"/><path class="cls-5" d="M124,124.77l-11.28-1a1.93,1.93,0,0,0-.48,0l-11.9,1a1.88,1.88,0,0,1-1.88-1.88h0a1.88,1.88,0,0,1,1.88-1.87l12-1h.26L124,121a1.87,1.87,0,0,1,1.87,1.87h0A1.88,1.88,0,0,1,124,124.77Z"/><path class="cls-5" d="M137.2,142.78c-6.81,4.77-14.93,6.47-25.25,6.47s-18.44-1.7-25.25-6.47-18.22-28.59-18.22-28.59l2,15.19S80,161.17,112,161.17s41.46-31.79,41.46-31.79l2-15.19S144,138,137.2,142.78Z"/><g class="cls-16"><line class="cls-5" x1="74.15" y1="96.18" x2="63.54" y2="96.18"/><path class="cls-5" d="M74.15,94.68H63.54a1.5,1.5,0,0,0,0,3H74.15a1.5,1.5,0,0,0,0-3Z"/><path class="cls-14" d="M74.15,96.18s19.48-4.12,32.72,0l-2,15s-3.89,6.47-30.76,2.18Z"/><path class="cls-5" d="M74.55,97.63c10.26-2.13,21.77-2.9,31.92,0l-1.1-1.45c-.63,4.79-1.14,9.61-1.88,14.38-.19,1.21.8-.31-.23.18-8.84,4.16-19.32,2.62-28.71,1.18l1.1,1.45V96.18a1.5,1.5,0,0,0-3,0v17.19a1.51,1.51,0,0,0,1.1,1.45c7.55,1.16,15.37,2.16,23,1.11,2.7-.37,6-.93,8.19-2.72a3.78,3.78,0,0,0,1.49-2.14c1.46-4.49,1.34-10.26,1.94-14.89a1.53,1.53,0,0,0-1.1-1.45c-10.7-3.06-22.71-2.24-33.52,0C71.86,95.12,72.66,98,74.55,97.63Z"/><path class="cls-14" d="M151.13,95.49s-19.48-4.11-32.72,0l2,15s3.89,6.47,30.76,2.18Z"/><path class="cls-5" d="M151.53,94c-10.81-2.24-22.82-3.06-33.52,0a1.52,1.52,0,0,0-1.1,1.44c.6,4.61.45,10.4,1.94,14.86a3.84,3.84,0,0,0,1.49,2.17c2.14,1.75,5.35,2.32,8,2.7,7.69,1.09,15.59.08,23.2-1.09a1.51,1.51,0,0,0,1.1-1.45V95.49a1.5,1.5,0,0,0-3,0v17.19l1.1-1.45c-9.38,1.44-19.87,3-28.71-1.18-1-.49,0,1-.23-.18-.74-4.77-1.25-9.59-1.87-14.38l-1.11,1.45c10.15-2.9,21.66-2.13,31.92,0C152.62,97.33,153.42,94.44,151.53,94Z"/><path class="cls-5" d="M106.87,97.68h11.54a1.5,1.5,0,0,0,0-3H106.87a1.5,1.5,0,0,0,0,3Z"/><path class="cls-5" d="M151.13,97h9.56a1.5,1.5,0,0,0,0-3h-9.56a1.5,1.5,0,0,0,0,3Z"/></g><path class="cls-5" d="M73.86,94.75H63.17a1.43,1.43,0,0,0,0,2.85H73.86a1.43,1.43,0,0,0,0-2.86Z"/><path class="cls-5" d="M74.24,97.56c10.36-2.13,22-2.91,32.22,0l-1-1.38c-.63,4.79-1.1,9.62-1.89,14.38-.2,1.19.78-.27-.26.24-8.84,4.28-19.64,2.62-29,1.19l1.05,1.38V96.18a1.43,1.43,0,0,0-2.86,0v17.19a1.44,1.44,0,0,0,1,1.38c7.61,1.16,15.48,2.16,23.16,1.11,2.7-.37,6-.92,8.22-2.71a3.76,3.76,0,0,0,1.45-2.08c1.5-4.45,1.35-10.28,2-14.89a1.42,1.42,0,0,0-1-1.37c-10.78-3.07-22.85-2.25-33.74,0C71.68,95.17,72.44,97.93,74.24,97.56Z"/><path class="cls-5" d="M151.83,94.12c-10.88-2.24-23-3.07-33.73,0a1.43,1.43,0,0,0-1,1.38c.6,4.57.43,10.43,2,14.85a3.78,3.78,0,0,0,1.46,2.11c2.15,1.75,5.38,2.31,8,2.69,7.73,1.09,15.68.08,23.34-1.09a1.43,1.43,0,0,0,1-1.38V95.49a1.43,1.43,0,0,0-2.85,0v17.19l1-1.37c-9.37,1.42-20.18,3.08-29-1.2-1-.51-.06,1-.27-.24-.79-4.76-1.26-9.59-1.88-14.37l-1,1.37c10.24-2.92,21.85-2.13,32.21,0C152.87,97.24,153.64,94.49,151.83,94.12Z"/><path class="cls-5" d="M106.84,97.61h11.64a1.43,1.43,0,0,0,0-2.85H106.84a1.43,1.43,0,0,0,0,2.85Z"/><path class="cls-5" d="M151.45,96.92h9.64a1.43,1.43,0,0,0,0-2.86h-9.64a1.43,1.43,0,0,0,0,2.86Z"/><path class="cls-5" d="M74.43,83.49,67,91.2a2.18,2.18,0,0,1-3.75-1.57c.32-10.33,1.87-31.85,9.32-35.71,5.08-2.62,8.54-2.55,10.7-1.85a2.16,2.16,0,0,1,.87,3.57C81.3,58.59,76.32,66,75,82.15A2.16,2.16,0,0,1,74.43,83.49Z"/><path class="cls-5" d="M72.33,85.67s-5.59,9.06-2.84,33.25C66.8,110.43,58.8,86.78,72.33,85.67Z"/><path class="cls-5" d="M150.43,86.93l7.42,7.7a2.18,2.18,0,0,0,3.75-1.57c-.32-10.33-1.87-31.85-9.32-35.7-5.08-2.63-8.54-2.55-10.7-1.86a2.16,2.16,0,0,0-.87,3.57c2.85,3,7.83,10.32,9.12,26.51A2.23,2.23,0,0,0,150.43,86.93Z"/><path class="cls-5" d="M152.53,89.1s5.59,9.07,2.84,33.26C158.06,113.87,166.06,90.21,152.53,89.1Z"/></g></svg>