<svg id="Calque_1" data-name="Calque 1" xmlns="http://www.w3.org/2000/svg" xmlns:xlink="http://www.w3.org/1999/xlink" viewBox="0 0 224.86 234.46"><defs><style>.cls-1,.cls-15{fill:none;}.cls-2{fill:#f5f4f2;}.cls-3{clip-path:url(#clip-path);}.cls-4{fill:#bf9c7e;}.cls-5{fill:#1b2439;}.cls-6{fill:#e7334d;}.cls-7{fill:#29235c;}.cls-11,.cls-7{opacity:0.1;}.cls-10,.cls-8{fill:#f18511;}.cls-8{opacity:0.4;}.cls-9{fill:#fff;}.cls-12{fill:#25509e;}.cls-13,.cls-14{opacity:0.07;}.cls-13{fill:url(#Dégradé_sans_nom_3);}.cls-14{fill:url(#Dégradé_sans_nom_3-2);}.cls-15{opacity:0.5;}</style><clipPath id="clip-path"><ellipse class="cls-1" cx="112.43" cy="119.3" rx="96.32" ry="112.28"/></clipPath><linearGradient id="Dégradé_sans_nom_3" x1="93.1" y1="140.96" x2="93.1" y2="132.44" gradientUnits="userSpaceOnUse"><stop offset="0" stop-color="#fff" stop-opacity="0"/><stop offset="0.06" stop-color="#dce3ef" stop-opacity="0.16"/><stop offset="0.16" stop-color="#a4b6d7" stop-opacity="0.42"/><stop offset="0.26" stop-color="#7691c2" stop-opacity="0.63"/><stop offset="0.37" stop-color="#5275b2" stop-opacity="0.79"/><stop offset="0.48" stop-color="#3960a7" stop-opacity="0.91"/><stop offset="0.59" stop-color="#2a54a0" stop-opacity="0.98"/><stop offset="0.72" stop-color="#25509e"/></linearGradient><linearGradient id="Dégradé_sans_nom_3-2" x1="-1935.33" y1="140.96" x2="-1935.33" y2="132.44" gradientTransform="matrix(-1, 0, 0, 1, -1797.76, 0)" xlink:href="#Dégradé_sans_nom_3"/></defs><title>avatar-benedicte</title><circle class="cls-2" cx="112.43" cy="140.16" r="90.6"/><g class="cls-3"><path class="cls-4" d="M85.86,230.85,84.42,203.6c3.13-2.81,20.39-4.16,22.26-7.12s-.49-9.84-.49-9.84h15.08s-1.73,6.88.14,9.84,18.5,4.31,21.63,7.12l-2.42,27.25"/><path class="cls-5" d="M87.28,230.85l-.75-14.13-.48-9.05c0-1-.08-2-.16-2.95-.14-1.64-.07-.37-.1-.35,5.79-3.38,13.46-2.48,19.52-5.3,5-2.32,3.68-8.44,2.25-12.8l-1.37,1.79h15.08l-1.37-1.79c-1.07,4.48-2,10.57,2.94,12.84,3,1.38,6.45,1.89,9.64,2.6,1.76.39,3.53.76,5.27,1.24.88.24,1.74.58,2.62.81.28.07,2.06,1.21,1.4.31-.47-.63-.09.14-.26.82a20.88,20.88,0,0,0-.26,3l-.83,9.36-1.21,13.63c-.16,1.81,2.67,1.8,2.83,0l1.08-12.17.79-8.87c.15-1.72.82-4.11.51-5.81-.64-3.58-7.14-4.12-10.09-4.78-3.16-.71-7.13-1-10-2.55-3.38-1.78-2.45-6.39-1.67-9.65a1.43,1.43,0,0,0-1.36-1.79H106.19a1.43,1.43,0,0,0-1.37,1.79c1.07,3.24,2.33,7.64-.95,9.59-2.52,1.5-6.5,1.75-9.32,2.36-3.11.67-10.52,1.14-11.54,4.82-.38,1.36.19,3.64.27,5l.47,8.89.7,13.13c.09,1.81,2.92,1.82,2.83,0Z"/><path class="cls-6" d="M62.32,232.08s16.45-26.67,22-29.18,20.24-4.46,20.24-4.46,8.73,12.69,18.13,1.64c0,0,1.39-2.27,2.77-2.27s11.07,3.31,17.89,5.37,23,30.35,23,30.35"/><path class="cls-5" d="M63.56,232.8A227.69,227.69,0,0,1,79,210.26c3.26-4.09,5.82-6.33,11-7.65a131.69,131.69,0,0,1,15-2.78l-1.62-.66c3,4.21,8.12,7.89,13.5,6.57a12.13,12.13,0,0,0,5.14-2.87c1.6-1.42,2.44-3.42,4.7-3.35,2.07.06,4.67,1.38,6.65,2,2.78.88,5.59,1.68,8.35,2.63,6.66,2.31,11.11,10.57,14.82,16.14,3,4.55,5.94,9.21,8.66,13.95a1.44,1.44,0,0,0,2.48-1.45q-3.82-6.65-8.07-13.06c-3.71-5.63-7.79-12.62-13.38-16.61-3.06-2.19-7.2-2.82-10.73-3.94-2.81-.89-7.11-3.17-10.17-2.79-1.55.2-2.36,1.23-3.35,2.31-2.36,2.55-5,5-8.71,4.32-3-.5-5.72-2.93-7.41-5.31a1.52,1.52,0,0,0-1.62-.66,121.88,121.88,0,0,0-16.1,3.06c-4.85,1.34-7.41,3.53-10.57,7.38a221.45,221.45,0,0,0-16.45,23.85c-1,1.58,1.51,3,2.48,1.45Z"/><path class="cls-7" d="M107.09,193.5l-2.51,5.2s10.34,5.64,18.13,0a29.61,29.61,0,0,1-1.77-5.65Z"/><path class="cls-4" d="M161.89,135.12s8.63-2.09,8.63,5.42-16.26,23-16.26,23A60.79,60.79,0,0,0,161.89,135.12Z"/><path class="cls-5" d="M162.36,136.83c2.6-.59,5.69-.22,6.27,2.87.64,3.42-2.42,7.28-4.29,9.86A95.45,95.45,0,0,1,153,162.33l2.79,2.15c5.2-8.72,7.7-19.3,7.87-29.36,0-2.29-3.51-2.29-3.55,0-.16,9.43-2.51,19.38-7.39,27.57a1.78,1.78,0,0,0,2.79,2.15c5.87-5.63,12.66-12.42,15.77-20.07,3-7.42-2.2-13.09-9.87-11.37C159.18,133.9,160.13,137.33,162.36,136.83Z"/><path class="cls-4" d="M65.31,135.12s-8.63-2.09-8.63,5.42,16.26,23,16.26,23A60.79,60.79,0,0,1,65.31,135.12Z"/><path class="cls-5" d="M65.79,133.4c-7.67-1.72-12.9,3.94-9.87,11.37,3.11,7.66,9.89,14.44,15.77,20.07a1.78,1.78,0,0,0,2.79-2.15c-4.88-8.18-7.22-18.14-7.39-27.57,0-2.29-3.59-2.3-3.55,0,.17,10.06,2.67,20.64,7.87,29.36l2.79-2.15a96.78,96.78,0,0,1-11.34-12.77c-1.74-2.39-4.48-5.88-4.41-9,.09-3.64,3.45-4.37,6.39-3.71C67.07,137.33,68,133.9,65.79,133.4Z"/><path class="cls-4" d="M113.85,193.49c53.77,0,48.39-80.52,48.39-80.52s0-40.83-48.39-40.83S65.46,113,65.46,113,60.09,193.49,113.85,193.49Z"/><path class="cls-5" d="M113.85,194.9c15.12-.15,28.1-7,36.45-19.64,7.43-11.26,10.77-24.92,12.4-38.16,1.74-14.17,2.66-29.9-4-43-7.11-13.88-21.08-21.19-36.21-22.89-17.29-2-37,1.44-48.6,15.56C64,98.82,63.26,113.68,64.2,128.45c1.92,30.06,13.93,66.09,49.65,66.45a1.42,1.42,0,0,0,0-2.83c-31.36-.32-43.39-30.38-46.27-57.24-1.31-12.24-2.17-25.85,3-37.4,6.5-14.53,20.59-22.07,36-23.54,16.86-1.61,36,2,46.47,16.49,8,11.07,8.39,24.06,7.65,37.08-1.64,28.66-12.46,64.26-46.88,64.61A1.42,1.42,0,0,0,113.85,194.9Z"/><ellipse class="cls-5" cx="134.62" cy="140.2" rx="6.57" ry="5.35"/><ellipse class="cls-5" cx="96.14" cy="140.2" rx="6.57" ry="5.35"/><path class="cls-5" d="M115.33,161.58c6.34,0,16.77-2.59,16.77-2.59s2.79,15.86-16.77,16.69C95.77,174.85,98.56,159,98.56,159S109,161.58,115.33,161.58Z"/><path class="cls-5" d="M115.33,163a80.25,80.25,0,0,0,17.14-2.64l-1.74-1c3.21,19.46-34,19.47-30.81,0l-1.74,1A80.34,80.34,0,0,0,115.33,163c1.82,0,1.82-2.79,0-2.83a76.7,76.7,0,0,1-16.4-2.54,1.43,1.43,0,0,0-1.74,1c-4,24.18,40.26,24.18,36.27,0a1.43,1.43,0,0,0-1.74-1,76.51,76.51,0,0,1-16.39,2.54C113.51,160.2,113.5,163,115.33,163Z"/><path class="cls-5" d="M87.92,134.85A7.56,7.56,0,0,1,89.77,137c.21.35.39.71.57,1.09l.65,1.34a2.22,2.22,0,0,1-1.71-.29A3.5,3.5,0,0,1,88.13,138a3.89,3.89,0,0,1-.49-1.51A2.92,2.92,0,0,1,87.92,134.85Z"/><path class="cls-5" d="M84.37,138.74c.69,0,1.26,0,1.83,0a14.69,14.69,0,0,1,1.64.2,11.24,11.24,0,0,1,1.64.41,6.76,6.76,0,0,1,1.71.81,4.7,4.7,0,0,1-1.83.68,5.81,5.81,0,0,1-1.86,0,5.26,5.26,0,0,1-1.77-.65A3.19,3.19,0,0,1,84.37,138.74Z"/><path class="cls-5" d="M142.54,134.48a3,3,0,0,1,.28,1.64,3.75,3.75,0,0,1-.5,1.51,3.35,3.35,0,0,1-1.15,1.19,2.19,2.19,0,0,1-1.7.28l.65-1.33c.18-.39.36-.74.57-1.1A7.69,7.69,0,0,1,142.54,134.48Z"/><path class="cls-5" d="M146.09,138.37a3.25,3.25,0,0,1-1.36,1.45,5.31,5.31,0,0,1-1.78.65,5.8,5.8,0,0,1-1.86,0,4.37,4.37,0,0,1-1.82-.68A7.13,7.13,0,0,1,141,139a12.54,12.54,0,0,1,1.63-.41,15.16,15.16,0,0,1,1.65-.2C144.83,138.38,145.39,138.37,146.09,138.37Z"/><ellipse class="cls-8" cx="86.16" cy="153.24" rx="3.99" ry="4.91" transform="translate(-88.19 175.82) rotate(-68.03)"/><ellipse class="cls-8" cx="144.06" cy="153.24" rx="4.91" ry="3.99" transform="translate(-46.86 65.01) rotate(-21.97)"/><path class="cls-9" d="M104.46,161.65a18.88,18.88,0,0,0,10.92,3.94,16.4,16.4,0,0,0,10.38-3.94,56.64,56.64,0,0,1-10.54,1.22A60.69,60.69,0,0,1,104.46,161.65Z"/><path class="cls-10" d="M104.29,168.89a48.8,48.8,0,0,1,21.95,0,.84.84,0,0,1,.3,1.52c-3.57,2.33-13,7-22.53-.06A.84.84,0,0,1,104.29,168.89Z"/><g class="cls-11"><path class="cls-12" d="M155,156.66s-21.63,28.41-29.9,32.05l-8.27,3.64s16.7.59,24.37-8.94S155.06,161.12,155,156.66Z"/><path class="cls-12" d="M117.33,192.57h-.5l-.92,0,9.11-4c8.13-3.58,29.61-31.69,29.82-32l.38-.49v.61c.06,4.41-6,17.11-13.84,26.88C134.47,192.12,120.17,192.57,117.33,192.57Zm37.44-35.24c-3.12,4-21.89,28.18-29.58,31.57l-7.35,3.24c3.7-.06,16.76-.86,23.21-8.87C148.49,174,154.28,162.18,154.77,157.33Z"/></g><path class="cls-13" d="M106.65,140.82s-.8-10.58-11.56-9.93-13.36,5.05-15.54,9.93"/><path class="cls-14" d="M124,140.82s.81-10.58,11.57-9.93,13.36,5.05,15.54,9.93"/><path class="cls-5" d="M76,129.24c0-.62.28-.59.49-.71l.66-.29,1.32-.58c.88-.37,1.77-.74,2.66-1.09,1.79-.7,3.61-1.33,5.45-1.92a38.71,38.71,0,0,1,11.57-1.94,12.64,12.64,0,0,1,6.16,1.44,6.45,6.45,0,0,1,1.39,1.07l.59.68.43.6c.54.78,1.1,1.57,1.62,2.39a19.88,19.88,0,0,1,2.63,5.37,11.56,11.56,0,0,1,.35,3c0,.5,0,1,0,1.46s.08,1-.54,1.43c-.62-.47-.49-.95-.55-1.42s-.08-.93-.14-1.39a9.92,9.92,0,0,0-.63-2.59,19.16,19.16,0,0,0-3-4.54L104.68,128c-.15-.18-.3-.38-.44-.54l-.38-.37a5,5,0,0,0-.91-.6,7.27,7.27,0,0,0-2.28-.73,13.71,13.71,0,0,0-2.59-.24,36.07,36.07,0,0,0-5.45.36c-1.83.23-3.68.55-5.51.93s-3.69.78-5.52,1.25c-.92.23-1.83.48-2.74.73l-1.37.4-.68.2C76.58,129.47,76.41,129.68,76,129.24Z"/><path class="cls-5" d="M123.65,128.4c-.21-.67.14-.74.32-1l.64-.63q.66-.6,1.35-1.17a23.89,23.89,0,0,1,3-2.06,15.58,15.58,0,0,1,7.08-2.14,13.39,13.39,0,0,1,3.78.38,13.09,13.09,0,0,1,3.46,1.46,16.93,16.93,0,0,1,2.87,2.28,16.74,16.74,0,0,1,1.23,1.3c.2.22.37.46.56.69a1.15,1.15,0,0,1,.36.86,1.17,1.17,0,0,1-.85-.38,6.78,6.78,0,0,0-.67-.53c-.47-.32-.91-.68-1.4-.95a15.6,15.6,0,0,0-3-1.42,16.24,16.24,0,0,0-6.22-.85,22.31,22.31,0,0,0-6.25,1.38,24.13,24.13,0,0,0-3.06,1.32c-.5.26-1,.53-1.49.82l-.72.45C124.38,128.37,124.29,128.67,123.65,128.4Z"/><path class="cls-12" d="M82.66,122.83s0-.13,0-.35C82.51,124.48,82.66,122.83,82.66,122.83Z"/><path class="cls-5" d="M172.45,109.7a12.77,12.77,0,0,0-7.92-11.82,12.75,12.75,0,0,0-5.69-16.7,12.75,12.75,0,0,0-10.45-12,12.79,12.79,0,0,0-7-8.61,9.13,9.13,0,0,0,3.84-7.44,9.31,9.31,0,0,0-.46-2.86,9.42,9.42,0,0,0,.46-2.87,9.16,9.16,0,0,0-3.35-7.08c-.09-.3-.17-.6-.26-.89a10,10,0,0,0,.09-1.23,9.15,9.15,0,0,0-4.9-8.1c-.31-.41-.63-.81-.95-1.21a9.16,9.16,0,0,0-8.65-7.18c-.61-.34-1.22-.67-1.86-1a9.11,9.11,0,0,0-6.75-3h-.13a9.13,9.13,0,0,0-9.47.15c-.4,0-.8.09-1.19.15a9.16,9.16,0,0,0-13.53,4c-.31,0-.62-.05-.93-.05a9.17,9.17,0,0,0-9.16,9A9.16,9.16,0,0,0,77,40a9,9,0,0,0,.59,3.21,9,9,0,0,0-1,4.18,9.13,9.13,0,0,0,.94,4,9.15,9.15,0,0,0,2,12.33,12.68,12.68,0,0,0-3.65,7.84,12.49,12.49,0,0,0-2.89-.34A12.78,12.78,0,0,0,60.16,84.06a13.86,13.86,0,0,0,.11,1.6,12.78,12.78,0,0,0-2.6,13.81,12.75,12.75,0,0,0-3,17.33,12.74,12.74,0,0,0,10.7,18.43,255.36,255.36,0,0,0,5.09,26.71s-1.67-14.65,1.87-28.3a12.78,12.78,0,0,0,6.56-11.16c0-.35,0-.7,0-1A12.78,12.78,0,0,0,87.93,113a12.77,12.77,0,0,0,19.48-7.75,12.48,12.48,0,0,0,1.38.08,12.78,12.78,0,0,0,12.78-12.78l.16-.31a12.77,12.77,0,0,0,10.5,5.5,12.34,12.34,0,0,0,3.06-.39,12.78,12.78,0,0,0,11.84,8l.38,0,.12.16a12.8,12.8,0,0,0-.74,4.26,12.65,12.65,0,0,0,1.53,6.06,12.78,12.78,0,0,0,8.46,18.54,145,145,0,0,1-.16,32.1s.83-4.46,5.17-26c.45-2.15.79-4.21,1.09-6.24a12.77,12.77,0,0,0,7.94-18.4A12.65,12.65,0,0,0,172.45,109.7Z"/></g><circle class="cls-15" cx="112.43" cy="130.25" r="90.6"/></svg>