<svg id="Calque_1" data-name="Calque 1" xmlns="http://www.w3.org/2000/svg" xmlns:xlink="http://www.w3.org/1999/xlink" viewBox="0 0 224.86 208.42"><defs><style>.cls-1{fill:#f5f4f2;}.cls-2{fill:none;opacity:0.5;}.cls-3{clip-path:url(#clip-path);}.cls-4{fill:#ead1b8;}.cls-5{fill:#1b2439;}.cls-6{fill:#26b0bd;}.cls-10,.cls-7{fill:#29235c;}.cls-7,.cls-9{opacity:0.1;}.cls-15,.cls-8{fill:#f18511;}.cls-8{opacity:0.4;}.cls-11{fill:#25509e;}.cls-12,.cls-13{opacity:0.07;}.cls-12{fill:url(#Dégradé_sans_nom_13);}.cls-13{fill:url(#Dégradé_sans_nom_13-2);}.cls-14{fill:#fff;}.cls-16{opacity:0.8;}</style><clipPath id="clip-path"><circle class="cls-1" cx="112.43" cy="106.97" r="90.6"/></clipPath><linearGradient id="Dégradé_sans_nom_13" x1="91.01" y1="105.28" x2="91.01" y2="96.68" gradientUnits="userSpaceOnUse"><stop offset="0" stop-color="#fff" stop-opacity="0"/><stop offset="0.06" stop-color="#dce3ef" stop-opacity="0.16"/><stop offset="0.16" stop-color="#a4b6d7" stop-opacity="0.42"/><stop offset="0.26" stop-color="#7691c2" stop-opacity="0.63"/><stop offset="0.37" stop-color="#5275b2" stop-opacity="0.79"/><stop offset="0.48" stop-color="#3960a7" stop-opacity="0.91"/><stop offset="0.59" stop-color="#2a54a0" stop-opacity="0.98"/><stop offset="0.72" stop-color="#25509e"/></linearGradient><linearGradient id="Dégradé_sans_nom_13-2" x1="-1933.63" y1="104.32" x2="-1933.63" y2="95.72" gradientTransform="matrix(-1, 0, 0, 1, -1797.76, 0)" xlink:href="#Dégradé_sans_nom_13"/></defs><title>avatar-Issam</title><circle class="cls-2" cx="112.43" cy="104.21" r="90.6"/><circle class="cls-1" cx="112.43" cy="106.97" r="90.6"/><circle class="cls-1" cx="112.43" cy="106.97" r="90.6"/><g class="cls-3"><path class="cls-4" d="M84.08,195.7l-1.44-27.25c3.13-2.81,20.39-4.16,22.26-7.12s-.49-9.84-.49-9.84h15.08s-1.73,6.87.14,9.84,18.5,4.31,21.63,7.12l-2.42,27.25"/><path class="cls-5" d="M85,195.7l-.75-14.13-.48-9a21,21,0,0,1-.16-3c.14-1.39-.16-.46.13-.74,2-1.88,7.06-2.16,9.62-2.72,3.28-.71,6.94-1.17,10-2.63,4.65-2.22,3.28-8.16,1.93-12.24l-.92,1.22h15.08l-.92-1.22c-1,4.23-2,10.09,2.61,12.28,2.95,1.42,6.47,1.9,9.64,2.6,2,.45,8.63,1.33,9.51,2.61,0,0-.33,3.14-.4,4l-.83,9.36-1.21,13.63c-.11,1.22,1.8,1.22,1.91,0l1.08-12.17.79-8.87c.15-1.64.89-4.2.52-5.82-.75-3.21-7-3.71-9.76-4.33-3.3-.75-6.91-1.21-10-2.55-3.81-1.63-2.79-6.86-2-10.22a1,1,0,0,0-.92-1.21H104.41a1,1,0,0,0-.92,1.21c1.15,3.5,2.34,8.12-1.28,10.16-2.6,1.47-6.45,1.73-9.32,2.36s-10.06,1.08-11.2,4.37c-.44,1.26.2,3.75.27,5.05l.47,8.89.69,13.13c.07,1.22,2,1.23,1.92,0Z"/><path class="cls-6" d="M60.54,196.93s16.45-26.67,22-29.18,20.24-4.46,20.24-4.46,8.73,12.69,18.13,1.63c0,0,1.39-2.26,2.77-2.26S134.77,166,141.59,168s23,30.36,23,30.36"/><path class="cls-5" d="M61.78,197.65A226.52,226.52,0,0,1,77.2,175.11c3.26-4.09,5.82-6.34,11-7.65a131.69,131.69,0,0,1,15-2.78l-1.62-.66c3,4.2,8.12,7.88,13.5,6.57a12.24,12.24,0,0,0,5.14-2.87c1.6-1.43,2.44-3.42,4.7-3.35,2.07,0,4.67,1.38,6.65,2,2.77.88,5.59,1.69,8.35,2.64,6.66,2.31,11.11,10.56,14.82,16.13,3,4.56,5.94,9.22,8.66,14a1.44,1.44,0,0,0,2.48-1.45Q162,191,157.79,184.59C154.08,179,150,172,144.41,168c-3.06-2.19-7.2-2.82-10.73-3.94-2.81-.89-7.11-3.17-10.17-2.79-1.55.19-2.36,1.23-3.35,2.31-2.36,2.55-5,5-8.71,4.32-3-.5-5.72-2.93-7.41-5.31a1.52,1.52,0,0,0-1.62-.66A120.73,120.73,0,0,0,86.31,165c-4.84,1.34-7.4,3.53-10.56,7.38A220.46,220.46,0,0,0,59.3,196.2c-1,1.58,1.51,3,2.48,1.45Z"/><path class="cls-7" d="M105.31,157.35l-2.51,5.2s10.34,5.64,18.13,0a29.61,29.61,0,0,1-1.77-5.65Z"/><path class="cls-4" d="M160.4,100.75s8.71-2.11,8.71,5.47-16.41,23.25-16.41,23.25A61.37,61.37,0,0,0,160.4,100.75Z"/><path class="cls-5" d="M160.78,102.12c3.19-.72,6.82.17,6.9,4.1.07,3.32-2.75,6.88-4.59,9.41a97.74,97.74,0,0,1-11.4,12.83l2.24,1.73c5.21-8.75,7.72-19.36,7.9-29.44a1.43,1.43,0,0,0-2.86,0c-.17,9.58-2.55,19.69-7.5,28a1.44,1.44,0,0,0,2.24,1.74c5.89-5.66,12.63-12.39,15.8-20,3-7.22-2-12.76-9.49-11.07C158.22,99.77,159,102.53,160.78,102.12Z"/><path class="cls-4" d="M63,100.75s-8.71-2.11-8.71,5.47,16.41,23.25,16.41,23.25A61.37,61.37,0,0,1,63,100.75Z"/><path class="cls-5" d="M63.36,99.37c-7.49-1.69-12.48,3.85-9.49,11.07,3.16,7.65,9.9,14.38,15.8,20a1.44,1.44,0,0,0,2.24-1.74c-5-8.3-7.34-18.42-7.5-28a1.43,1.43,0,0,0-2.86,0c.18,10.09,2.68,20.69,7.89,29.44l2.25-1.73a97,97,0,0,1-11.4-12.83c-1.84-2.53-4.68-6.1-4.59-9.41.09-4,3.69-4.82,6.9-4.1C64.39,102.53,65.15,99.77,63.36,99.37Z"/><path class="cls-4" d="M111.94,159.63c54.24,0,48.81-81.22,48.81-81.22s0-41.19-48.81-41.19S63.13,78.41,63.13,78.41,57.71,159.63,111.94,159.63Z"/><path class="cls-5" d="M111.94,161.06c15.15-.16,28.19-6.95,36.62-19.59,7.66-11.48,11.05-25.47,12.69-39,1.71-14.11,2.61-29.72-4-42.81-7.13-14.2-21.36-21.68-36.76-23.4-17.59-2-37.61,1.56-49.23,16.07-9.67,12.08-10.37,26.82-9.45,41.51,1.89,30.37,14,66.85,50.09,67.22a1.43,1.43,0,0,0,0-2.86c-31.59-.32-43.74-30.56-46.66-57.62-1.34-12.4-2.22-26.2,3-37.89C74.78,48.27,88.69,40.64,104,39c17.31-1.79,37.13,1.82,47.73,16.93,7.85,11.17,8.22,24.16,7.46,37.21-1.68,28.87-12.62,64.67-47.28,65A1.43,1.43,0,0,0,111.94,161.06Z"/><ellipse class="cls-5" cx="132.89" cy="105.88" rx="6.63" ry="5.4"/><ellipse class="cls-5" cx="94.07" cy="105.88" rx="6.63" ry="5.4"/><ellipse class="cls-8" cx="84" cy="119.03" rx="4.03" ry="4.95" transform="translate(-57.81 152.41) rotate(-68.03)"/><ellipse class="cls-8" cx="142.42" cy="119.03" rx="4.95" ry="4.03" transform="translate(-34.19 61.92) rotate(-21.97)"/><g class="cls-9"><path class="cls-10" d="M152.72,127.37s-22.27,25.08-30.78,28.3l-8.51,3.21s17.19.53,25.08-7.89S152.77,131.3,152.72,127.37Z"/><path class="cls-11" d="M113.93,159.09h-.51l-1,0,9.46-3.58c8.36-3.16,30.47-28,30.69-28.25l.35-.39v.52c.05,3.9-6.17,15.13-14.26,23.77C131.56,158.7,116.85,159.09,113.93,159.09Zm38.55-31.16C149.4,131.37,130,152.85,122,155.86l-7.48,2.82c3.91-.06,17.24-.79,23.84-7.83C146,142.67,152,132.19,152.48,127.93Z"/></g><path class="cls-12" d="M104.68,105.13s-.81-10.67-11.67-10-13.47,5.1-15.67,10"/><path class="cls-13" d="M122.2,104.17s.81-10.67,11.67-10,13.47,5.09,15.68,10"/><path class="cls-5" d="M74.74,95c0-.63.28-.59.49-.71l.67-.3,1.33-.58c.89-.38,1.78-.75,2.69-1.1,1.8-.71,3.63-1.35,5.49-1.94a39.38,39.38,0,0,1,11.67-2,12.78,12.78,0,0,1,6.22,1.46,6.82,6.82,0,0,1,1.41,1.07l.59.69.43.6c.55.79,1.11,1.59,1.63,2.42A19.89,19.89,0,0,1,110,100a11.5,11.5,0,0,1,.36,3c0,.49,0,1-.05,1.47s.08,1-.55,1.44c-.62-.48-.49-1-.55-1.43s-.08-1-.14-1.41a10.18,10.18,0,0,0-.64-2.61,19.53,19.53,0,0,0-3-4.57l-1.79-2.21-.45-.55-.37-.37a5.44,5.44,0,0,0-.92-.61,7.4,7.4,0,0,0-2.3-.74A13.84,13.84,0,0,0,97,91.25a35.26,35.26,0,0,0-5.49.37c-1.86.22-3.72.55-5.57.94s-3.71.78-5.56,1.25c-.93.23-1.85.48-2.77.74l-1.38.4-.68.21C75.34,95.21,75.17,95.42,74.74,95Z"/><path class="cls-5" d="M122.83,94.13c-.22-.68.14-.75.32-1l.65-.63c.44-.41.89-.8,1.36-1.18a23.21,23.21,0,0,1,3-2.08,15.59,15.59,0,0,1,7.14-2.15,13.66,13.66,0,0,1,3.82.37A14,14,0,0,1,142.61,89a17.67,17.67,0,0,1,2.9,2.3c.45.4.83.88,1.23,1.31.21.22.38.47.57.7a1.15,1.15,0,0,1,.36.87,1.18,1.18,0,0,1-.85-.39c-.23-.18-.44-.38-.68-.54-.48-.32-.92-.68-1.42-1a15,15,0,0,0-3-1.43,16.26,16.26,0,0,0-6.26-.86,22.65,22.65,0,0,0-6.31,1.39,24.59,24.59,0,0,0-3.09,1.33c-.51.26-1,.54-1.5.83l-.72.46C123.56,94.1,123.47,94.4,122.83,94.13Z"/><path class="cls-5" d="M112.44,131.54c4.81,0,12.7-2,12.7-2s2.12,12-12.7,12.65c-14.81-.64-12.7-12.65-12.7-12.65S107.64,131.54,112.44,131.54Z"/><path class="cls-5" d="M112.44,132.61a62.15,62.15,0,0,0,13-2l-1.32-.75c2.4,14.85-25.73,14.86-23.34,0l-1.32.75a62.25,62.25,0,0,0,13,2,1.07,1.07,0,0,0,0-2.14A59.57,59.57,0,0,1,100,128.54a1.08,1.08,0,0,0-1.31.75c-3,18.32,30.42,18.33,27.47,0a1.1,1.1,0,0,0-1.32-.75,59.37,59.37,0,0,1-12.42,1.93A1.07,1.07,0,0,0,112.44,132.61Z"/><path class="cls-14" d="M104.21,131.59a14.27,14.27,0,0,0,8.27,3,12.44,12.44,0,0,0,7.87-3,42.69,42.69,0,0,1-8,.93A45.66,45.66,0,0,1,104.21,131.59Z"/><path class="cls-15" d="M104.08,137.08a37.1,37.1,0,0,1,16.63,0,.63.63,0,0,1,.22,1.15c-2.7,1.77-9.81,5.33-17.06,0A.64.64,0,0,1,104.08,137.08Z"/><path class="cls-5" d="M69.47,121.3S64.57,77.38,72.91,69A53.44,53.44,0,0,1,117.5,54.4C137.42,57.29,146,63.76,149.55,74s6.76,32.17,5.23,47.32c6-19.17,8.81-34.55,8.84-43.91s-2.89-25.18-22.88-34.85c-18.58-9-35.75-10.73-58.56,0C56.56,54.58,56.85,100.16,69.47,121.3Z"/><path class="cls-5" d="M124,127.53l-11.28-1h-.48l-11.9,1a1.88,1.88,0,0,1-1.88-1.87h0a1.87,1.87,0,0,1,1.88-1.87l12-1h.26l11.39,1a1.87,1.87,0,0,1,1.87,1.87h0A1.87,1.87,0,0,1,124,127.53Z"/><g class="cls-16"><line class="cls-5" x1="74.15" y1="98.94" x2="63.54" y2="98.95"/><path class="cls-5" d="M74.15,97.44H63.54a1.5,1.5,0,0,0,0,3H74.15a1.51,1.51,0,0,0,0-3Z"/><path class="cls-14" d="M74.15,98.94s19.48-4.11,32.72,0l-2,15s-3.89,6.47-30.76,2.18Z"/><path class="cls-5" d="M74.55,100.39c10.26-2.12,21.77-2.9,31.92,0L105.37,99c-.63,4.78-1.14,9.6-1.88,14.37-.19,1.22.8-.3-.23.18-8.84,4.17-19.32,2.63-28.71,1.19l1.1,1.44V98.94a1.5,1.5,0,0,0-3,0v17.19a1.51,1.51,0,0,0,1.1,1.45c7.55,1.16,15.37,2.16,23,1.12,2.7-.37,6-.94,8.19-2.73a3.76,3.76,0,0,0,1.49-2.13c1.46-4.5,1.34-10.26,1.94-14.89a1.51,1.51,0,0,0-1.1-1.45c-10.7-3.07-22.71-2.25-33.52,0C71.86,97.89,72.66,100.78,74.55,100.39Z"/><path class="cls-14" d="M151.13,98.26s-19.48-4.12-32.72,0l2,15s3.89,6.47,30.76,2.19Z"/><path class="cls-5" d="M151.53,96.81c-10.81-2.24-22.82-3.06-33.52,0a1.52,1.52,0,0,0-1.1,1.45c.6,4.6.45,10.4,1.94,14.85a3.77,3.77,0,0,0,1.49,2.17c2.14,1.75,5.35,2.33,8,2.7,7.69,1.09,15.59.08,23.2-1.09a1.49,1.49,0,0,0,1.1-1.44V98.26a1.5,1.5,0,0,0-3,0v17.19l1.1-1.45c-9.38,1.44-19.87,3-28.71-1.19-1-.48,0,1-.23-.18-.74-4.77-1.25-9.59-1.87-14.37l-1.11,1.45c10.15-2.91,21.66-2.13,31.92,0C152.62,100.09,153.42,97.2,151.53,96.81Z"/><path class="cls-5" d="M106.87,100.45h11.54a1.5,1.5,0,0,0,0-3H106.87a1.5,1.5,0,0,0,0,3Z"/><path class="cls-5" d="M151.13,99.76h9.56a1.51,1.51,0,0,0,0-3h-9.56a1.51,1.51,0,0,0,0,3Z"/></g><path class="cls-5" d="M73.86,97.52H63.17a1.43,1.43,0,0,0,0,2.86H73.86a1.43,1.43,0,0,0,0-2.85Z"/><path class="cls-5" d="M74.24,100.32c10.36-2.13,22-2.91,32.22,0l-1-1.38c-.63,4.78-1.1,9.61-1.89,14.37-.2,1.2.78-.26-.26.24-8.84,4.28-19.64,2.63-29,1.2l1.05,1.38V99a1.43,1.43,0,0,0-2.86,0v17.19a1.43,1.43,0,0,0,1,1.37c7.61,1.16,15.48,2.16,23.16,1.12,2.7-.37,6-.93,8.22-2.72a3.73,3.73,0,0,0,1.45-2.07c1.5-4.46,1.35-10.29,2-14.89a1.43,1.43,0,0,0-1-1.38c-10.78-3.07-22.85-2.24-33.74,0C71.68,97.94,72.44,100.69,74.24,100.32Z"/><path class="cls-5" d="M151.83,96.88c-10.88-2.24-23-3.07-33.73,0a1.45,1.45,0,0,0-1,1.38c.6,4.57.43,10.43,2,14.85a3.75,3.75,0,0,0,1.46,2.11c2.15,1.75,5.38,2.32,8,2.69,7.73,1.09,15.68.08,23.34-1.09a1.43,1.43,0,0,0,1-1.37V98.26a1.43,1.43,0,0,0-2.85,0v17.19l1-1.38c-9.37,1.43-20.18,3.08-29-1.2-1-.5-.06,1-.27-.24-.79-4.75-1.26-9.59-1.88-14.37l-1,1.38c10.24-2.92,21.85-2.14,32.21,0C152.87,100,153.64,97.25,151.83,96.88Z"/><path class="cls-5" d="M106.84,100.38h11.64a1.43,1.43,0,0,0,0-2.86H106.84a1.43,1.43,0,0,0,0,2.86Z"/><path class="cls-5" d="M151.45,99.68h9.64a1.43,1.43,0,0,0,0-2.85h-9.64a1.43,1.43,0,0,0,0,2.85Z"/></g><path class="cls-5" d="M74.4,85.85,67,93.55A2.17,2.17,0,0,1,63.24,92c.31-10.33,1.87-31.85,9.32-35.71,5.08-2.62,8.53-2.55,10.69-1.86A2.18,2.18,0,0,1,84.13,58C81.28,61,76.3,68.31,75,84.51A2.18,2.18,0,0,1,74.4,85.85Z"/><path class="cls-5" d="M72.31,88s-5.6,9.06-2.84,33.25C66.77,112.79,58.78,89.14,72.31,88Z"/><path class="cls-5" d="M150.41,89.29l7.42,7.7a2.17,2.17,0,0,0,3.74-1.57c-.31-10.33-1.87-31.85-9.32-35.7-5.07-2.63-8.53-2.55-10.69-1.86a2.17,2.17,0,0,0-.88,3.57c2.86,2.95,7.83,10.31,9.13,26.51A2.23,2.23,0,0,0,150.41,89.29Z"/><path class="cls-5" d="M152.51,91.46s5.59,9.07,2.84,33.26C158,116.23,166,92.57,152.51,91.46Z"/><path class="cls-5" d="M126.12,152.94c-3.23-2.89-13.69-3.75-13.69-3.75s-10.46.86-13.69,3.75-2.41,4.21,2,6.3a27.89,27.89,0,0,0,23.3,0C128.53,157.15,129.36,155.83,126.12,152.94Z"/></svg>