<svg id="Calque_1" data-name="Calque 1" xmlns="http://www.w3.org/2000/svg" viewBox="0 0 841.89 595.28"><defs><style>.cls-1,.cls-3{fill:#26b0bd;}.cls-1{opacity:0.2;}.cls-2,.cls-6{fill:#f5f4f2;}.cls-4{fill:#19a3ae;}.cls-5{fill:#1b2439;}.cls-6{stroke:#1b2439;stroke-width:3px;}.cls-7{fill:#e7334d;}.cls-8{font-size:18px;fill:#1d1d1b;font-family:Raleway-Regular, Raleway;}.cls-9{letter-spacing:-0.03em;}.cls-10{letter-spacing:-0.01em;}.cls-11{letter-spacing:0em;}.cls-12{letter-spacing:0em;}.cls-13{letter-spacing:-0.02em;}.cls-14{letter-spacing:-0.02em;}.cls-15{letter-spacing:-0.02em;}.cls-16{letter-spacing:0em;}.cls-17{letter-spacing:-0.09em;}.cls-18{letter-spacing:-0.01em;}.cls-19{letter-spacing:-0.02em;}.cls-20{letter-spacing:-0.01em;}.cls-21{letter-spacing:-0.01em;}.cls-22{letter-spacing:-0.01em;}.cls-23{letter-spacing:-0.01em;}.cls-24{letter-spacing:-0.08em;}.cls-25{letter-spacing:-0.03em;}</style></defs><title>image-fonctionnement</title><circle class="cls-1" cx="129.22" cy="133.26" r="93.45"/><circle class="cls-2" cx="67.6" cy="99.06" r="31.98"/><path class="cls-3" d="M67.6,133.26a34.21,34.21,0,1,1,34.21-34.2A34.24,34.24,0,0,1,67.6,133.26Zm0-63.95A29.75,29.75,0,1,0,97.35,99.06,29.78,29.78,0,0,0,67.6,69.31Z"/><path class="cls-4" d="M78.91,107.87v5.3H58.49v-5.3h7.59V89.22a6.17,6.17,0,0,1-1.5,1.34,16.42,16.42,0,0,1-2.24,1.28,18.46,18.46,0,0,1-2.57,1,8.19,8.19,0,0,1-2.35.4v-5.5a6.31,6.31,0,0,0,2.49-.64,20.59,20.59,0,0,0,2.72-1.5,20.84,20.84,0,0,0,2.3-1.71,4.82,4.82,0,0,0,1.15-1.23h6v25.22Z"/><rect class="cls-2" x="121.09" y="66.35" width="110.92" height="163.24"/><path class="cls-5" d="M233.51,231.09H119.59V64.85H233.51Zm-110.92-3H230.51V67.85H122.59Z"/><path class="cls-5" d="M137.21,103.75q-.09,0-.09-.12l0-16.49c0-.06,0-.09.1-.09h4.61a4.61,4.61,0,0,1,2.45.66,4.88,4.88,0,0,1,1.7,1.74,4.56,4.56,0,0,1,.62,2.35,4.06,4.06,0,0,1-.46,1.92,5,5,0,0,1-1.12,1.44,5.06,5.06,0,0,1,1.08,1.61,4.84,4.84,0,0,1,.38,1.92,4.92,4.92,0,0,1-.67,2.54,5.15,5.15,0,0,1-1.81,1.84,4.87,4.87,0,0,1-2.53.68Zm2.81-2.93h1.49a2,2,0,0,0,1.49-.63,2.09,2.09,0,0,0,.62-1.5A2.06,2.06,0,0,0,143,97.2a2,2,0,0,0-1.49-.62H140Zm0-7.15h1.83a1.68,1.68,0,0,0,1.35-.59,1.86,1.86,0,0,0,.52-1.28,1.82,1.82,0,0,0-.55-1.33,1.78,1.78,0,0,0-1.32-.57H140Z"/><path class="cls-5" d="M148.35,103.75c-.07,0-.1,0-.1-.12l.05-16.49c0-.06,0-.09.1-.09h4.84a4.69,4.69,0,0,1,2.39.63,4.92,4.92,0,0,1,1.74,1.71A4.55,4.55,0,0,1,158,91.8a4.75,4.75,0,0,1-.26,1.6,5.19,5.19,0,0,1-.63,1.2,4.12,4.12,0,0,1-.65.73,4.87,4.87,0,0,1,1.3,3.38l0,4.92a.11.11,0,0,1-.12.12H155c-.06,0-.09,0-.09-.07v-5a2.11,2.11,0,0,0-.62-1.5,2,2,0,0,0-1.5-.63h-1.58l0,7c0,.08,0,.12-.1.12Zm2.83-10h2.06a1.84,1.84,0,0,0,1.32-.56,1.75,1.75,0,0,0,.58-1.34,1.81,1.81,0,0,0-.56-1.32,1.84,1.84,0,0,0-1.34-.55h-2.06Z"/><path class="cls-5" d="M159.92,103.75c-.07,0-.1,0-.1-.12l0-16.49c0-.06,0-.09.1-.09h7.7c.07,0,.1,0,.1.12v2.69c0,.06,0,.09-.1.09h-4.92V93.7h4.92c.07,0,.1,0,.1.09l0,2.71c0,.07,0,.1-.09.1h-4.95v4.2h4.95q.09,0,.09.12v2.74a.08.08,0,0,1-.09.09Z"/><path class="cls-5" d="M168.84,103.63l3-16.49a.12.12,0,0,1,.12-.09h3.48a.12.12,0,0,1,.12.09l2.86,16.49c0,.08,0,.12-.1.12h-2.66q-.1,0-.12-.12l-.27-1.75H172l-.27,1.75q0,.12-.12.12h-2.66C168.88,103.75,168.84,103.71,168.84,103.63Zm3.63-4.32h2.3l-1-6.74-.15-.89-.09.89Z"/><path class="cls-5" d="M180,103.75q-.09,0-.09-.12L180,87.17q0-.12.09-.12h2.69c.06,0,.1,0,.1.12v5.69l3.76-5.72a.22.22,0,0,1,.17-.09h2.76c.07,0,.08,0,.05.09l-4.15,6.63,4.65,9.89q.06.09-.12.09H187a.14.14,0,0,1-.15-.09l-3.24-7.06-.84,1.32v5.71q0,.12-.09.12Z"/><path class="cls-5" d="M191,103.75a.11.11,0,0,1-.12-.12l0-16.49a.08.08,0,0,1,.09-.09h2.69c.07,0,.1,0,.1.09l0,16.49q0,.12-.09.12Z"/><path class="cls-5" d="M196.18,103.75c-.13,0-.19,0-.19-.17l0-16.34a.17.17,0,0,1,.19-.19h2.17l4.05,9.45-.12-9.26c0-.13.07-.19.22-.19h2.37c.1,0,.15.06.15.19l0,16.37c0,.09,0,.14-.12.14h-2.11l-4.15-8.83.17,8.64c0,.13-.08.19-.22.19Z"/><path class="cls-5" d="M211.49,104a4.33,4.33,0,0,1-2.35-.65,4.78,4.78,0,0,1-1.69-1.74,4.67,4.67,0,0,1-.64-2.43V91.56a4.63,4.63,0,0,1,.64-2.39,4.81,4.81,0,0,1,1.7-1.74,4.44,4.44,0,0,1,2.34-.65,4.62,4.62,0,0,1,2.39.64,4.72,4.72,0,0,1,2.31,4.14v1.1c0,.07,0,.1-.12.1h-2.68c-.07,0-.1,0-.1-.1v-.91a2.26,2.26,0,0,0-.51-1.51,1.65,1.65,0,0,0-2.53,0,1.89,1.89,0,0,0-.54,1.34v7.61a1.9,1.9,0,0,0,.53,1.35,1.65,1.65,0,0,0,1.25.57,1.74,1.74,0,0,0,1.29-.55,2,2,0,0,0,.51-1.37V98h-1.68a.11.11,0,0,1-.12-.12V95.18a.11.11,0,0,1,.12-.12h4.49c.06,0,.09,0,.09.12v4a4.76,4.76,0,0,1-.63,2.43,5,5,0,0,1-1.69,1.74A4.41,4.41,0,0,1,211.49,104Z"/><path class="cls-5" d="M154.49,132.55c-.13,0-.19-.05-.19-.17l0-16.34a.17.17,0,0,1,.19-.19h2.16l4.05,9.45-.12-9.26c0-.13.08-.19.22-.19h2.38c.09,0,.14.06.14.19l0,16.37c0,.09,0,.14-.12.14h-2.11l-4.15-8.83.17,8.64c0,.13-.07.19-.22.19Z"/><path class="cls-5" d="M165.51,132.55c-.07,0-.1,0-.1-.12l0-16.49a.08.08,0,0,1,.09-.09h7.71q.09,0,.09.12v2.69a.08.08,0,0,1-.09.09h-4.92v3.75h4.92a.08.08,0,0,1,.09.09l0,2.71a.09.09,0,0,1-.1.1h-4.94v4.2h4.94c.06,0,.1,0,.1.12v2.74c0,.06,0,.09-.1.09Z"/><path class="cls-5" d="M177.7,132.55q-.09,0-.12-.12l-2.83-16.49c0-.06,0-.09.07-.09h2.69a.12.12,0,0,1,.12.09l1.53,10.85,1.59-10.85c0-.06.06-.09.14-.09h2.16a.1.1,0,0,1,.12.09l1.56,10.85,1.56-10.85a.12.12,0,0,1,.12-.09h2.67q.12,0,.09.09l-2.85,16.49a.66.66,0,0,1-.12.12h-2.91s-.09,0-.12-.12L182,123.82l-1.23,8.61q0,.12-.12.12Z"/><path class="cls-5" d="M194.36,132.79a4.41,4.41,0,0,1-2.37-.66,4.92,4.92,0,0,1-1.7-1.75,4.65,4.65,0,0,1-.64-2.41v-1.11a.11.11,0,0,1,.12-.12h2.69c.06,0,.1,0,.1.12V128a1.89,1.89,0,0,0,.52,1.35,1.69,1.69,0,0,0,1.28.57,1.65,1.65,0,0,0,1.27-.58,1.92,1.92,0,0,0,.53-1.34,1.85,1.85,0,0,0-1.16-1.54l-1.2-.67-1.53-.86a5.14,5.14,0,0,1-2-1.94,5.4,5.4,0,0,1-.63-2.62,4.61,4.61,0,0,1,.64-2.42,5,5,0,0,1,1.72-1.69,4.66,4.66,0,0,1,4.66,0,4.88,4.88,0,0,1,1.7,1.71,4.62,4.62,0,0,1,.64,2.39v2a.09.09,0,0,1-.1.1h-2.69c-.06,0-.09,0-.09-.1l0-2a1.82,1.82,0,0,0-.53-1.37,1.7,1.7,0,0,0-1.24-.53,1.72,1.72,0,0,0-1.28.56,1.9,1.9,0,0,0-.52,1.34,2.49,2.49,0,0,0,.33,1.32,3.26,3.26,0,0,0,1.23,1c.08,0,.23.14.46.26l.76.4c.27.16.52.29.73.4a3.07,3.07,0,0,1,.4.22,5.54,5.54,0,0,1,1.89,1.64,4,4,0,0,1,.7,2.39,4.81,4.81,0,0,1-2.34,4.19A4.56,4.56,0,0,1,194.36,132.79Z"/><circle class="cls-1" cx="437.23" cy="131.29" r="93.45"/><circle class="cls-2" cx="366.53" cy="99.06" r="31.98"/><path class="cls-3" d="M366.53,133.26a34.21,34.21,0,1,1,34.21-34.2A34.24,34.24,0,0,1,366.53,133.26Zm0-63.95a29.75,29.75,0,1,0,29.75,29.75A29.78,29.78,0,0,0,366.53,69.31Z"/><path class="cls-4" d="M354,113.16a22.59,22.59,0,0,1,.37-4.16,11.71,11.71,0,0,1,1.34-3.61,13.45,13.45,0,0,1,2.62-3.21,22.14,22.14,0,0,1,4.27-3c1.25-.68,2.43-1.3,3.53-1.87A28.54,28.54,0,0,0,369,95.66a8.62,8.62,0,0,0,2-1.76,3.37,3.37,0,0,0,.75-2.17,4.1,4.1,0,0,0-1.47-3.07,6,6,0,0,0-4.25-1.36,8.28,8.28,0,0,0-2.65.4,10.49,10.49,0,0,0-2.19,1,9.21,9.21,0,0,0-1.73,1.36c-.5.5-.95,1-1.34,1.44l-3.74-4.33a12.9,12.9,0,0,1,1.68-1.47A16.21,16.21,0,0,1,358.89,84a20.08,20.08,0,0,1,3.71-1.36,17.23,17.23,0,0,1,4.55-.57,15.06,15.06,0,0,1,4.62.67,10.34,10.34,0,0,1,3.47,1.85,7.85,7.85,0,0,1,2.17,2.8,8.3,8.3,0,0,1,.75,3.5,7.5,7.5,0,0,1-.81,3.53,10.83,10.83,0,0,1-2,2.72,12.94,12.94,0,0,1-2.57,2c-.93.55-1.78,1-2.56,1.42s-1.6.77-2.54,1.25a21.6,21.6,0,0,0-2.75,1.66,17.78,17.78,0,0,0-2.41,2,6.18,6.18,0,0,0-1.5,2.35h17.69v5.29Z"/><rect class="cls-6" x="420.02" y="64.85" width="110.92" height="163.24"/><path class="cls-5" d="M429.38,102.25q-.09,0-.09-.12l0-16.49c0-.06,0-.09.1-.09h7.7c.06,0,.1,0,.1.12v2.69c0,.06,0,.09-.1.09h-4.92V92.2h4.92c.06,0,.1,0,.1.09l0,2.71c0,.07,0,.1-.1.1h-4.94v4.2h4.94c.07,0,.1,0,.1.12v2.74c0,.06,0,.09-.1.09Z"/><path class="cls-5" d="M442.05,102.25q-.09,0-.12-.12l-3.31-16.49c0-.06,0-.09.1-.09h2.71a.12.12,0,0,1,.12.09l2,11,1.92-11a.1.1,0,0,1,.12-.09h2.69q.12,0,.09.09l-3.26,16.49q0,.12-.12.12Z"/><path class="cls-5" d="M449.85,102.25q-.09,0-.09-.12l0-16.49c0-.06,0-.09.1-.09h7.7c.07,0,.1,0,.1.12v2.69c0,.06,0,.09-.1.09h-4.92V92.2h4.92c.07,0,.1,0,.1.09l0,2.71c0,.07,0,.1-.09.1h-4.95v4.2h4.95q.09,0,.09.12v2.74a.08.08,0,0,1-.09.09Z"/><path class="cls-5" d="M460.05,102.25c-.12,0-.19,0-.19-.17l0-16.34a.17.17,0,0,1,.19-.19h2.16L466.25,95l-.12-9.26c0-.13.07-.19.21-.19h2.38c.09,0,.14.06.14.19l0,16.37c0,.09,0,.14-.12.14h-2.12l-4.15-8.83.17,8.64c0,.13-.07.19-.22.19Z"/><path class="cls-5" d="M474.62,102.25q-.09,0-.09-.12l0-16.49c0-.06,0-.09.1-.09h2.93a.22.22,0,0,1,.17.09L480,88.81l2.18-3.17a.22.22,0,0,1,.17-.09h2.95c.07,0,.1,0,.1.09l0,16.49c0,.08,0,.12-.1.12h-2.71c-.06,0-.1,0-.1-.12l0-12.24L480,93.54l-2.5-3.65,0,12.24c0,.08,0,.12-.1.12Z"/><path class="cls-5" d="M491.85,102.49a4.4,4.4,0,0,1-2.36-.66,5.06,5.06,0,0,1-1.72-1.75,4.66,4.66,0,0,1-.65-2.41l0-7.61a4.68,4.68,0,0,1,.63-2.4,5,5,0,0,1,1.72-1.73,4.49,4.49,0,0,1,2.35-.64,4.39,4.39,0,0,1,2.35.64,5,5,0,0,1,1.7,1.73,4.68,4.68,0,0,1,.63,2.4l0,7.61a4.75,4.75,0,0,1-.64,2.41,4.92,4.92,0,0,1-1.7,1.75A4.43,4.43,0,0,1,491.85,102.49Zm0-2.9a1.67,1.67,0,0,0,1.26-.59,1.92,1.92,0,0,0,.54-1.33l0-7.61a1.88,1.88,0,0,0-.51-1.34,1.64,1.64,0,0,0-1.27-.56,1.72,1.72,0,0,0-1.27.54,1.89,1.89,0,0,0-.53,1.36v7.61a1.94,1.94,0,0,0,.53,1.36A1.7,1.7,0,0,0,491.85,99.59Z"/><path class="cls-5" d="M498.48,102.25c-.07,0-.1,0-.1-.12l.05-16.49a.08.08,0,0,1,.09-.09h4.85a4.69,4.69,0,0,1,2.39.63,4.92,4.92,0,0,1,1.74,1.71,4.58,4.58,0,0,1,.65,2.41,4.51,4.51,0,0,1-.27,1.6,4.82,4.82,0,0,1-.62,1.2,4.56,4.56,0,0,1-.65.73,4.87,4.87,0,0,1,1.3,3.38l0,4.92a.11.11,0,0,1-.12.12H505.1c-.06,0-.1,0-.1-.07v-5a2.1,2.1,0,0,0-.61-1.5,2,2,0,0,0-1.5-.63h-1.58l0,7q0,.12-.09.12Zm2.83-10h2.06a1.84,1.84,0,0,0,1.32-.56,1.75,1.75,0,0,0,.58-1.34A1.78,1.78,0,0,0,504.7,89a1.82,1.82,0,0,0-1.33-.55h-2.06Z"/><path class="cls-5" d="M510,102.25q-.09,0-.09-.12l0-16.49c0-.06,0-.09.1-.09h7.7c.07,0,.1,0,.1.12v2.69c0,.06,0,.09-.1.09h-4.92V92.2h4.92c.07,0,.1,0,.1.09l0,2.71c0,.07,0,.1-.09.1h-4.95v4.2h4.95q.09,0,.09.12v2.74a.08.08,0,0,1-.09.09Z"/><path class="cls-5" d="M439.67,131.29a4.41,4.41,0,0,1-2.37-.66,4.92,4.92,0,0,1-1.7-1.75,4.65,4.65,0,0,1-.64-2.41v-1.11a.11.11,0,0,1,.12-.12h2.69c.06,0,.1.05.1.12v1.11a1.93,1.93,0,0,0,.52,1.36,1.72,1.72,0,0,0,1.28.56,1.65,1.65,0,0,0,1.27-.58,1.92,1.92,0,0,0,.53-1.34,1.85,1.85,0,0,0-1.16-1.54l-1.2-.67-1.53-.86a5.14,5.14,0,0,1-2-1.94,5.4,5.4,0,0,1-.63-2.62,4.61,4.61,0,0,1,.64-2.42,5,5,0,0,1,1.72-1.69,4.66,4.66,0,0,1,4.66,0,4.88,4.88,0,0,1,1.7,1.71,4.62,4.62,0,0,1,.64,2.39v2a.09.09,0,0,1-.1.1h-2.69c-.06,0-.09,0-.09-.1l0-2a1.82,1.82,0,0,0-.53-1.37,1.7,1.7,0,0,0-1.24-.53,1.72,1.72,0,0,0-1.28.56,1.91,1.91,0,0,0-.52,1.34,2.49,2.49,0,0,0,.33,1.32,3.26,3.26,0,0,0,1.23,1l.46.26c.24.12.49.25.76.41l.73.39c.22.11.35.19.4.22a5.54,5.54,0,0,1,1.89,1.64,4,4,0,0,1,.7,2.39,4.81,4.81,0,0,1-2.34,4.19A4.56,4.56,0,0,1,439.67,131.29Z"/><path class="cls-5" d="M446.15,131.05c-.07,0-.1,0-.1-.12l0-16.49q0-.09.12-.09h2.67q.12,0,.12.09l0,6.53h3.6v-6.53c0-.06,0-.09.1-.09h2.66q.12,0,.12.09l.05,16.49a.11.11,0,0,1-.12.12h-2.69a.11.11,0,0,1-.12-.12v-7.05H449v7.05q0,.12-.09.12Z"/><path class="cls-5" d="M461.89,131.29a4.4,4.4,0,0,1-2.36-.66,5,5,0,0,1-1.72-1.75,4.66,4.66,0,0,1-.65-2.41l0-7.61a4.68,4.68,0,0,1,.63-2.4,4.91,4.91,0,0,1,1.72-1.73,4.5,4.5,0,0,1,2.35-.65,4.42,4.42,0,0,1,2.35.65,4.83,4.83,0,0,1,1.69,1.73,4.59,4.59,0,0,1,.64,2.4l0,7.61a4.74,4.74,0,0,1-.63,2.41,4.94,4.94,0,0,1-1.71,1.75A4.4,4.4,0,0,1,461.89,131.29Zm0-2.9a1.67,1.67,0,0,0,1.26-.59,1.92,1.92,0,0,0,.54-1.33l0-7.61a1.88,1.88,0,0,0-.51-1.34,1.64,1.64,0,0,0-1.27-.56,1.7,1.7,0,0,0-1.27.54,1.89,1.89,0,0,0-.53,1.36v7.61a1.94,1.94,0,0,0,.53,1.36A1.68,1.68,0,0,0,461.89,128.39Z"/><path class="cls-5" d="M472.83,131.29a4.42,4.42,0,0,1-2.38-.66,4.86,4.86,0,0,1-1.7-1.76,5,5,0,0,1-.62-2.47l0-7.49a4.8,4.8,0,0,1,.62-2.41,4.65,4.65,0,0,1,1.68-1.76,4.42,4.42,0,0,1,2.38-.66,4.47,4.47,0,0,1,2.38.65,4.83,4.83,0,0,1,1.68,1.74,4.89,4.89,0,0,1,.62,2.44V120c0,.07,0,.1-.09.1h-2.69a.09.09,0,0,1-.1-.1v-1.1a2,2,0,0,0-.51-1.37,1.7,1.7,0,0,0-1.29-.58,1.59,1.59,0,0,0-1.32.59,2.2,2.2,0,0,0-.45,1.36v7.49a2,2,0,0,0,.51,1.44,1.7,1.7,0,0,0,1.26.55,1.66,1.66,0,0,0,1.29-.61,2.11,2.11,0,0,0,.51-1.38v-1.11c0-.06,0-.09.1-.09h2.71c.07,0,.1,0,.1.09v1.11a4.91,4.91,0,0,1-.64,2.47,5,5,0,0,1-1.69,1.76A4.39,4.39,0,0,1,472.83,131.29Z"/><path class="cls-5" d="M479.38,131.05q-.09,0-.09-.12l0-16.46q0-.12.09-.12h2.69c.06,0,.1,0,.1.12v5.69l3.76-5.72a.22.22,0,0,1,.17-.09h2.76c.07,0,.08,0,0,.09l-4.15,6.63,4.66,9.89c0,.06,0,.09-.13.09h-2.92a.14.14,0,0,1-.15-.09L483,123.9l-.84,1.32v5.71q0,.12-.09.12Z"/><path class="cls-5" d="M490.43,131.05c-.09,0-.13,0-.13-.12l0-16.49c0-.06,0-.09.1-.09h2.68c.07,0,.1,0,.1.09l0,16.49q0,.12-.09.12Z"/><path class="cls-5" d="M495.56,131.05c-.13,0-.19-.05-.19-.17l0-16.34c0-.13.07-.19.2-.19h2.16l4.05,9.45-.12-9.26c0-.13.07-.19.22-.19h2.37c.1,0,.15.06.15.19l0,16.37c0,.09,0,.14-.12.14h-2.11L498,122.22l.17,8.64c0,.13-.07.19-.22.19Z"/><path class="cls-5" d="M510.87,131.29a4.33,4.33,0,0,1-2.35-.65,4.86,4.86,0,0,1-1.69-1.74,4.64,4.64,0,0,1-.64-2.43v-7.61a4.63,4.63,0,0,1,.64-2.39,4.81,4.81,0,0,1,1.7-1.74,4.44,4.44,0,0,1,2.34-.65,4.64,4.64,0,0,1,4.08,2.36,4.7,4.7,0,0,1,.63,2.42V120c0,.07,0,.1-.12.1h-2.69c-.07,0-.1,0-.1-.1v-.91a2.26,2.26,0,0,0-.51-1.51,1.65,1.65,0,0,0-1.29-.6,1.63,1.63,0,0,0-1.23.58,1.89,1.89,0,0,0-.54,1.34v7.61a1.93,1.93,0,0,0,.52,1.36,1.69,1.69,0,0,0,1.25.56,1.74,1.74,0,0,0,1.29-.55,2,2,0,0,0,.51-1.37v-1.18H511a.11.11,0,0,1-.12-.12v-2.69a.11.11,0,0,1,.12-.12h4.49c.06,0,.1,0,.1.12v4a4.74,4.74,0,0,1-.64,2.43,4.86,4.86,0,0,1-1.69,1.74A4.41,4.41,0,0,1,510.87,131.29Z"/><path class="cls-5" d="M436.14,159.85c-.07,0-.1,0-.1-.12l0-16.49c0-.06,0-.09.1-.09h4.6a4.59,4.59,0,0,1,2.45.66,4.91,4.91,0,0,1,1.71,1.74,4.66,4.66,0,0,1,.62,2.35,4.07,4.07,0,0,1-.47,1.92,4.84,4.84,0,0,1-1.11,1.44,5,5,0,0,1,1.46,3.53,4.92,4.92,0,0,1-.67,2.54,5.15,5.15,0,0,1-1.81,1.84,4.9,4.9,0,0,1-2.54.68Zm2.81-2.93h1.48a2,2,0,0,0,1.49-.63,2.06,2.06,0,0,0,.63-1.5,2,2,0,0,0-.63-1.49,2,2,0,0,0-1.49-.62H439Zm0-7.15h1.82a1.7,1.7,0,0,0,1.36-.59,1.91,1.91,0,0,0,.52-1.28,1.83,1.83,0,0,0-.56-1.33,1.75,1.75,0,0,0-1.32-.57H439Z"/><path class="cls-5" d="M447.27,159.85q-.09,0-.09-.12l.05-16.49a.08.08,0,0,1,.09-.09h4.85a4.72,4.72,0,0,1,2.39.63,4.92,4.92,0,0,1,1.74,1.71,4.82,4.82,0,0,1,.38,4,4.82,4.82,0,0,1-.62,1.2,4.56,4.56,0,0,1-.65.73,4.92,4.92,0,0,1,1.3,3.38l0,4.92a.11.11,0,0,1-.12.12H453.9c-.07,0-.1,0-.1-.07v-5a2.1,2.1,0,0,0-.61-1.5,2,2,0,0,0-1.5-.63h-1.58l0,7q0,.12-.09.12Zm2.84-10h2.06a1.84,1.84,0,0,0,1.32-.56,1.83,1.83,0,0,0,0-2.66,1.82,1.82,0,0,0-1.33-.55h-2.06Z"/><path class="cls-5" d="M458.84,159.85q-.09,0-.09-.12l0-16.49c0-.06,0-.09.1-.09h7.7c.06,0,.1,0,.1.12V146c0,.06,0,.09-.1.09h-4.92v3.75h4.92c.06,0,.1,0,.1.09l0,2.71c0,.07,0,.1-.1.1h-4.94v4.2h4.94c.07,0,.1,0,.1.12v2.74c0,.06,0,.09-.1.09Z"/><path class="cls-5" d="M467.77,159.73l3-16.49a.1.1,0,0,1,.12-.09h3.48a.12.12,0,0,1,.12.09l2.85,16.49q0,.12-.09.12h-2.67q-.09,0-.12-.12l-.26-1.75h-3.27l-.26,1.75q0,.12-.12.12h-2.66C467.8,159.85,467.77,159.81,467.77,159.73Zm3.62-4.32h2.31l-1-6.74-.14-.89-.1.89Z"/><path class="cls-5" d="M478.93,159.85c-.07,0-.1,0-.1-.12l.05-16.46c0-.08,0-.12.1-.12h2.69q.09,0,.09.12V149l3.77-5.72a.21.21,0,0,1,.17-.09h2.76c.06,0,.08,0,.05.09l-4.16,6.63,4.66,9.89q0,.09-.12.09H486c-.08,0-.13,0-.14-.09l-3.24-7.06-.84,1.32v5.71c0,.08,0,.12-.1.12Z"/><path class="cls-5" d="M490,159.85a.11.11,0,0,1-.12-.12l0-16.49c0-.06,0-.09.1-.09h2.69a.08.08,0,0,1,.09.09l0,16.49c0,.08,0,.12-.1.12Z"/><path class="cls-5" d="M495.1,159.85c-.12,0-.19,0-.19-.17l0-16.34a.17.17,0,0,1,.19-.19h2.16l4.06,9.45-.12-9.26c0-.13.07-.19.21-.19h2.38c.09,0,.14.06.14.19l0,16.37c0,.09,0,.14-.12.14H501.7L497.55,151l.17,8.64c0,.13-.07.19-.21.19Z"/><path class="cls-5" d="M510.42,160.09a4.37,4.37,0,0,1-2.36-.65,5,5,0,0,1-1.69-1.74,4.76,4.76,0,0,1-.63-2.43v-7.61a4.72,4.72,0,0,1,.63-2.39,4.83,4.83,0,0,1,1.71-1.74,4.44,4.44,0,0,1,2.34-.65,4.58,4.58,0,0,1,2.38.64,4.67,4.67,0,0,1,1.7,1.72,4.79,4.79,0,0,1,.62,2.42v1.1c0,.07,0,.1-.12.1h-2.69c-.06,0-.09,0-.09-.1v-.91a2.25,2.25,0,0,0-.52-1.51,1.62,1.62,0,0,0-1.28-.6,1.64,1.64,0,0,0-1.24.58,1.89,1.89,0,0,0-.54,1.34v7.61a1.9,1.9,0,0,0,.53,1.35,1.65,1.65,0,0,0,1.25.57,1.7,1.7,0,0,0,1.28-.55,2,2,0,0,0,.52-1.37v-1.18h-1.68a.11.11,0,0,1-.12-.12v-2.69a.11.11,0,0,1,.12-.12H515c.07,0,.1,0,.1.12v4a4.67,4.67,0,0,1-.64,2.43,4.78,4.78,0,0,1-1.69,1.74A4.35,4.35,0,0,1,510.42,160.09Z"/><path class="cls-5" d="M436.37,188.65c-.13,0-.2-.05-.2-.16l0-16.35a.17.17,0,0,1,.19-.19h2.16l4.06,9.46-.12-9.27c0-.13.07-.19.21-.19H445c.1,0,.14.06.14.19l0,16.37c0,.1,0,.14-.12.14H443l-4.16-8.83.17,8.64c0,.13-.07.19-.21.19Z"/><path class="cls-5" d="M447.38,188.65q-.09,0-.09-.12l0-16.49c0-.06,0-.09.1-.09h7.7c.06,0,.1,0,.1.12v2.69c0,.06,0,.09-.1.09h-4.92v3.75h4.92c.06,0,.1,0,.1.09l0,2.72c0,.06,0,.09-.1.09h-4.94v4.2h4.94c.07,0,.1,0,.1.12v2.74c0,.06,0,.09-.1.09Z"/><path class="cls-5" d="M459.57,188.65q-.09,0-.12-.12L456.62,172c0-.06,0-.09.07-.09h2.69a.1.1,0,0,1,.12.09L461,182.89,462.62,172a.14.14,0,0,1,.15-.09h2.16a.12.12,0,0,1,.12.09l1.56,10.85L468.17,172a.1.1,0,0,1,.12-.09H471c.08,0,.11,0,.1.09l-2.86,16.49a.34.34,0,0,1-.12.12h-2.9q-.07,0-.12-.12l-1.23-8.61-1.22,8.61q0,.12-.12.12Z"/><path class="cls-5" d="M476.23,188.89a4.4,4.4,0,0,1-2.36-.66,4.94,4.94,0,0,1-1.71-1.75,4.74,4.74,0,0,1-.63-2.41V183c0-.07,0-.11.12-.11h2.68c.07,0,.1,0,.1.11v1.11a1.94,1.94,0,0,0,.53,1.36,1.68,1.68,0,0,0,1.27.56,1.64,1.64,0,0,0,1.27-.58,1.92,1.92,0,0,0,.53-1.34,1.84,1.84,0,0,0-1.15-1.54l-1.2-.67-1.54-.86a5,5,0,0,1-1.95-1.93,5.36,5.36,0,0,1-.64-2.63,4.55,4.55,0,0,1,.65-2.41,4.8,4.8,0,0,1,1.71-1.7,4.61,4.61,0,0,1,2.32-.62,4.43,4.43,0,0,1,2.34.64,4.77,4.77,0,0,1,1.7,1.7,4.53,4.53,0,0,1,.64,2.39v2c0,.06,0,.09-.1.09h-2.68c-.07,0-.1,0-.1-.09l0-2a1.86,1.86,0,0,0-.53-1.37,1.72,1.72,0,0,0-1.25-.53,1.66,1.66,0,0,0-1.27.57,1.88,1.88,0,0,0-.53,1.33,2.38,2.38,0,0,0,.34,1.32,3.23,3.23,0,0,0,1.22,1l.47.25c.23.12.48.25.75.41l.74.39.39.22a5.78,5.78,0,0,1,1.9,1.64,4,4,0,0,1,.69,2.39,4.76,4.76,0,0,1-2.34,4.19A4.56,4.56,0,0,1,476.23,188.89Z"/><path class="cls-5" d="M483.24,184.24q-.11,0-.12-.12l-.51-5.52v-6.53c0-.08,0-.12.1-.12h2.69a.11.11,0,0,1,.12.12l0,6.53-.5,5.52q0,.12-.12.12Zm-.53,4.41c-.06,0-.1,0-.1-.12v-2.61a.09.09,0,0,1,.1-.1h2.69c.06,0,.09,0,.09.1v2.61q0,.12-.09.12Z"/><path class="cls-5" d="M488.11,184.24q-.09,0-.12-.12l-.5-5.52v-6.53q0-.12.09-.12h2.69a.11.11,0,0,1,.12.12l0,6.53-.51,5.52q0,.12-.12.12Zm-.53,4.41q-.09,0-.09-.12v-2.61c0-.07,0-.1.09-.1h2.69a.09.09,0,0,1,.1.1v2.61c0,.08,0,.12-.1.12Z"/><path class="cls-5" d="M493,184.24q-.09,0-.12-.12l-.5-5.52v-6.53q0-.12.09-.12h2.69a.11.11,0,0,1,.12.12l0,6.53-.51,5.52q0,.12-.12.12Zm-.53,4.41q-.09,0-.09-.12v-2.61c0-.07,0-.1.09-.1h2.69c.07,0,.1,0,.1.1v2.61c0,.08,0,.12-.1.12Z"/><path class="cls-5" d="M497.85,184.24q-.09,0-.12-.12l-.5-5.52v-6.53c0-.08,0-.12.1-.12H500a.11.11,0,0,1,.12.12l0,6.53-.5,5.52q0,.12-.12.12Zm-.52,4.41c-.07,0-.1,0-.1-.12v-2.61c0-.07,0-.1.1-.1H500c.07,0,.1,0,.1.1v2.61c0,.08,0,.12-.1.12Z"/><path class="cls-5" d="M502.73,184.24q-.11,0-.12-.12l-.51-5.52v-6.53c0-.08,0-.12.1-.12h2.69a.11.11,0,0,1,.12.12l0,6.53-.5,5.52q0,.12-.12.12Zm-.53,4.41c-.07,0-.1,0-.1-.12v-2.61c0-.07,0-.1.1-.1h2.69c.06,0,.09,0,.09.1v2.61q0,.12-.09.12Z"/><path class="cls-5" d="M507.6,184.24q-.11,0-.12-.12L507,178.6v-6.53c0-.08,0-.12.1-.12h2.69a.11.11,0,0,1,.12.12l0,6.53-.5,5.52q0,.12-.12.12Zm-.53,4.41c-.07,0-.1,0-.1-.12v-2.61c0-.07,0-.1.1-.1h2.69c.06,0,.09,0,.09.1v2.61q0,.12-.09.12Z"/><path class="cls-5" d="M512.47,184.24q-.11,0-.12-.12l-.51-5.52v-6.53c0-.08,0-.12.1-.12h2.69a.11.11,0,0,1,.12.12l0,6.53-.5,5.52q0,.12-.12.12Zm-.53,4.41c-.06,0-.1,0-.1-.12v-2.61a.09.09,0,0,1,.1-.1h2.69c.06,0,.09,0,.09.1v2.61q0,.12-.09.12Z"/><circle class="cls-1" cx="698.9" cy="131.29" r="93.45"/><circle class="cls-2" cx="635.33" cy="99.06" r="31.98"/><path class="cls-3" d="M635.33,133.26a34.21,34.21,0,1,1,34.2-34.2A34.24,34.24,0,0,1,635.33,133.26Zm0-63.95a29.75,29.75,0,1,0,29.75,29.75A29.78,29.78,0,0,0,635.33,69.31Z"/><path class="cls-4" d="M640.38,97a9.44,9.44,0,0,1,3,1.15,8.47,8.47,0,0,1,2.35,2.06,9.09,9.09,0,0,1,1.49,2.83,10.79,10.79,0,0,1,.54,3.47,10.62,10.62,0,0,1-.94,4.52,9.8,9.8,0,0,1-2.67,3.44,12,12,0,0,1-4.2,2.22,18.09,18.09,0,0,1-5.5.78,17.1,17.1,0,0,1-7.16-1.42,12,12,0,0,1-5-4.09l3.58-4.06a9.19,9.19,0,0,0,3.31,3.1,10.53,10.53,0,0,0,5.13,1.12,8.67,8.67,0,0,0,5.43-1.49,5.4,5.4,0,0,0,1.9-4.49,6,6,0,0,0-2.14-4.87q-2.15-1.76-6.31-1.76h-1.44V94.9h1.6a8.14,8.14,0,0,0,5.51-1.68A5.41,5.41,0,0,0,640.86,89a4.3,4.3,0,0,0-1.71-3.77,7.56,7.56,0,0,0-4.44-1.2,9.58,9.58,0,0,0-4.81,1.18,8.52,8.52,0,0,0-3.31,3.37l-3.69-4a8.69,8.69,0,0,1,2-2.33,14.88,14.88,0,0,1,2.92-1.82,16.17,16.17,0,0,1,3.52-1.17,18.85,18.85,0,0,1,3.93-.4,15.75,15.75,0,0,1,4.79.69,12.25,12.25,0,0,1,3.74,1.93,8.37,8.37,0,0,1,2.43,3,8.84,8.84,0,0,1,.85,3.9,9.6,9.6,0,0,1-.48,3A9.19,9.19,0,0,1,645.27,94a8,8,0,0,1-2.11,2A7.74,7.74,0,0,1,640.38,97Z"/><rect class="cls-6" x="687.95" y="64.85" width="110.92" height="163.24"/><path class="cls-5" d="M703,106.35l3-16.49a.11.11,0,0,1,.12-.1h3.48a.12.12,0,0,1,.12.1l2.85,16.49q0,.12-.09.12h-2.67q-.09,0-.12-.12l-.26-1.76h-3.27l-.26,1.76q0,.12-.12.12h-2.66C703.07,106.47,703,106.43,703,106.35Zm3.62-4.32H709l-1-6.75-.14-.89-.1.89Z"/><path class="cls-5" d="M714.2,106.47c-.06,0-.1,0-.1-.12l0-16.47a.11.11,0,0,1,.12-.12h2.66a.11.11,0,0,1,.12.12l0,13.63H722a.11.11,0,0,1,.12.12v2.72a.11.11,0,0,1-.12.12Z"/><path class="cls-5" d="M722.82,106.35l3-16.49a.12.12,0,0,1,.12-.1h3.48a.11.11,0,0,1,.12.1l2.86,16.49c0,.08,0,.12-.1.12h-2.66q-.11,0-.12-.12l-.27-1.76H726l-.26,1.76q0,.12-.12.12h-2.67Q722.82,106.47,722.82,106.35Zm3.62-4.32h2.3l-1-6.75-.14-.89-.1.89Z"/><path class="cls-5" d="M734,106.47a.11.11,0,0,1-.12-.12l0-16.49a.09.09,0,0,1,.1-.1h2.69c.06,0,.09,0,.09.1l0,16.49c0,.08,0,.12-.1.12Z"/><path class="cls-5" d="M739,106.47c-.07,0-.1,0-.1-.12L739,89.86c0-.07,0-.1.09-.1h4.85a4.6,4.6,0,0,1,2.39.64A4.81,4.81,0,0,1,748,92.1a4.58,4.58,0,0,1,.65,2.41,4.44,4.44,0,0,1-.27,1.6,4.82,4.82,0,0,1-.62,1.2,4.16,4.16,0,0,1-.65.73,4.88,4.88,0,0,1,1.3,3.39l0,4.92a.11.11,0,0,1-.12.12h-2.71c-.06,0-.1,0-.1-.08v-5a2.07,2.07,0,0,0-.61-1.5,2,2,0,0,0-1.5-.64h-1.58l0,7.06q0,.12-.09.12Zm2.83-10.06h2.06a1.83,1.83,0,0,0,1.32-.55,1.84,1.84,0,0,0,0-2.67,1.86,1.86,0,0,0-1.33-.55h-2.06Z"/><path class="cls-5" d="M752.41,106.47c-.07,0-.1,0-.1-.12V92.67h-3.12a.11.11,0,0,1-.12-.12l0-2.69c0-.07,0-.1.09-.1h9.12c.08,0,.12,0,.12.1v2.69q0,.12-.09.12h-3.15l0,13.68c0,.08,0,.12-.1.12Z"/><path class="cls-5" d="M759.7,106.47q-.09,0-.09-.12l0-16.49c0-.07,0-.1.1-.1h7.7c.07,0,.1,0,.1.12v2.69a.09.09,0,0,1-.1.1h-4.92v3.74h4.92c.07,0,.1,0,.1.1l0,2.71a.08.08,0,0,1-.09.09h-5v4.2h5q.09,0,.09.12v2.74c0,.06,0,.1-.09.1Z"/><path class="cls-5" d="M773.62,106.71a4.4,4.4,0,0,1-2.36-.66,4.94,4.94,0,0,1-1.7-1.76,4.62,4.62,0,0,1-.64-2.41v-1.1a.11.11,0,0,1,.12-.12h2.69q.09,0,.09.12v1.1a1.94,1.94,0,0,0,.53,1.36,1.72,1.72,0,0,0,2.55,0,2,2,0,0,0,.52-1.35c0-.59-.38-1.1-1.15-1.53l-1.2-.68-1.53-.86a5.05,5.05,0,0,1-2-1.93,5.44,5.44,0,0,1-.64-2.63,4.55,4.55,0,0,1,.65-2.41,4.8,4.8,0,0,1,1.72-1.69,4.57,4.57,0,0,1,4.65,0,4.8,4.8,0,0,1,1.71,1.7,4.61,4.61,0,0,1,.63,2.39v2a.08.08,0,0,1-.09.09h-2.69c-.06,0-.1,0-.1-.09l0-2a1.86,1.86,0,0,0-.53-1.37,1.72,1.72,0,0,0-1.25-.53,1.67,1.67,0,0,0-1.27.57,1.88,1.88,0,0,0-.53,1.33,2.44,2.44,0,0,0,.34,1.32,3.23,3.23,0,0,0,1.22,1l.47.25.76.41.73.39.4.22a5.76,5.76,0,0,1,1.89,1.64,4,4,0,0,1,.7,2.39,4.75,4.75,0,0,1-.64,2.46,4.7,4.7,0,0,1-1.7,1.73A4.58,4.58,0,0,1,773.62,106.71Z"/><path class="cls-5" d="M780.63,102.05q-.09,0-.12-.12l-.5-5.52V89.88q0-.12.09-.12h2.69a.11.11,0,0,1,.12.12l0,6.53-.51,5.52q0,.12-.12.12Zm-.53,4.42q-.09,0-.09-.12v-2.62c0-.06,0-.1.09-.1h2.69a.09.09,0,0,1,.1.1v2.62c0,.08,0,.12-.1.12Z"/><circle class="cls-1" cx="436.59" cy="410.39" r="93.45"/><circle class="cls-2" cx="367.04" cy="376.19" r="31.98"/><path class="cls-3" d="M367,410.39a34.21,34.21,0,1,1,34.2-34.2A34.24,34.24,0,0,1,367,410.39Zm0-63.95a29.75,29.75,0,1,0,29.75,29.75A29.78,29.78,0,0,0,367,346.44Z"/><path class="cls-4" d="M367.54,371.58a13.32,13.32,0,0,1,4.95.9,12.36,12.36,0,0,1,3.95,2.52,11.11,11.11,0,0,1,2.62,3.84,12.76,12.76,0,0,1,.94,4.92,12.52,12.52,0,0,1-1.05,5.18,11.84,11.84,0,0,1-2.88,4,13,13,0,0,1-4.36,2.59,15.6,15.6,0,0,1-5.39.91,14.7,14.7,0,0,1-7.38-1.85,12.49,12.49,0,0,1-5-5l3.53-3.37a11.54,11.54,0,0,0,3.85,3.63,9.65,9.65,0,0,0,5,1.39,7.57,7.57,0,0,0,5.45-2,7.1,7.1,0,0,0,2.14-5.39,7.45,7.45,0,0,0-.56-2.92,7,7,0,0,0-1.53-2.24,7.17,7.17,0,0,0-2.27-1.47,7.39,7.39,0,0,0-2.86-.53,8.31,8.31,0,0,0-3.79.88,7.26,7.26,0,0,0-2.89,2.59h-5.18c0-.14.11-.57.24-1.28s.29-1.61.51-2.68.44-2.26.69-3.58.52-2.65.8-4q1-4.77,2.09-10.64h18.54v5.4H363.48l-1.92,10.37a6.23,6.23,0,0,1,2.43-1.61A9.9,9.9,0,0,1,367.54,371.58Z"/><rect class="cls-2" x="421.04" y="343.48" width="110.92" height="163.24"/><path class="cls-5" d="M533.46,508.22H419.54V342H533.46Zm-110.92-3H530.46V345H422.54Z"/><path class="cls-7" d="M487,373.55a5.65,5.65,0,0,1-1-.65,4.62,4.62,0,0,1-1.07-1.65,5.49,5.49,0,0,1-.39-2,5.71,5.71,0,0,1,.05-.7,8.78,8.78,0,0,1,1.14-3,9.49,9.49,0,0,1,2.05-2.51,6.69,6.69,0,0,1,1.14-.85,4.43,4.43,0,0,1,1.21-.47,4.36,4.36,0,0,1,1.06-.1,2.52,2.52,0,0,1,.94.2,2.85,2.85,0,0,1,.83.46.74.74,0,0,1,.34.52c0,.14,0,.23,0,.26s-.09,0-.2,0h-.24l.24.7a3.53,3.53,0,0,1,.17.52,3.15,3.15,0,0,1,.07.58,9.8,9.8,0,0,1-.27,1.67,9.55,9.55,0,0,1-.45,1.67,1,1,0,0,0-.1.5l-.6,1.32a.46.46,0,0,0-.14.17.14.14,0,0,0,0,.17,1.93,1.93,0,0,1-.25.54c-.17.29-.28.44-.32.44h-.08s0,0,0,.09a1.54,1.54,0,0,1-.33.5,10.52,10.52,0,0,1-.73.82,4.86,4.86,0,0,1-1.07.78,2.54,2.54,0,0,1-1.07.39A2.3,2.3,0,0,1,487,373.55Zm1.72-1.52a6.41,6.41,0,0,0,1.85-2.23,4,4,0,0,0,.4-.69c.1-.24.27-.72.51-1.42a1.63,1.63,0,0,0,.26-.61,3.57,3.57,0,0,0,.08-.69,6.21,6.21,0,0,1,.12-1.48c0-.45,0-.74,0-.86a.72.72,0,0,0-.2-.37.87.87,0,0,0-.57-.21,2.22,2.22,0,0,0-.63.18,4,4,0,0,0-.64.3.79.79,0,0,1-.22,0,.49.49,0,0,1-.25-.06.18.18,0,0,1-.11-.15c0-.11,0-.17-.14-.17a1,1,0,0,0-.53.29,5.68,5.68,0,0,0-.72.74,6.53,6.53,0,0,0-.71.85,1.78,1.78,0,0,0-.32.57.78.78,0,0,1-.09.26c-.05.13-.1.23-.13.31a10,10,0,0,0-.46.93,7.2,7.2,0,0,0-.36.95v1.29a4.55,4.55,0,0,0,.08.94,2.36,2.36,0,0,0,.26.69,2.2,2.2,0,0,0,.31.41c.15.16.23.27.27.31a1.17,1.17,0,0,0,.27.23.58.58,0,0,0,.28.06,2.18,2.18,0,0,0,.5-.07A1.19,1.19,0,0,0,488.76,372Z"/><path class="cls-7" d="M493,376.4a1.09,1.09,0,0,1-.22-.74,4.47,4.47,0,0,1,.51-1.83,4.58,4.58,0,0,1,.24-.44,2,2,0,0,0,.21-.49q.19-.43,2.16-4c1.31-2.38,2-3.64,2.11-3.77s.13,0,.2-.12a1.1,1.1,0,0,0,.14-.33,1.12,1.12,0,0,1,.18-.42.77.77,0,0,1,.23-.26c0-.06.07-.15.13-.26a2,2,0,0,0,.11-.24.46.46,0,0,1,.08-.17.8.8,0,0,0,.11-.19c.35-.43,1-1.42,2-3a23.28,23.28,0,0,0,1.54-2.61c.05-.24.21-.33.48-.29a.46.46,0,0,1,.38,0,.4.4,0,0,1,.09.14,1.91,1.91,0,0,0,.2.31.67.67,0,0,1,.14.46,1.6,1.6,0,0,1-.07.45,1.93,1.93,0,0,1-.21.59c-.1.15-.33.47-.7.95l-.65.86-.53.72a2.08,2.08,0,0,0-.33.48,2.08,2.08,0,0,1-.17.28c-.08.12-.17.27-.26.44s-.47.63-.88,1.2a10.13,10.13,0,0,0-.64,1,1.16,1.16,0,0,1-.06.16.32.32,0,0,1-.15.18c-.05,0-.09,0-.12.08a.64.64,0,0,0-.05.16,4.41,4.41,0,0,1-.62,1.18c-.72,1.31-1.64,3-2.74,5.13a29.09,29.09,0,0,0-1.78,3.72,5,5,0,0,1-.19.75.36.36,0,0,1-.24.21A.67.67,0,0,1,493,376.4Z"/><path class="cls-7" d="M503.26,373.5a1.63,1.63,0,0,1-.41-.48.4.4,0,0,1,0-.15,1.14,1.14,0,0,1,.07-.38c.05-.14.1-.22.14-.22s.18-.07.4-.37a2.25,2.25,0,0,0,.35-.56.29.29,0,0,1,.15-.18l.18-.11a2.42,2.42,0,0,1,.35-.42l.3-.32.36-.4.48-.49a11.38,11.38,0,0,0,.84-.82,8.24,8.24,0,0,0,1.3-1.56l.09-.09a1.15,1.15,0,0,1,.2-.15,4.35,4.35,0,0,0,.67-.55,1.44,1.44,0,0,1,.26-.53,3.93,3.93,0,0,1,.48-.6,3.06,3.06,0,0,0,.35-.59A4.46,4.46,0,0,0,510,364l.05-.22q0-.09-.12-.15l-.28-.11-.25-.07a3.48,3.48,0,0,0-1-.17,3.27,3.27,0,0,0-1.83.65,2,2,0,0,0-.52.17,1.87,1.87,0,0,1-.56.12.72.72,0,0,1-.21-.22,3.15,3.15,0,0,0-.27-.31l-.24-.51.75-.4a4.88,4.88,0,0,1,2.59-1,1.93,1.93,0,0,1,.67.1,1.54,1.54,0,0,1,.43.05,1.14,1.14,0,0,1,.27.07q.29,0,.75.45a3.51,3.51,0,0,1,.71,1,1.6,1.6,0,0,1,.29.89,3.59,3.59,0,0,1-.77,1.84c-.35.42-.89,1-1.61,1.8s-1.16,1.24-1.32,1.37a8.94,8.94,0,0,0-1.39,1.39,7.11,7.11,0,0,0-1,1.25V372c0-.1.5-.22,1.5-.37a17.06,17.06,0,0,1,2.32-.23.91.91,0,0,1,.36,0c0,.06.06.09.08.08s0,0,0,0,.13-.1.34-.1a4.52,4.52,0,0,1,1.29.22l.25.07a1.07,1.07,0,0,1,.26.09s.07.07.07.1l.08.13a1.51,1.51,0,0,0,.18.25c.15.12.22.21.22.29s-.14.17-.41.17a6.34,6.34,0,0,1-1-.12,5.86,5.86,0,0,0-1,.07,1.34,1.34,0,0,1-.45.06h-.56l-.34,0a5.3,5.3,0,0,0-1.56.34,14.28,14.28,0,0,1-1.72.52,4.14,4.14,0,0,1-1.42.24A2.16,2.16,0,0,1,503.26,373.5Z"/><path class="cls-7" d="M516.56,373.55a5.65,5.65,0,0,1-1-.65,4.62,4.62,0,0,1-1.07-1.65,5.49,5.49,0,0,1-.39-2,5.71,5.71,0,0,1,0-.7,8.78,8.78,0,0,1,1.14-3,9.49,9.49,0,0,1,2.05-2.51,6.69,6.69,0,0,1,1.14-.85,4.43,4.43,0,0,1,1.21-.47,4.36,4.36,0,0,1,1.06-.1,2.52,2.52,0,0,1,.94.2,2.85,2.85,0,0,1,.83.46.74.74,0,0,1,.34.52c0,.14,0,.23,0,.26s-.09,0-.2,0h-.24l.24.7a3.53,3.53,0,0,1,.17.52,3.15,3.15,0,0,1,.07.58,9.8,9.8,0,0,1-.27,1.67,9.55,9.55,0,0,1-.45,1.67,1,1,0,0,0-.1.5l-.6,1.32a.46.46,0,0,0-.14.17.14.14,0,0,0,0,.17,1.93,1.93,0,0,1-.25.54c-.17.29-.28.44-.32.44h-.08s0,0,0,.09a1.54,1.54,0,0,1-.33.5,10.52,10.52,0,0,1-.73.82,4.86,4.86,0,0,1-1.07.78,2.54,2.54,0,0,1-1.07.39A2.3,2.3,0,0,1,516.56,373.55Zm1.72-1.52a6.41,6.41,0,0,0,1.85-2.23,4,4,0,0,0,.4-.69c.1-.24.27-.72.51-1.42a1.63,1.63,0,0,0,.26-.61,3.57,3.57,0,0,0,.08-.69,6.21,6.21,0,0,1,.12-1.48c0-.45,0-.74,0-.86a.72.72,0,0,0-.2-.37.87.87,0,0,0-.57-.21,2.22,2.22,0,0,0-.63.18,4,4,0,0,0-.64.3.79.79,0,0,1-.22,0,.49.49,0,0,1-.25-.06.18.18,0,0,1-.11-.15c0-.11-.05-.17-.14-.17a1,1,0,0,0-.53.29,5.68,5.68,0,0,0-.72.74,6.53,6.53,0,0,0-.71.85,1.78,1.78,0,0,0-.32.57.78.78,0,0,1-.09.26c-.05.13-.1.23-.13.31a10,10,0,0,0-.46.93,7.2,7.2,0,0,0-.36.95v1.29a4.55,4.55,0,0,0,.08.94,2.36,2.36,0,0,0,.26.69,2.2,2.2,0,0,0,.31.41c.15.16.23.27.27.31a1.17,1.17,0,0,0,.27.23.58.58,0,0,0,.28.06,2.18,2.18,0,0,0,.5-.07A1.19,1.19,0,0,0,518.28,372Z"/><rect class="cls-5" x="436.12" y="397.73" width="82.59" height="1"/><rect class="cls-5" x="436.12" y="412.16" width="82.59" height="1"/><rect class="cls-5" x="436.12" y="441.04" width="82.59" height="1"/><rect class="cls-5" x="436.12" y="426.6" width="82.59" height="1"/><rect class="cls-5" x="436.12" y="455.48" width="82.59" height="1"/><rect class="cls-5" x="436.12" y="469.92" width="82.59" height="1"/><rect class="cls-5" x="436.12" y="484.36" width="82.59" height="1"/><path class="cls-7" d="M456.55,398.17l4.29-3.37a1,1,0,1,0-1.23-1.57L454.82,397l-4.76-3.25a1,1,0,0,0-1.39.26,1,1,0,0,0,.27,1.39l4.23,2.89-4.29,3.37a1,1,0,0,0,1.24,1.58l4.78-3.76,4.76,3.24a1,1,0,0,0,.56.18,1,1,0,0,0,.57-1.83Z"/><path class="cls-7" d="M491.79,427.05l4.29-3.37a1,1,0,1,0-1.24-1.57l-4.78,3.75-4.76-3.24a1,1,0,0,0-1.13,1.65l4.24,2.89-4.29,3.37a1,1,0,0,0-.17,1.4,1,1,0,0,0,.79.39,1,1,0,0,0,.62-.22l4.78-3.76,4.76,3.25a1,1,0,0,0,.56.17,1,1,0,0,0,.83-.43,1,1,0,0,0-.27-1.39Z"/><path class="cls-7" d="M454,455.92l4.29-3.36a1,1,0,0,0-1.23-1.58l-4.79,3.76-4.76-3.25a1,1,0,0,0-1.12,1.66l4.23,2.89-4.29,3.37a1,1,0,0,0,.62,1.78,1,1,0,0,0,.62-.21l4.78-3.76,4.76,3.25a1,1,0,0,0,.56.17,1,1,0,0,0,.57-1.82Z"/><path class="cls-7" d="M505.51,470.36,509.8,467a1,1,0,1,0-1.24-1.57l-4.78,3.76L499,465.93a1,1,0,0,0-1.39.27,1,1,0,0,0,.26,1.39l4.24,2.89-4.29,3.37a1,1,0,0,0,1.23,1.57l4.79-3.76,4.76,3.25a1,1,0,0,0,.56.17,1,1,0,0,0,.56-1.83Z"/><path class="cls-7" d="M488.14,401.66c4.43.17,8.93.63,13.36.56.94,0,2.22-.45-1.11-.14-.94.09-1.87.13-2.81.18-2.09.11-4.17.19-6.25.39-.34,0-.46.53-.09.63,1.18.3,4.31-.31.49.23a15.53,15.53,0,0,0-3.34.54.33.33,0,0,0-.07.59,3.9,3.9,0,0,0,1.53.24c.77.08,5.31.11,2.54.07-1.46,0-5.46-.09-6.61,1.15-.28.3.17.75.45.45,1.19-1.27,6.56-1,8.34-1.43a.32.32,0,0,0-.08-.63,35.2,35.2,0,0,0-4-.21c-.31,0-2.55.22-1.23.2a16.57,16.57,0,0,0,4.86-.78.32.32,0,0,0,.14-.53c-.25-.28-.49-.14-.8-.31s-.62,0-.87.14c-.68.29,2.11,0,2.06,0a68.13,68.13,0,0,0,8.8-.75c.37-.07.26-.61-.08-.63q-7.63-.36-15.26-.64a.32.32,0,0,0,0,.64Z"/><path class="cls-7" d="M466,459c4.43.17,8.93.63,13.35.56.95,0,2.22-.45-1.11-.14-.93.09-1.87.13-2.8.18-2.09.11-4.17.19-6.26.39a.32.32,0,0,0-.08.63c1.18.3,4.31-.31.49.23a15.53,15.53,0,0,0-3.34.54.33.33,0,0,0-.08.59,4,4,0,0,0,1.54.24c.77.08,5.3.11,2.53.07-1.45,0-5.45-.09-6.6,1.15-.28.3.17.75.45.45,1.19-1.27,6.56-1,8.34-1.43a.32.32,0,0,0-.09-.63,35.2,35.2,0,0,0-4-.21c-.31,0-2.54.22-1.22.2a16.57,16.57,0,0,0,4.86-.78.32.32,0,0,0,.14-.53c-.25-.28-.49-.14-.8-.31s-.62,0-.87.14c-.68.29,2.1,0,2.06,0a68.13,68.13,0,0,0,8.8-.75c.37-.07.26-.61-.09-.63q-7.62-.36-15.25-.64a.32.32,0,0,0,0,.64Z"/><path class="cls-7" d="M450,496.69a1.24,1.24,0,0,1-.72-.29.93.93,0,0,1-.34-.67c0-.35.27-.71.82-1.08a1.69,1.69,0,0,1,.69-.29,2.55,2.55,0,0,1,.58.17,1.1,1.1,0,0,1,.65.89.93.93,0,0,1-.25.58,2.3,2.3,0,0,1-.74.52A2,2,0,0,1,450,496.69Zm1.27-4.27a1.75,1.75,0,0,1-.26-1.06,5.81,5.81,0,0,1,.21-1.43,2.54,2.54,0,0,0,.34-1c.08-.28.21-.62.38-1.05s.32-.74.43-1c.07,0,.14,0,.21-.17a.62.62,0,0,0,.11-.33,1.19,1.19,0,0,1,.08-.45,1,1,0,0,1,.18-.32.59.59,0,0,1,.1-.25.75.75,0,0,0,.09-.25.35.35,0,0,1,.06-.16.38.38,0,0,0,.06-.18,21.92,21.92,0,0,0,1.25-2.71,16.36,16.36,0,0,0,.84-2.31c.05-.27.19-.38.43-.33a.59.59,0,0,1,.39-.1l.33.38a.82.82,0,0,1,.21.35,3.57,3.57,0,0,1,0,.54,2.28,2.28,0,0,1-.21.78,9.38,9.38,0,0,1-.46.88c-.18.3-.3.52-.36.65l-.31.57a3.4,3.4,0,0,0-.39.79.94.94,0,0,1-.12.35l-.19.42q-.21.36-.48.9a2.87,2.87,0,0,0-.26.64.63.63,0,0,0-.06.17.57.57,0,0,1-.13.21c-.05,0-.08,0-.1.11a.56.56,0,0,0,0,.16,2,2,0,0,1-.12.48,7,7,0,0,1-.34.79,15.62,15.62,0,0,0-.89,3.31,4.51,4.51,0,0,1-.08.67.42.42,0,0,1-.23.19A.65.65,0,0,1,451.31,492.42Z"/><path class="cls-7" d="M455.08,496.69a1.24,1.24,0,0,1-.72-.29.93.93,0,0,1-.34-.67c0-.35.27-.71.82-1.08a1.69,1.69,0,0,1,.69-.29,2.55,2.55,0,0,1,.58.17,1.1,1.1,0,0,1,.65.89.93.93,0,0,1-.25.58,2.3,2.3,0,0,1-.74.52A2,2,0,0,1,455.08,496.69Zm1.27-4.27a1.75,1.75,0,0,1-.26-1.06,5.81,5.81,0,0,1,.21-1.43,2.54,2.54,0,0,0,.34-1c.08-.28.21-.62.38-1.05s.32-.74.43-1c.07,0,.14,0,.21-.17a.62.62,0,0,0,.11-.33,1.19,1.19,0,0,1,.08-.45,1,1,0,0,1,.18-.32.59.59,0,0,1,.1-.25.75.75,0,0,0,.09-.25.35.35,0,0,1,.06-.16.38.38,0,0,0,.06-.18,21.92,21.92,0,0,0,1.25-2.71,16.36,16.36,0,0,0,.84-2.31c.05-.27.19-.38.43-.33a.59.59,0,0,1,.39-.1l.33.38a.82.82,0,0,1,.21.35,3.57,3.57,0,0,1,0,.54,2.28,2.28,0,0,1-.21.78,9.38,9.38,0,0,1-.46.88c-.18.3-.3.52-.36.65l-.31.57a3.4,3.4,0,0,0-.39.79.94.94,0,0,1-.12.35l-.19.42q-.21.36-.48.9a2.87,2.87,0,0,0-.26.64.63.63,0,0,0-.06.17.57.57,0,0,1-.13.21c-.05,0-.08,0-.1.11a.56.56,0,0,0,0,.16,2,2,0,0,1-.12.48,7,7,0,0,1-.34.79,15.62,15.62,0,0,0-.89,3.31,4.51,4.51,0,0,1-.08.67.42.42,0,0,1-.23.19A.65.65,0,0,1,456.35,492.42Z"/><path class="cls-7" d="M460.12,496.69a1.24,1.24,0,0,1-.72-.29.93.93,0,0,1-.34-.67c0-.35.27-.71.82-1.08a1.69,1.69,0,0,1,.69-.29,2.55,2.55,0,0,1,.58.17,1.1,1.1,0,0,1,.65.89.93.93,0,0,1-.25.58,2.3,2.3,0,0,1-.74.52A2,2,0,0,1,460.12,496.69Zm1.27-4.27a1.75,1.75,0,0,1-.26-1.06,5.81,5.81,0,0,1,.21-1.43,2.54,2.54,0,0,0,.34-1c.08-.28.21-.62.38-1.05s.32-.74.43-1c.07,0,.14,0,.21-.17a.62.62,0,0,0,.11-.33,1.19,1.19,0,0,1,.08-.45,1,1,0,0,1,.18-.32.59.59,0,0,1,.1-.25.75.75,0,0,0,.09-.25.35.35,0,0,1,.06-.16.38.38,0,0,0,.06-.18,21.92,21.92,0,0,0,1.25-2.71,16.36,16.36,0,0,0,.84-2.31c0-.27.19-.38.43-.33a.59.59,0,0,1,.39-.1l.33.38a.82.82,0,0,1,.21.35,3.57,3.57,0,0,1,0,.54,2.28,2.28,0,0,1-.21.78,9.38,9.38,0,0,1-.46.88c-.18.3-.3.52-.36.65l-.31.57a3.4,3.4,0,0,0-.39.79.94.94,0,0,1-.12.35l-.19.42q-.21.36-.48.9a2.87,2.87,0,0,0-.26.64.63.63,0,0,0-.06.17.57.57,0,0,1-.13.21c-.05,0-.08,0-.1.11a.56.56,0,0,0,0,.16,2,2,0,0,1-.12.48,7,7,0,0,1-.34.79,15.62,15.62,0,0,0-.89,3.31,4.51,4.51,0,0,1-.08.67.42.42,0,0,1-.23.19A.65.65,0,0,1,461.39,492.42Z"/><circle class="cls-1" cx="699.41" cy="410.39" r="93.45"/><circle class="cls-2" cx="622.9" cy="376.19" r="31.98"/><path class="cls-3" d="M622.9,410.39a34.21,34.21,0,1,1,34.2-34.2A34.24,34.24,0,0,1,622.9,410.39Zm0-63.95a29.75,29.75,0,1,0,29.75,29.75A29.78,29.78,0,0,0,622.9,346.44Z"/><path class="cls-4" d="M636.82,383a12.82,12.82,0,0,1-1,5.13,13,13,0,0,1-2.89,4.19,13.36,13.36,0,0,1-4.35,2.81,14.25,14.25,0,0,1-5.4,1,14,14,0,0,1-5.72-1.15,12.09,12.09,0,0,1-4.38-3.32,15.25,15.25,0,0,1-2.81-5.29,23.38,23.38,0,0,1-1-7.08,38.65,38.65,0,0,1,1-9.54A21.51,21.51,0,0,1,613.2,363a12.49,12.49,0,0,1,4.54-4.14,12.74,12.74,0,0,1,6-1.39,13.53,13.53,0,0,1,6.65,1.66,13,13,0,0,1,4.89,4.7l-3.47,3.63a9.28,9.28,0,0,0-3.4-3.55,9.06,9.06,0,0,0-4.78-1.31,7.44,7.44,0,0,0-6.39,3.39q-2.37,3.41-2.48,9.54a8.84,8.84,0,0,1,3.53-3.79,10.33,10.33,0,0,1,5.39-1.39,13.51,13.51,0,0,1,5.19,1A13.15,13.15,0,0,1,633,374a12.68,12.68,0,0,1,2.78,4A12.48,12.48,0,0,1,636.82,383Zm-13.68,8.12a7.72,7.72,0,0,0,3.13-.64,8.18,8.18,0,0,0,2.56-1.76,8.59,8.59,0,0,0,1.74-2.6,7.64,7.64,0,0,0,.64-3.12,7.48,7.48,0,0,0-.64-3.1,8.44,8.44,0,0,0-1.74-2.54,8.29,8.29,0,0,0-2.56-1.74,8,8,0,0,0-6.26,0,8.29,8.29,0,0,0-2.56,1.74,8.44,8.44,0,0,0-1.74,2.54,7.48,7.48,0,0,0-.64,3.1,7.64,7.64,0,0,0,.64,3.12,8.59,8.59,0,0,0,1.74,2.6,8.18,8.18,0,0,0,2.56,1.76A7.72,7.72,0,0,0,623.14,391.15Z"/><circle class="cls-2" cx="727.19" cy="408.81" r="64.94"/><path class="cls-5" d="M727.19,475.63A66.83,66.83,0,1,1,794,408.81,66.9,66.9,0,0,1,727.19,475.63Zm0-129.88a63.06,63.06,0,1,0,63.06,63.06A63.13,63.13,0,0,0,727.19,345.75Z"/><path class="cls-5" d="M760.77,404.23a12.2,12.2,0,0,0,.42-3.22,13.37,13.37,0,0,0-1.78-6.73A13.86,13.86,0,0,0,756.75,384v-.23q0-6.41-4-10.09A15.09,15.09,0,0,0,742.18,370H737a41,41,0,0,0-9.34,1,105.8,105.8,0,0,0-10.42,3.08,34.3,34.3,0,0,1-6.44,1.87H697.3a6,6,0,0,0-6,6V411.8a6,6,0,0,0,6,6h12.79q1.7,1.13,6.4,7.24a73.09,73.09,0,0,0,5,5.94,7.52,7.52,0,0,1,1.45,3,30.87,30.87,0,0,1,.82,3.95,17,17,0,0,0,1.19,4.23,11.11,11.11,0,0,0,2.52,3.83,5.92,5.92,0,0,0,4.2,1.73,15.94,15.94,0,0,0,7.05-1.52,10.24,10.24,0,0,0,4.77-4.74,19.19,19.19,0,0,0,1.63-8.69,20.48,20.48,0,0,0-2.24-9h8.22a12.13,12.13,0,0,0,12-11.9A13.56,13.56,0,0,0,760.77,404.23ZM702.39,387a2.92,2.92,0,0,1-4.2,0,2.84,2.84,0,0,1-.89-2.1,3,3,0,0,1,5.09-2.11,2.91,2.91,0,0,1,.89,2.11A2.87,2.87,0,0,1,702.39,387Zm52.87,29a5.77,5.77,0,0,1-4.16,1.8H734.66q0,2.7,2.24,7.44c1.5,3.17,2.24,5.66,2.24,7.5,0,3-.49,5.31-1.49,6.77s-3,2.2-6,2.2a7.74,7.74,0,0,1-1.77-4c-.38-1.84-.85-3.79-1.43-5.86a11.8,11.8,0,0,0-2.78-5.12q-1-1.07-3.59-4.25c-.13-.15-.48-.62-1.08-1.4s-1.08-1.41-1.47-1.91-.92-1.16-1.61-2a25.52,25.52,0,0,0-1.87-2.05c-.56-.55-1.16-1.1-1.79-1.66a8.08,8.08,0,0,0-1.87-1.26,4,4,0,0,0-1.66-.42h-1.5V381.91h1.5a9.94,9.94,0,0,0,1.47-.14c.58-.1,1.09-.2,1.54-.31s1-.28,1.78-.51,1.27-.41,1.63-.54l1.66-.58,1.35-.49q9.86-3.4,16-3.41h6a9.67,9.67,0,0,1,6.36,1.91q2.28,1.92,2.28,5.89a15.38,15.38,0,0,1-.23,2.61,5.27,5.27,0,0,1,2.22,2.46,7.92,7.92,0,0,1,.82,3.43,6.48,6.48,0,0,1-.84,3.22,7.39,7.39,0,0,1,2.47,5.56,8.43,8.43,0,0,1-.47,2.59,6.4,6.4,0,0,1-1.16,2.22c1,0,1.83.76,2.5,2.19a9.35,9.35,0,0,1,1,3.79A5.73,5.73,0,0,1,755.26,416Z"/><text class="cls-8" transform="translate(60.71 272.29)">Tit<tspan class="cls-9" x="20.93" y="0">r</tspan><tspan x="26.78" y="0">e en majuscule</tspan></text><text class="cls-8" transform="translate(339.62 261.49)"><tspan class="cls-10">P</tspan><tspan class="cls-11" x="11.03" y="0">oi</tspan><tspan class="cls-12" x="25.67" y="0">n</tspan><tspan x="36.07" y="0">ts d</tspan><tspan class="cls-13" x="66.65" y="0">’</tspan><tspan class="cls-14" x="69.75" y="0">e</tspan><tspan class="cls-15" x="79.97" y="0">x</tspan><tspan x="88.65" y="0">clam</tspan><tspan class="cls-16" x="129.78" y="0">a</tspan><tspan x="139.52" y="0">tions </tspan><tspan x="43.36" y="21.6">dans le tit</tspan><tspan class="cls-9" x="124.25" y="21.6">r</tspan><tspan x="130.1" y="21.6">e</tspan></text><text class="cls-8" transform="translate(609.13 261.49)"><tspan class="cls-17">F</tspan><tspan x="9.07" y="0">au</tspan><tspan class="cls-18" x="29.57" y="0">t</tspan><tspan class="cls-11" x="35.37" y="0">es d</tspan><tspan class="cls-19" x="70.49" y="0">’</tspan><tspan class="cls-11" x="73.58" y="0">orthog</tspan><tspan class="cls-20" x="128.97" y="0">r</tspan><tspan x="135.16" y="0">aphe </tspan><tspan x="42.21" y="21.6">dans le tit</tspan><tspan class="cls-9" x="123.1" y="21.6">r</tspan><tspan x="128.95" y="21.6">e</tspan></text><text class="cls-8" transform="translate(49.21 552.64)"><tspan class="cls-21">N</tspan><tspan x="13.77" y="0">om de domaine dou</tspan><tspan class="cls-18" x="182.39" y="0">t</tspan><tspan class="cls-11" x="188.19" y="0">eux</tspan></text><text class="cls-8" transform="translate(344.58 541.84)"><tspan class="cls-17">F</tspan><tspan x="9.07" y="0">au</tspan><tspan class="cls-18" x="29.57" y="0">t</tspan><tspan class="cls-11" x="35.37" y="0">es d</tspan><tspan class="cls-19" x="70.49" y="0">’</tspan><tspan class="cls-11" x="73.58" y="0">orthog</tspan><tspan class="cls-20" x="128.97" y="0">r</tspan><tspan x="135.16" y="0">aphe</tspan><tspan x="36.49" y="21.6">dans </tspan><tspan class="cls-22" x="81.34" y="21.6">l</tspan><tspan class="cls-23" x="86.04" y="21.6">’</tspan><tspan class="cls-11" x="89.23" y="21.6">article</tspan></text><text class="cls-8" transform="translate(587.86 552.64)"><tspan class="cls-21">N</tspan><tspan class="cls-11" x="13.77" y="0">omb</tspan><tspan class="cls-9" x="52.13" y="0">r</tspan><tspan x="57.98" y="0">e de </tspan><tspan class="cls-24" x="99.48" y="0">F</tspan><tspan x="108.56" y="0">a</tspan><tspan class="cls-25" x="118.37" y="0">k</tspan><tspan x="127.42" y="0">e </tspan><tspan class="cls-16" x="142.58" y="0">a</tspan><tspan x="152.31" y="0">ttribué</tspan></text><circle class="cls-1" cx="130.46" cy="410.39" r="93.45"/><circle class="cls-2" cx="74.84" cy="376.19" r="31.98"/><path class="cls-3" d="M74.84,410.39a34.21,34.21,0,1,1,34.2-34.2A34.24,34.24,0,0,1,74.84,410.39Zm0-63.95a29.75,29.75,0,1,0,29.75,29.75A29.78,29.78,0,0,0,74.84,346.44Z"/><path class="cls-4" d="M77.35,393.52V385H60.94v-5.23l18.28-23.57h4v23.46h4.7V385h-4.7v8.5ZM66.93,379.68H78V365.2Z"/><path class="cls-5" d="M129.12,376c-.06,0-.1,0-.1-.12V362.23H125.9a.11.11,0,0,1-.12-.12l0-2.68c0-.07,0-.1.09-.1H135c.08,0,.12,0,.12.1v2.68q0,.12-.09.12H131.9l0,13.68c0,.08,0,.12-.1.12Z"/><path class="cls-5" d="M136.42,376c-.07,0-.1,0-.1-.12l.05-16.48c0-.07,0-.1.09-.1h4.85a4.6,4.6,0,0,1,2.39.64,4.81,4.81,0,0,1,1.74,1.7,4.58,4.58,0,0,1,.65,2.41,4.47,4.47,0,0,1-.27,1.6,4.82,4.82,0,0,1-.62,1.2,4.16,4.16,0,0,1-.65.73,4.87,4.87,0,0,1,1.3,3.38l0,4.92a.11.11,0,0,1-.12.12H143c-.07,0-.1,0-.1-.07v-5a2.1,2.1,0,0,0-.61-1.5,2,2,0,0,0-1.5-.63h-1.58l0,7.05q0,.12-.09.12Zm2.83-10h2.06a1.87,1.87,0,0,0,1.32-.55,1.82,1.82,0,0,0,.58-1.35,1.78,1.78,0,0,0-.57-1.32,1.82,1.82,0,0,0-1.33-.55h-2.06Z"/><path class="cls-5" d="M152.21,376.27a4.41,4.41,0,0,1-2.37-.66,5,5,0,0,1-1.71-1.75,4.66,4.66,0,0,1-.65-2.41l0-7.61a4.68,4.68,0,0,1,.64-2.4,4.91,4.91,0,0,1,1.72-1.73,4.49,4.49,0,0,1,2.35-.64,4.41,4.41,0,0,1,2.35.64,5,5,0,0,1,1.69,1.73,4.59,4.59,0,0,1,.64,2.4l0,7.61a4.74,4.74,0,0,1-.63,2.41,5,5,0,0,1-1.71,1.75A4.4,4.4,0,0,1,152.21,376.27Zm0-2.9a1.67,1.67,0,0,0,1.26-.59,1.9,1.9,0,0,0,.54-1.33l0-7.61a1.89,1.89,0,0,0-.5-1.34,1.64,1.64,0,0,0-1.27-.55,1.7,1.7,0,0,0-1.27.54,1.82,1.82,0,0,0-.53,1.35v7.61a1.89,1.89,0,0,0,.53,1.36A1.68,1.68,0,0,0,152.21,373.37Z"/><path class="cls-5" d="M158.83,376q-.09,0-.09-.12l0-16.46a.11.11,0,0,1,.12-.12h2.66a.11.11,0,0,1,.12.12l0,13.63h4.94a.11.11,0,0,1,.12.12v2.71a.11.11,0,0,1-.12.12Z"/><path class="cls-5" d="M168.36,376c-.07,0-.1,0-.1-.12l0-16.46a.11.11,0,0,1,.12-.12h2.66a.11.11,0,0,1,.12.12l0,13.63h4.94a.11.11,0,0,1,.12.12v2.71a.11.11,0,0,1-.12.12Z"/><path class="cls-5" d="M181.89,376.27a4.4,4.4,0,0,1-2.36-.66,5.14,5.14,0,0,1-1.72-1.75,4.65,4.65,0,0,1-.64-2.41l0-7.61a4.59,4.59,0,0,1,.64-2.4,4.89,4.89,0,0,1,1.71-1.73,4.51,4.51,0,0,1,2.35-.64,4.45,4.45,0,0,1,2.36.64,5.09,5.09,0,0,1,1.69,1.73,4.68,4.68,0,0,1,.63,2.4l0,7.61a4.65,4.65,0,0,1-.64,2.41,4.92,4.92,0,0,1-1.7,1.75A4.41,4.41,0,0,1,181.89,376.27Zm0-2.9a1.67,1.67,0,0,0,1.26-.59,1.91,1.91,0,0,0,.55-1.33l0-7.61a1.94,1.94,0,0,0-.5-1.34,1.65,1.65,0,0,0-1.28-.55,1.72,1.72,0,0,0-1.27.54,1.86,1.86,0,0,0-.53,1.35v7.61a1.94,1.94,0,0,0,.53,1.36A1.7,1.7,0,0,0,181.89,373.37Z"/><path class="cls-5" d="M188.52,376c-.07,0-.1,0-.1-.12l0-16.46a.11.11,0,0,1,.12-.12h2.66a.11.11,0,0,1,.12.12l0,13.63h4.94a.11.11,0,0,1,.12.12v2.71a.11.11,0,0,1-.12.12Z"/><path class="cls-5" d="M202.05,376.27a4.4,4.4,0,0,1-2.36-.66,5.14,5.14,0,0,1-1.72-1.75,4.65,4.65,0,0,1-.64-2.41l0-7.61a4.59,4.59,0,0,1,.64-2.4,4.89,4.89,0,0,1,1.71-1.73,4.51,4.51,0,0,1,2.35-.64,4.45,4.45,0,0,1,2.36.64,5.09,5.09,0,0,1,1.69,1.73,4.68,4.68,0,0,1,.63,2.4l0,7.61a4.65,4.65,0,0,1-.64,2.41,4.92,4.92,0,0,1-1.7,1.75A4.41,4.41,0,0,1,202.05,376.27Zm0-2.9a1.67,1.67,0,0,0,1.26-.59,1.9,1.9,0,0,0,.54-1.33l0-7.61a1.94,1.94,0,0,0-.5-1.34,1.65,1.65,0,0,0-1.28-.55,1.72,1.72,0,0,0-1.27.54,1.86,1.86,0,0,0-.53,1.35v7.61a1.94,1.94,0,0,0,.53,1.36A1.7,1.7,0,0,0,202.05,373.37Z"/><path class="cls-5" d="M208.68,376c-.07,0-.1,0-.1-.12l0-16.46a.11.11,0,0,1,.12-.12h2.66a.11.11,0,0,1,.12.12l0,13.63h4.94a.11.11,0,0,1,.12.12v2.71a.11.11,0,0,1-.12.12Z"/><path class="cls-5" d="M218.21,376c-.07,0-.1,0-.1-.09v-2.71c0-.07,0-.1.1-.1h2.71c.06,0,.09,0,.09.1v2.71a.08.08,0,0,1-.09.09Z"/><path class="cls-5" d="M223.1,376a.11.11,0,0,1-.12-.12l.05-16.48c0-.07,0-.1.1-.1h7.68c.07,0,.12,0,.12.1v2.71c0,.06,0,.09-.1.09h-4.92V366h4.92c.06,0,.1,0,.1.12l0,2.72q0,.09-.12.09h-4.92v7a.11.11,0,0,1-.12.12Z"/><path class="cls-5" d="M233.42,376c-.06,0-.1,0-.1-.12l.05-16.48c0-.07,0-.1.1-.1h4.85a4.57,4.57,0,0,1,2.38.64,4.92,4.92,0,0,1,1.75,1.7,4.57,4.57,0,0,1,.64,2.41,4.71,4.71,0,0,1-.26,1.6,4.83,4.83,0,0,1-.63,1.2,3.79,3.79,0,0,1-.64.73,4.91,4.91,0,0,1,1.29,3.38l0,4.92a.11.11,0,0,1-.12.12h-2.71c-.07,0-.1,0-.1-.07v-5a2.14,2.14,0,0,0-.61-1.5,2,2,0,0,0-1.5-.63h-1.59l0,7.05c0,.08,0,.12-.1.12Zm2.83-10h2.07a1.91,1.91,0,0,0,1.32-.55,1.86,1.86,0,0,0,0-2.67,1.84,1.84,0,0,0-1.33-.55h-2.07Z"/><path class="cls-5" d="M131,404.83q-.09,0-.09-.12l0-16.46a.11.11,0,0,1,.12-.12h2.67a.11.11,0,0,1,.12.12l0,13.63h4.95a.11.11,0,0,1,.12.12v2.71a.11.11,0,0,1-.12.12Z"/><path class="cls-5" d="M144.54,405.07a4.4,4.4,0,0,1-2.36-.66,5,5,0,0,1-1.72-1.75,4.66,4.66,0,0,1-.65-2.41l0-7.61a4.68,4.68,0,0,1,.63-2.4,5,5,0,0,1,1.72-1.73,4.49,4.49,0,0,1,2.35-.64,4.41,4.41,0,0,1,2.35.64,4.91,4.91,0,0,1,1.69,1.73,4.59,4.59,0,0,1,.64,2.4l0,7.61a4.74,4.74,0,0,1-.63,2.41,4.94,4.94,0,0,1-1.71,1.75A4.4,4.4,0,0,1,144.54,405.07Zm0-2.9a1.67,1.67,0,0,0,1.26-.59,1.9,1.9,0,0,0,.54-1.33l0-7.61a1.9,1.9,0,0,0-.51-1.34,1.63,1.63,0,0,0-1.27-.55,1.7,1.7,0,0,0-1.27.54,1.85,1.85,0,0,0-.53,1.35v7.61a1.94,1.94,0,0,0,.53,1.36A1.68,1.68,0,0,0,144.54,402.17Z"/><path class="cls-5" d="M151.16,404.83q-.09,0-.09-.12l0-16.46a.11.11,0,0,1,.12-.12h2.67a.11.11,0,0,1,.12.12l0,13.63h4.95a.11.11,0,0,1,.12.12v2.71a.11.11,0,0,1-.12.12Z"/><path class="cls-5" d="M160.72,404.83c-.09,0-.12,0-.12-.12l0-16.48c0-.07,0-.1.1-.1h2.68c.07,0,.1,0,.1.1l0,16.48q0,.12-.09.12Z"/><path class="cls-5" d="M166,404.83c-.06,0-.1,0-.1-.12l0-16.46a.11.11,0,0,1,.12-.12h2.66a.11.11,0,0,1,.12.12l0,13.63h4.94a.11.11,0,0,1,.12.12v2.71a.11.11,0,0,1-.12.12Z"/><path class="cls-5" d="M179.51,405.07a4.41,4.41,0,0,1-2.37-.66,5,5,0,0,1-1.71-1.75,4.56,4.56,0,0,1-.65-2.41l0-7.61a4.59,4.59,0,0,1,.64-2.4,4.89,4.89,0,0,1,1.71-1.73,4.52,4.52,0,0,1,2.36-.64,4.44,4.44,0,0,1,2.35.64,5,5,0,0,1,1.69,1.73,4.68,4.68,0,0,1,.64,2.4l0,7.61a4.65,4.65,0,0,1-.64,2.41,4.92,4.92,0,0,1-1.7,1.75A4.4,4.4,0,0,1,179.51,405.07Zm0-2.9a1.67,1.67,0,0,0,1.26-.59,1.9,1.9,0,0,0,.54-1.33l0-7.61a1.94,1.94,0,0,0-.5-1.34,1.64,1.64,0,0,0-1.27-.55,1.74,1.74,0,0,0-1.28.54,1.84,1.84,0,0,0-.52,1.35v7.61a1.93,1.93,0,0,0,.52,1.36A1.72,1.72,0,0,0,179.51,402.17Z"/><path class="cls-5" d="M186.13,404.83c-.06,0-.1,0-.1-.12l0-16.46a.11.11,0,0,1,.12-.12h2.66a.11.11,0,0,1,.12.12l0,13.63h4.94a.11.11,0,0,1,.12.12v2.71a.11.11,0,0,1-.12.12Z"/><path class="cls-5" d="M195.66,404.83c-.07,0-.1,0-.1-.09V402c0-.07,0-.1.1-.1h2.71a.09.09,0,0,1,.1.1v2.71c0,.06,0,.09-.1.09Z"/><path class="cls-5" d="M200.55,404.83a.11.11,0,0,1-.12-.12l0-16.48c0-.07,0-.1.1-.1h7.68c.08,0,.12,0,.12.1v2.71c0,.06,0,.09-.1.09h-4.92v3.72h4.92c.07,0,.1,0,.1.12l0,2.72q0,.09-.12.09h-4.92v7a.11.11,0,0,1-.12.12Z"/><path class="cls-5" d="M208.31,404.71l3-16.48a.12.12,0,0,1,.12-.1h3.48a.11.11,0,0,1,.12.1l2.86,16.48c0,.08,0,.12-.1.12H215.1q-.1,0-.12-.12l-.27-1.75h-3.26l-.26,1.75q0,.12-.12.12H208.4Q208.31,404.83,208.31,404.71Zm3.62-4.32h2.3l-1-6.74-.14-.89-.1.89Z"/><path class="cls-5" d="M219.47,404.83c-.07,0-.1,0-.1-.12l0-16.46q0-.12.09-.12h2.69c.07,0,.1,0,.1.12v5.69l3.77-5.71a.18.18,0,0,1,.16-.1H229c.07,0,.08,0,0,.1l-4.15,6.62,4.66,9.89q0,.09-.12.09H226.5a.14.14,0,0,1-.15-.09l-3.24-7.06-.84,1.32v5.71q0,.12-.09.12Z"/><path class="cls-5" d="M230.72,404.83q-.09,0-.09-.12l0-16.48c0-.07,0-.1.1-.1h7.7c.06,0,.1,0,.1.12v2.69c0,.06,0,.09-.1.09h-4.92v3.75h4.92c.06,0,.1,0,.1.09l0,2.72c0,.06,0,.09-.1.09h-4.94v4.2h4.94c.07,0,.1,0,.1.12v2.74c0,.06,0,.09-.1.09Z"/><path class="cls-5" d="M131.3,432.6a.11.11,0,0,1-.12-.12l0-16.48c0-.07,0-.1.1-.1h4.61a4.63,4.63,0,0,1,3.49,1.34,5.11,5.11,0,0,1,1.28,3.65,6.09,6.09,0,0,1-.67,2.95,4.88,4.88,0,0,1-1.75,1.92,4.35,4.35,0,0,1-2.35.68h-1.83v6a.11.11,0,0,1-.12.12Zm2.81-9.07h1.83a1.65,1.65,0,0,0,1.33-.73,3.07,3.07,0,0,0,.56-1.91,2.27,2.27,0,0,0-.5-1.53,1.72,1.72,0,0,0-1.39-.6l-1.83,0Z"/><path class="cls-5" d="M140.33,432.48l3-16.48a.12.12,0,0,1,.12-.1h3.49a.1.1,0,0,1,.11.1l2.86,16.48c0,.08,0,.12-.09.12h-2.67q-.09,0-.12-.12l-.26-1.75h-3.27l-.26,1.75q0,.12-.12.12h-2.67Q140.33,432.6,140.33,432.48Zm3.62-4.32h2.31l-1-6.74-.14-.89-.1.89Z"/><path class="cls-5" d="M155,432.84a4.4,4.4,0,0,1-2.36-.66,5,5,0,0,1-1.71-1.75,4.74,4.74,0,0,1-.63-2.41v-1.1a.11.11,0,0,1,.12-.12h2.69q.09,0,.09.12V428a1.94,1.94,0,0,0,.53,1.36,1.7,1.7,0,0,0,1.27.56,1.64,1.64,0,0,0,1.27-.58,1.88,1.88,0,0,0,.53-1.34c0-.59-.38-1.1-1.15-1.54l-1.2-.67-1.53-.86a5,5,0,0,1-2-1.93,5.36,5.36,0,0,1-.64-2.63A4.55,4.55,0,0,1,151,418a4.83,4.83,0,0,1,1.72-1.7,4.54,4.54,0,0,1,2.31-.62,4.43,4.43,0,0,1,2.34.64A4.8,4.8,0,0,1,159,418a4.61,4.61,0,0,1,.63,2.39v2a.08.08,0,0,1-.09.09h-2.69c-.06,0-.1,0-.1-.09l0-2a1.86,1.86,0,0,0-.53-1.37,1.72,1.72,0,0,0-1.25-.53,1.67,1.67,0,0,0-1.27.57,1.88,1.88,0,0,0-.53,1.33,2.36,2.36,0,0,0,.34,1.32,3.23,3.23,0,0,0,1.22,1l.47.25c.23.12.49.25.76.41l.73.39.39.22a5.68,5.68,0,0,1,1.9,1.64,4,4,0,0,1,.7,2.39,4.85,4.85,0,0,1-.64,2.46,4.78,4.78,0,0,1-1.7,1.73A4.59,4.59,0,0,1,155,432.84Z"/><path class="cls-5" d="M163.59,432.6q-.1,0-.12-.12L160.15,416c0-.07,0-.1.1-.1H163a.12.12,0,0,1,.12.1l2,11L167,416a.11.11,0,0,1,.12-.1h2.69c.08,0,.11,0,.09.1l-3.26,16.48q0,.12-.12.12Z"/><path class="cls-5" d="M171.38,432.6q-.09,0-.09-.12l.05-16.48c0-.07,0-.1.09-.1h4.85a4.63,4.63,0,0,1,2.39.64,4.81,4.81,0,0,1,1.74,1.7,4.58,4.58,0,0,1,.65,2.41,4.47,4.47,0,0,1-.27,1.6,4.82,4.82,0,0,1-.62,1.2,4.16,4.16,0,0,1-.65.73,4.92,4.92,0,0,1,1.3,3.38l0,4.92a.11.11,0,0,1-.12.12H178c-.07,0-.1,0-.1-.07v-5a2.1,2.1,0,0,0-.61-1.5,2,2,0,0,0-1.5-.63h-1.58l0,7.05q0,.12-.09.12Zm2.84-10.05h2.06a1.87,1.87,0,0,0,1.32-.55,1.82,1.82,0,0,0,.58-1.35,1.78,1.78,0,0,0-.57-1.32,1.82,1.82,0,0,0-1.33-.55h-2.06Z"/><path class="cls-5" d="M182,432.48,185,416a.11.11,0,0,1,.12-.1h3.48a.12.12,0,0,1,.12.1l2.85,16.48q0,.12-.09.12h-2.67q-.09,0-.12-.12l-.26-1.75h-3.27l-.26,1.75q0,.12-.12.12h-2.66C182.07,432.6,182,432.56,182,432.48Zm3.63-4.32H188l-1-6.74-.14-.89-.09.89Z"/><path class="cls-5" d="M193.22,432.6a.11.11,0,0,1-.12-.12l0-16.48c0-.07,0-.1.09-.1h2.69c.07,0,.1,0,.1.1l0,16.48q0,.12-.09.12Z"/><path class="cls-5" d="M198.24,432.6c-.06,0-.1,0-.1-.09V429.8a.09.09,0,0,1,.1-.1H201c.07,0,.1,0,.1.1v2.71c0,.06,0,.09-.1.09Z"/><path class="cls-5" d="M203.14,432.6a.11.11,0,0,1-.12-.12l0-16.48a.09.09,0,0,1,.1-.1h7.68c.08,0,.12,0,.12.1v2.71c0,.06,0,.09-.1.09h-4.92v3.72h4.92c.07,0,.1,0,.1.12l0,2.72q0,.09-.12.09h-4.92v7a.11.11,0,0,1-.12.12Z"/><path class="cls-5" d="M213.46,432.6c-.07,0-.1,0-.1-.12l0-16.48c0-.07,0-.1.09-.1h4.85a4.6,4.6,0,0,1,2.39.64,4.81,4.81,0,0,1,1.74,1.7,4.58,4.58,0,0,1,.65,2.41,4.47,4.47,0,0,1-.27,1.6,4.82,4.82,0,0,1-.62,1.2,4.16,4.16,0,0,1-.65.73,4.87,4.87,0,0,1,1.3,3.38l0,4.92a.11.11,0,0,1-.12.12h-2.71c-.06,0-.1,0-.1-.07v-5a2.1,2.1,0,0,0-.61-1.5,2,2,0,0,0-1.5-.63h-1.58l0,7.05q0,.12-.09.12Zm2.83-10.05h2.06a1.87,1.87,0,0,0,1.32-.55,1.84,1.84,0,0,0,0-2.67,1.82,1.82,0,0,0-1.33-.55h-2.06Z"/><path class="cls-5" d="M131.4,461.4c-.13,0-.19,0-.19-.16l0-16.35c0-.13.07-.19.2-.19h2.16l4.05,9.46-.12-9.27c0-.13.08-.19.22-.19h2.37c.1,0,.15.06.15.19l0,16.37c0,.1,0,.14-.12.14H138l-4.15-8.83.17,8.64c0,.13-.07.19-.22.19Z"/><path class="cls-5" d="M142.42,461.4c-.07,0-.1,0-.1-.12l0-16.48a.09.09,0,0,1,.1-.1h7.7c.07,0,.1,0,.1.12v2.69c0,.06,0,.09-.1.09h-4.92v3.75h4.92c.07,0,.1,0,.1.09l0,2.72a.08.08,0,0,1-.09.09h-4.95v4.2h4.95q.09,0,.09.12v2.74a.08.08,0,0,1-.09.09Z"/><path class="cls-5" d="M152.52,461.4a.11.11,0,0,1-.12-.12l0-16.48c0-.07,0-.1.1-.1h4.6a4.6,4.6,0,0,1,3.49,1.34,5.07,5.07,0,0,1,1.29,3.65,6.21,6.21,0,0,1-.67,2.95,5,5,0,0,1-1.75,1.92,4.38,4.38,0,0,1-2.36.68h-1.82v6a.11.11,0,0,1-.12.12Zm2.81-9.07h1.82a1.63,1.63,0,0,0,1.33-.73,3,3,0,0,0,.57-1.91,2.33,2.33,0,0,0-.5-1.53,1.74,1.74,0,0,0-1.4-.6l-1.82,0Z"/><path class="cls-5" d="M161.55,461.28l3-16.48a.12.12,0,0,1,.12-.1h3.48a.12.12,0,0,1,.12.1l2.86,16.48c0,.08,0,.12-.1.12h-2.66q-.1,0-.12-.12l-.27-1.75h-3.26l-.27,1.75q0,.12-.12.12h-2.66Q161.55,461.4,161.55,461.28Zm3.62-4.32h2.3l-1-6.74-.15-.89-.09.89Z"/><path class="cls-5" d="M176.21,461.64a4.43,4.43,0,0,1-2.37-.66,4.92,4.92,0,0,1-1.7-1.75,4.74,4.74,0,0,1-.63-2.41v-1.1a.11.11,0,0,1,.12-.12h2.68c.07,0,.1,0,.1.12v1.1a1.94,1.94,0,0,0,.53,1.36,1.68,1.68,0,0,0,1.27.56,1.65,1.65,0,0,0,1.27-.58,1.92,1.92,0,0,0,.53-1.34c0-.59-.38-1.1-1.15-1.54l-1.2-.67-1.54-.86a5,5,0,0,1-2-1.93,5.36,5.36,0,0,1-.64-2.63,4.55,4.55,0,0,1,.65-2.41,4.8,4.8,0,0,1,1.71-1.7,4.58,4.58,0,0,1,2.32-.62,4.43,4.43,0,0,1,2.34.64,4.77,4.77,0,0,1,1.7,1.7,4.53,4.53,0,0,1,.64,2.39v2c0,.06,0,.09-.1.09H178.1a.08.08,0,0,1-.09-.09l0-2a1.85,1.85,0,0,0-.52-1.37,1.73,1.73,0,0,0-1.25-.53,1.66,1.66,0,0,0-1.27.57,1.88,1.88,0,0,0-.53,1.33,2.36,2.36,0,0,0,.34,1.32,3.23,3.23,0,0,0,1.22,1l.47.25c.23.12.48.25.75.41l.73.39c.22.11.35.19.4.22a5.78,5.78,0,0,1,1.9,1.64,4,4,0,0,1,.69,2.39,4.76,4.76,0,0,1-2.34,4.19A4.56,4.56,0,0,1,176.21,461.64Z"/><path class="cls-5" d="M187,461.64a4.45,4.45,0,0,1-2.39-.66,4.76,4.76,0,0,1-1.69-1.76,4.91,4.91,0,0,1-.63-2.47l0-7.49a4.8,4.8,0,0,1,2.29-4.16,4.68,4.68,0,0,1,4.76,0,4.85,4.85,0,0,1,2.31,4.18v1.1c0,.07,0,.1-.1.1H188.9c-.06,0-.09,0-.09-.1v-1.1a2,2,0,0,0-.52-1.37,1.65,1.65,0,0,0-1.28-.57,1.56,1.56,0,0,0-1.32.58,2.15,2.15,0,0,0-.46,1.36v7.49a2,2,0,0,0,.52,1.44,1.64,1.64,0,0,0,1.26.55,1.59,1.59,0,0,0,1.28-.61,2.07,2.07,0,0,0,.52-1.38v-1.11a.08.08,0,0,1,.09-.09h2.72a.08.08,0,0,1,.09.09v1.11a4.87,4.87,0,0,1-2.33,4.23A4.36,4.36,0,0,1,187,461.64Z"/><path class="cls-5" d="M193.56,461.4c-.06,0-.1,0-.1-.12l0-16.48c0-.07,0-.1.1-.1h4.85a4.57,4.57,0,0,1,2.38.64,4.81,4.81,0,0,1,1.74,1.7,4.49,4.49,0,0,1,.65,2.41,4.71,4.71,0,0,1-.26,1.6,5.19,5.19,0,0,1-.63,1.2,4.17,4.17,0,0,1-.64.73,4.91,4.91,0,0,1,1.29,3.38l0,4.92a.11.11,0,0,1-.12.12h-2.72c-.06,0-.09,0-.09-.07v-5a2.14,2.14,0,0,0-.61-1.5,2,2,0,0,0-1.5-.63h-1.59l0,7c0,.08,0,.12-.1.12Zm2.83-10h2.07a1.91,1.91,0,0,0,1.32-.55,1.86,1.86,0,0,0,0-2.67,1.84,1.84,0,0,0-1.33-.55h-2.07Z"/><path class="cls-5" d="M209.35,461.64A4.4,4.4,0,0,1,207,461a5.06,5.06,0,0,1-1.72-1.75,4.66,4.66,0,0,1-.65-2.41l0-7.61a4.68,4.68,0,0,1,.63-2.4,5,5,0,0,1,1.72-1.73,4.49,4.49,0,0,1,2.35-.64,4.39,4.39,0,0,1,2.35.64,5,5,0,0,1,1.7,1.73,4.68,4.68,0,0,1,.63,2.4l0,7.61a4.75,4.75,0,0,1-.64,2.41,4.92,4.92,0,0,1-1.7,1.75A4.43,4.43,0,0,1,209.35,461.64Zm0-2.9a1.67,1.67,0,0,0,1.26-.59,1.9,1.9,0,0,0,.54-1.33l0-7.61a1.9,1.9,0,0,0-.51-1.34,1.63,1.63,0,0,0-1.27-.55,1.72,1.72,0,0,0-1.27.54,1.86,1.86,0,0,0-.53,1.35v7.61a1.94,1.94,0,0,0,.53,1.36A1.7,1.7,0,0,0,209.35,458.74Z"/><path class="cls-5" d="M216,461.4a.11.11,0,0,1-.12-.12l0-16.48a.09.09,0,0,1,.1-.1h2.69c.06,0,.09,0,.09.1l0,16.48c0,.08,0,.12-.1.12Z"/><path class="cls-5" d="M221,461.4c-.07,0-.1,0-.1-.12L221,444.8c0-.07,0-.1.09-.1h4.85a4.6,4.6,0,0,1,2.39.64A4.81,4.81,0,0,1,230,447a4.58,4.58,0,0,1,.65,2.41,4.47,4.47,0,0,1-.27,1.6,4.82,4.82,0,0,1-.62,1.2,4.16,4.16,0,0,1-.65.73,4.87,4.87,0,0,1,1.3,3.38l0,4.92a.11.11,0,0,1-.12.12h-2.71c-.06,0-.1,0-.1-.07v-5a2.1,2.1,0,0,0-.61-1.5,2,2,0,0,0-1.5-.63h-1.58l0,7q0,.12-.09.12Zm2.83-10h2.06a1.87,1.87,0,0,0,1.32-.55,1.84,1.84,0,0,0,0-2.67,1.82,1.82,0,0,0-1.33-.55h-2.06Z"/><path class="cls-5" d="M232.58,461.4q-.09,0-.09-.12l0-16.48c0-.07,0-.1.1-.1h7.7c.07,0,.1,0,.1.12v2.69c0,.06,0,.09-.1.09h-4.92v3.75h4.92c.07,0,.1,0,.1.09l0,2.72a.08.08,0,0,1-.09.09h-5v4.2h5q.09,0,.09.12v2.74a.08.08,0,0,1-.09.09Z"/><path class="cls-5" d="M242.66,461.4a.08.08,0,0,1-.09-.09V458.6c0-.07,0-.1.09-.1h2.72c.06,0,.09,0,.09.1v2.71a.08.08,0,0,1-.09.09Z"/><path class="cls-5" d="M251.62,461.64a4.45,4.45,0,0,1-2.39-.66,4.76,4.76,0,0,1-1.69-1.76,4.91,4.91,0,0,1-.63-2.47l0-7.49a4.8,4.8,0,0,1,2.29-4.16,4.68,4.68,0,0,1,4.76,0,4.85,4.85,0,0,1,2.31,4.18v1.1a.09.09,0,0,1-.1.1h-2.69c-.06,0-.09,0-.09-.1v-1.1a2,2,0,0,0-.52-1.37,1.65,1.65,0,0,0-1.28-.57,1.56,1.56,0,0,0-1.32.58,2.15,2.15,0,0,0-.46,1.36v7.49a2,2,0,0,0,.52,1.44,1.64,1.64,0,0,0,1.26.55,1.59,1.59,0,0,0,1.28-.61,2.12,2.12,0,0,0,.52-1.38v-1.11a.08.08,0,0,1,.09-.09h2.71c.07,0,.1,0,.1.09v1.11A4.93,4.93,0,0,1,254,461,4.36,4.36,0,0,1,251.62,461.64Z"/><path class="cls-5" d="M262.51,461.64a4.4,4.4,0,0,1-2.36-.66,5,5,0,0,1-1.72-1.75,4.66,4.66,0,0,1-.65-2.41l0-7.61a4.68,4.68,0,0,1,.63-2.4,5,5,0,0,1,1.72-1.73,4.49,4.49,0,0,1,2.35-.64,4.39,4.39,0,0,1,2.35.64,4.91,4.91,0,0,1,1.69,1.73,4.59,4.59,0,0,1,.64,2.4l0,7.61a4.75,4.75,0,0,1-.64,2.41,4.92,4.92,0,0,1-1.7,1.75A4.43,4.43,0,0,1,262.51,461.64Zm0-2.9a1.67,1.67,0,0,0,1.26-.59,1.9,1.9,0,0,0,.54-1.33l0-7.61a1.9,1.9,0,0,0-.51-1.34,1.63,1.63,0,0,0-1.27-.55,1.7,1.7,0,0,0-1.27.54,1.86,1.86,0,0,0-.53,1.35v7.61a1.94,1.94,0,0,0,.53,1.36A1.68,1.68,0,0,0,262.51,458.74Z"/><path class="cls-5" d="M269.13,461.4q-.09,0-.09-.12l0-16.48c0-.07,0-.1.09-.1h2.93a.21.21,0,0,1,.17.1l2.18,3.16,2.19-3.16a.19.19,0,0,1,.16-.1h3c.06,0,.09,0,.09.1l.05,16.48c0,.08,0,.12-.1.12H277.1q-.09,0-.09-.12L277,449l-2.52,3.65L272,449l0,12.24q0,.12-.09.12Z"/><path class="cls-5" d="M131.28,490.2c-.06,0-.1,0-.1-.12l0-16.48c0-.07,0-.1.12-.1H134c.08,0,.12,0,.12.1l0,6.52h3.6V473.6c0-.07,0-.1.1-.1h2.66c.08,0,.12,0,.12.1l.05,16.48a.11.11,0,0,1-.12.12h-2.69a.11.11,0,0,1-.12-.12V483h-3.6v7.05c0,.08,0,.12-.1.12Z"/><path class="cls-5" d="M141.77,490.08l3-16.48a.11.11,0,0,1,.12-.1h3.47a.12.12,0,0,1,.13.1l2.85,16.48c0,.08,0,.12-.1.12h-2.66q-.09,0-.12-.12l-.26-1.75h-3.27l-.26,1.75q0,.12-.12.12h-2.66C141.8,490.2,141.77,490.16,141.77,490.08Zm3.62-4.32h2.31l-1-6.74-.14-.89-.1.89Z"/><path class="cls-5" d="M152.93,490.2c-.07,0-.1,0-.1-.12l0-16.48c0-.07,0-.1.12-.1h2.66c.08,0,.12,0,.12.1l0,6.52h3.6V473.6c0-.07,0-.1.09-.1h2.67c.08,0,.12,0,.12.1l0,16.48a.11.11,0,0,1-.12.12h-2.68a.11.11,0,0,1-.12-.12V483h-3.6v7.05c0,.08,0,.12-.1.12Z"/><path class="cls-5" d="M163.42,490.08l3-16.48a.12.12,0,0,1,.12-.1H170a.11.11,0,0,1,.12.1L173,490.08c0,.08,0,.12-.1.12h-2.66q-.11,0-.12-.12l-.27-1.75h-3.26l-.26,1.75q0,.12-.12.12h-2.67Q163.42,490.2,163.42,490.08Zm3.62-4.32h2.3l-1-6.74-.14-.89-.1.89Z"/><path class="cls-5" d="M174.58,490.2c-.07,0-.1,0-.1-.12l0-16.48c0-.07,0-.1.12-.1h2.67c.08,0,.12,0,.12.1l0,6.52H181V473.6a.09.09,0,0,1,.1-.1h2.66c.08,0,.12,0,.12.1l0,16.48a.11.11,0,0,1-.12.12H181.1a.11.11,0,0,1-.12-.12V483h-3.6v7.05q0,.12-.09.12Z"/><path class="cls-5" d="M185.06,490.08l3-16.48a.12.12,0,0,1,.12-.1h3.48a.12.12,0,0,1,.12.1l2.86,16.48c0,.08,0,.12-.1.12h-2.66q-.11,0-.12-.12l-.27-1.75h-3.26l-.27,1.75q0,.12-.12.12h-2.66C185.1,490.2,185.06,490.16,185.06,490.08Zm3.63-4.32H191L190,479l-.15-.89-.09.89Z"/><path class="cls-5" d="M196.22,490.2a.08.08,0,0,1-.09-.09V487.4c0-.07,0-.1.09-.1h2.72c.06,0,.09,0,.09.1v2.71a.08.08,0,0,1-.09.09Z"/><path class="cls-5" d="M201.12,490.2a.11.11,0,0,1-.12-.12l.05-16.48c0-.07,0-.1.09-.1h7.68c.08,0,.12,0,.12.1v2.71a.08.08,0,0,1-.09.09h-4.92v3.72h4.92q.09,0,.09.12l0,2.72q0,.09-.12.09h-4.92v7a.11.11,0,0,1-.12.12Z"/><path class="cls-5" d="M211.44,490.2c-.07,0-.1,0-.1-.12l0-16.46c0-.08,0-.12.1-.12h2.68c.07,0,.1,0,.1.12v5.69L218,473.6a.2.2,0,0,1,.17-.1H221c.06,0,.08,0,0,.1l-4.15,6.62,4.66,9.89q0,.09-.12.09h-2.93c-.08,0-.13,0-.14-.09l-3.24-7.06-.84,1.32v5.71c0,.08,0,.12-.1.12Z"/></svg>