<svg id="Calque_1" data-name="Calque 1" xmlns="http://www.w3.org/2000/svg" viewBox="0 0 179.84 246.83"><defs><style>.cls-1{fill:#f5f4f2;}.cls-2,.cls-3{fill:#1b2439;}.cls-3{opacity:0.1;}.cls-4{fill:#26b0bd;}</style></defs><title>Logo-mobile</title><rect class="cls-1" x="43.83" y="41.14" width="95.64" height="122.62" rx="10"/><path class="cls-2" d="M129.47,165.76H53.83a12,12,0,0,1-12-12V51.14a12,12,0,0,1,12-12h75.64a12,12,0,0,1,12,12V153.76A12,12,0,0,1,129.47,165.76ZM53.83,43.14a8,8,0,0,0-8,8V153.76a8,8,0,0,0,8,8h75.64a8,8,0,0,0,8-8V51.14a8,8,0,0,0-8-8Z"/><rect class="cls-3" x="62.09" y="55.82" width="19.02" height="28.57" rx="4.25" transform="translate(141.71 -1.5) rotate(90)"/><path class="cls-3" d="M125.81,64.06H95.29a2,2,0,0,1,0-4h30.52a2,2,0,0,1,0,4Z"/><path class="cls-3" d="M125.81,96.52H57.32a2,2,0,0,1,0-4h68.49a2,2,0,0,1,0,4Z"/><path class="cls-3" d="M125.81,112.75H57.32a2,2,0,1,1,0-4h68.49a2,2,0,0,1,0,4Z"/><path class="cls-3" d="M125.81,129H57.32a2,2,0,1,1,0-4h68.49a2,2,0,0,1,0,4Z"/><path class="cls-3" d="M125.81,80.29H95.29a2,2,0,0,1,0-4h30.52a2,2,0,0,1,0,4Z"/><path class="cls-3" d="M125.81,145.2H57.32a2,2,0,1,1,0-4h68.49a2,2,0,0,1,0,4Z"/><path class="cls-4" d="M20.21,51.12a4,4,0,0,1-4-4V27.17a11.06,11.06,0,0,1,11-11h20a4,4,0,0,1,0,8h-20a3,3,0,0,0-3,3V47.12A4,4,0,0,1,20.21,51.12Z"/><path class="cls-4" d="M164.31,51.12a4,4,0,0,1-4-4v-20a3,3,0,0,0-3-3h-20a4,4,0,0,1,0-8h20a11,11,0,0,1,11,11v20A4,4,0,0,1,164.31,51.12Z"/><path class="cls-4" d="M47.94,188.38H27.81a10.88,10.88,0,0,1-10.87-10.86V157.39a4,4,0,0,1,8,0v20.13a2.87,2.87,0,0,0,2.87,2.86H47.94a4,4,0,0,1,0,8Z"/><path class="cls-4" d="M158.1,188.38H138a4,4,0,1,1,0-8H158.1a2.94,2.94,0,0,0,2.94-2.94V157.39a4,4,0,0,1,8,0v20.05A11,11,0,0,1,158.1,188.38Z"/><path class="cls-4" d="M166.86,107.26h-148a4,4,0,0,1,0-8h148a4,4,0,0,1,0,8Z"/><path class="cls-2" d="M16.78,234c-.22,0-.34-.1-.34-.29l0-28.6a.3.3,0,0,1,.34-.34h3.78l7.1,16.55-.21-16.21c0-.23.12-.34.37-.34h4.16c.17,0,.25.11.25.34l.05,28.64c0,.17-.07.25-.21.25h-3.7l-7.27-15.45.3,15.12c0,.22-.13.33-.38.33Z"/><path class="cls-2" d="M39.21,234c-.11,0-.17-.07-.17-.21l0-28.85a.15.15,0,0,1,.17-.17H52.73c.11,0,.17.07.17.21v4.7a.15.15,0,0,1-.17.17H44.12v6.55h8.61a.15.15,0,0,1,.17.17l0,4.75a.15.15,0,0,1-.17.17H44.12v7.35h8.65c.12,0,.17.07.17.21v4.78c0,.12,0,.17-.17.17Z"/><path class="cls-2" d="M63.69,234q-.16,0-.21-.21L58.53,205c0-.11,0-.17.12-.17h4.71a.2.2,0,0,1,.21.17l2.69,19L69,205a.23.23,0,0,1,.25-.17h3.78a.2.2,0,0,1,.21.17l2.73,19,2.73-19a.2.2,0,0,1,.21-.17H83.6c.14,0,.2.06.17.17l-5,28.85a.68.68,0,0,1-.21.21H73.48q-.12,0-.21-.21l-2.14-15.08L69,233.8q0,.21-.21.21Z"/><path class="cls-2" d="M96,234.43a7.68,7.68,0,0,1-4.13-1.15,8.71,8.71,0,0,1-3-3.07A8.24,8.24,0,0,1,87.76,226v-1.93a.19.19,0,0,1,.21-.21h4.7c.12,0,.17.07.17.21V226a3.32,3.32,0,0,0,.93,2.37,3,3,0,0,0,4.45,0,3.38,3.38,0,0,0,.92-2.35c0-1-.67-1.93-2-2.69L95,222.13l-2.69-1.52a8.75,8.75,0,0,1-3.42-3.38,9.33,9.33,0,0,1-1.12-4.6,8,8,0,0,1,1.14-4.22,8.42,8.42,0,0,1,3-3,8.1,8.1,0,0,1,8.15,0,8.53,8.53,0,0,1,3,3,8,8,0,0,1,1.11,4.17v3.45a.15.15,0,0,1-.17.17h-4.7a.15.15,0,0,1-.17-.17l0-3.45a3.26,3.26,0,0,0-.92-2.39,3,3,0,0,0-2.19-.92,2.94,2.94,0,0,0-2.22,1,3.3,3.3,0,0,0-.93,2.33,4.21,4.21,0,0,0,.59,2.31,5.66,5.66,0,0,0,2.14,1.77l.82.44c.41.21.85.45,1.32.71l1.29.7.69.37a10.22,10.22,0,0,1,3.32,2.88,7,7,0,0,1,1.21,4.18,8.44,8.44,0,0,1-1.11,4.31,8.3,8.3,0,0,1-3,3A8,8,0,0,1,96,234.43Z"/><path class="cls-2" d="M118,234.43a7.8,7.8,0,0,1-4.18-1.15,8.52,8.52,0,0,1-3-3.09,8.62,8.62,0,0,1-1.09-4.33l0-13.1a8.44,8.44,0,0,1,4-7.29,8.2,8.2,0,0,1,8.34,0,8.45,8.45,0,0,1,4,7.31v1.93a.15.15,0,0,1-.17.17h-4.7a.15.15,0,0,1-.17-.17v-1.93a3.47,3.47,0,0,0-.9-2.39,2.87,2.87,0,0,0-2.25-1,2.73,2.73,0,0,0-2.31,1,3.75,3.75,0,0,0-.8,2.37v13.1a3.54,3.54,0,0,0,.91,2.52,2.87,2.87,0,0,0,2.2,1,2.83,2.83,0,0,0,2.25-1.07,3.65,3.65,0,0,0,.9-2.42v-1.93a.15.15,0,0,1,.17-.17h4.75c.11,0,.16.06.16.17v1.93a8.54,8.54,0,0,1-1.11,4.33,8.69,8.69,0,0,1-3,3.09A7.68,7.68,0,0,1,118,234.43Z"/><path class="cls-2" d="M130.94,233.8l5.2-28.85a.2.2,0,0,1,.21-.17h6.09a.19.19,0,0,1,.21.17l5,28.85c0,.14,0,.21-.17.21h-4.66q-.16,0-.21-.21l-.46-3.06h-5.71L136,233.8q0,.21-.21.21H131.1C131,234,130.94,233.94,130.94,233.8Zm6.34-7.56h4l-1.72-11.8-.25-1.55-.17,1.55Z"/><path class="cls-2" d="M153.83,234c-.23,0-.34-.1-.34-.29l0-28.6c0-.23.11-.34.33-.34h3.78l7.1,16.55-.21-16.21c0-.23.13-.34.38-.34H169c.17,0,.25.11.25.34l0,28.64c0,.17-.07.25-.21.25h-3.69l-7.27-15.45.29,15.12c0,.22-.12.33-.37.33Z"/></svg>