<svg id="Calque_1" data-name="Calque 1" xmlns="http://www.w3.org/2000/svg" viewBox="0 0 179.84 196.07"><defs><style>.cls-1{fill:#f5f4f2;}.cls-2,.cls-3{fill:#1b2439;}.cls-3{opacity:0.1;}.cls-4{fill:#26b0bd;}</style></defs><title>logo icone</title><rect class="cls-1" x="43.39" y="37.64" width="95.64" height="122.62" rx="10"/><path class="cls-2" d="M129,162.25H53.39a12,12,0,0,1-12-12V47.63a12,12,0,0,1,12-12H129a12,12,0,0,1,12,12V150.25A12,12,0,0,1,129,162.25ZM53.39,39.63a8,8,0,0,0-8,8V150.25a8,8,0,0,0,8,8H129a8,8,0,0,0,8-8V47.63a8,8,0,0,0-8-8Z"/><rect class="cls-3" x="61.65" y="52.31" width="19.02" height="28.57" rx="4.25" transform="translate(137.76 -4.56) rotate(90)"/><path class="cls-3" d="M125.37,60.55H94.84a2,2,0,0,1,0-4h30.53a2,2,0,0,1,0,4Z"/><path class="cls-3" d="M125.37,93H56.87a2,2,0,1,1,0-4h68.5a2,2,0,0,1,0,4Z"/><path class="cls-3" d="M125.37,109.24H56.87a2,2,0,1,1,0-4h68.5a2,2,0,0,1,0,4Z"/><path class="cls-3" d="M125.37,125.47H56.87a2,2,0,0,1,0-4h68.5a2,2,0,0,1,0,4Z"/><path class="cls-3" d="M125.37,76.78H94.84a2,2,0,0,1,0-4h30.53a2,2,0,0,1,0,4Z"/><path class="cls-3" d="M125.37,141.69H56.87a2,2,0,0,1,0-4h68.5a2,2,0,0,1,0,4Z"/><path class="cls-4" d="M19.77,47.61a4,4,0,0,1-4-4V23.66a11,11,0,0,1,11-11h20a4,4,0,0,1,0,8H26.81a3,3,0,0,0-3,3v20A4,4,0,0,1,19.77,47.61Z"/><path class="cls-4" d="M163.86,47.61a4,4,0,0,1-4-4v-20a3,3,0,0,0-3-3h-20a4,4,0,1,1,0-8h20a11,11,0,0,1,11,11v20A4,4,0,0,1,163.86,47.61Z"/><path class="cls-4" d="M47.49,184.87H27.36A10.87,10.87,0,0,1,16.5,174V153.88a4,4,0,0,1,8,0V174a2.86,2.86,0,0,0,2.86,2.86H47.49a4,4,0,1,1,0,8Z"/><path class="cls-4" d="M157.65,184.87H137.6a4,4,0,0,1,0-8h20.05a2.94,2.94,0,0,0,2.94-2.94V153.88a4,4,0,0,1,8,0v20.05A11,11,0,0,1,157.65,184.87Z"/><path class="cls-4" d="M166.42,103.75h-148a4,4,0,1,1,0-8h148a4,4,0,0,1,0,8Z"/></svg>