<svg id="Calque_1" data-name="Calque 1" xmlns="http://www.w3.org/2000/svg" viewBox="0 0 245.11 73.97"><defs><style>.cls-1{fill:#f5f4f2;}.cls-2,.cls-3{fill:#1b2439;}.cls-3{opacity:0.1;}.cls-4{fill:#26b0bd;}</style></defs><title>logo web</title><rect class="cls-1" x="17.62" y="16.34" width="31.98" height="41" rx="10"/><path class="cls-2" d="M46.26,58H21a4,4,0,0,1-4-4V19.68a4,4,0,0,1,4-4H46.26a4,4,0,0,1,4,4V54A4,4,0,0,1,46.26,58ZM21,17a2.68,2.68,0,0,0-2.68,2.67V54A2.68,2.68,0,0,0,21,56.67H46.26A2.68,2.68,0,0,0,48.94,54V19.68A2.68,2.68,0,0,0,46.26,17Z"/><rect class="cls-3" x="23.73" y="21.24" width="6.36" height="9.55" rx="2.79" transform="translate(52.93 -0.89) rotate(90)"/><path class="cls-3" d="M45,24H34.83a.67.67,0,0,1,0-1.34H45A.67.67,0,1,1,45,24Z"/><path class="cls-3" d="M45,34.85H22.13a.67.67,0,0,1,0-1.33H45a.67.67,0,1,1,0,1.33Z"/><path class="cls-3" d="M45,40.28H22.13a.67.67,0,0,1,0-1.34H45a.67.67,0,1,1,0,1.34Z"/><path class="cls-3" d="M45,45.71H22.13a.67.67,0,0,1,0-1.34H45a.67.67,0,0,1,0,1.34Z"/><path class="cls-3" d="M45,29.43H34.83a.67.67,0,1,1,0-1.34H45a.67.67,0,0,1,0,1.34Z"/><path class="cls-3" d="M45,51.13H22.13a.67.67,0,0,1-.66-.67.66.66,0,0,1,.66-.66H45a.66.66,0,0,1,.67.66A.67.67,0,0,1,45,51.13Z"/><path class="cls-4" d="M9.73,19.67a1.33,1.33,0,0,1-1.34-1.33V11.67A3.7,3.7,0,0,1,12.08,8h6.67a1.34,1.34,0,0,1,0,2.68H12.08a1,1,0,0,0-1,1v6.67A1.32,1.32,0,0,1,9.73,19.67Z"/><path class="cls-4" d="M57.91,19.67a1.33,1.33,0,0,1-1.34-1.33V11.66a1,1,0,0,0-1-1H48.88a1.34,1.34,0,0,1,0-2.68h6.68a3.7,3.7,0,0,1,3.69,3.69v6.68A1.33,1.33,0,0,1,57.91,19.67Z"/><path class="cls-4" d="M19,65.57H12.27a3.64,3.64,0,0,1-3.64-3.63V55.21a1.34,1.34,0,0,1,2.68,0v6.73a1,1,0,0,0,1,1H19a1.34,1.34,0,0,1,0,2.67Z"/><path class="cls-4" d="M55.83,65.57h-6.7a1.34,1.34,0,1,1,0-2.67h6.7a1,1,0,0,0,1-1v-6.7a1.34,1.34,0,1,1,2.67,0v6.7A3.66,3.66,0,0,1,55.83,65.57Z"/><path class="cls-4" d="M58.76,38.44H9.26a1.34,1.34,0,1,1,0-2.67h49.5a1.34,1.34,0,1,1,0,2.67Z"/><path class="cls-2" d="M75.19,51.8c-.24,0-.35-.1-.35-.31l0-30a.31.31,0,0,1,.35-.35h4L86.55,38.5l-.22-17c0-.23.14-.35.4-.35h4.36c.18,0,.27.12.27.35l0,30.05c0,.17-.08.26-.22.26H87.3L79.68,35.59,80,51.45c0,.23-.13.35-.4.35Z"/><path class="cls-2" d="M98.71,51.8c-.12,0-.18-.07-.18-.22l0-30.26c0-.12.06-.18.17-.18H112.9c.11,0,.17.07.17.22v4.93c0,.12-.06.18-.17.18h-9v6.87h9c.11,0,.17.06.17.18l.05,5c0,.11-.06.17-.18.17h-9.08v7.71h9.08c.12,0,.18.08.18.22v5a.16.16,0,0,1-.18.18Z"/><path class="cls-2" d="M124.39,51.8c-.12,0-.19-.07-.22-.22L119,21.32c0-.12,0-.18.13-.18H124a.21.21,0,0,1,.22.18l2.82,19.91L130,21.32a.23.23,0,0,1,.26-.18h4a.21.21,0,0,1,.22.18l2.86,19.91,2.86-19.91a.21.21,0,0,1,.22-.18h4.89q.22,0,.18.18l-5.24,30.26a.89.89,0,0,1-.22.22h-5.33c-.09,0-.16-.07-.22-.22l-2.25-15.82-2.25,15.82c0,.15-.1.22-.22.22Z"/><path class="cls-2" d="M158.27,52.24A8.09,8.09,0,0,1,153.93,51a9.11,9.11,0,0,1-3.13-3.22,8.59,8.59,0,0,1-1.16-4.42v-2a.19.19,0,0,1,.22-.22h4.93c.12,0,.18.07.18.22v2a3.57,3.57,0,0,0,1,2.49,3.1,3.1,0,0,0,2.34,1,3,3,0,0,0,2.33-1.06,3.49,3.49,0,0,0,1-2.46c0-1.09-.7-2-2.11-2.82l-2.2-1.24c-1-.55-1.94-1.08-2.82-1.58a9.21,9.21,0,0,1-3.59-3.55,9.85,9.85,0,0,1-1.17-4.82A8.4,8.4,0,0,1,150.87,25,8.85,8.85,0,0,1,154,21.84a8.31,8.31,0,0,1,4.25-1.14,8.18,8.18,0,0,1,4.29,1.17A8.91,8.91,0,0,1,165.69,25a8.41,8.41,0,0,1,1.17,4.39V33a.16.16,0,0,1-.18.18h-4.93a.16.16,0,0,1-.18-.18l0-3.61a3.37,3.37,0,0,0-1-2.51,3.18,3.18,0,0,0-4.63.06,3.49,3.49,0,0,0-1,2.45,4.44,4.44,0,0,0,.61,2.42,5.91,5.91,0,0,0,2.25,1.85c.15.09.43.24.86.46s.89.47,1.39.75l1.34.73a8,8,0,0,1,.73.4,10.51,10.51,0,0,1,3.48,3,7.35,7.35,0,0,1,1.27,4.39,8.86,8.86,0,0,1-1.16,4.51,8.65,8.65,0,0,1-3.13,3.17A8.31,8.31,0,0,1,158.27,52.24Z"/><path class="cls-2" d="M181.4,52.24A8.17,8.17,0,0,1,177,51a9,9,0,0,1-4.25-7.78l.05-13.74a8.89,8.89,0,0,1,1.12-4.43A8.78,8.78,0,0,1,177,21.87a8.54,8.54,0,0,1,8.75,0A8.9,8.9,0,0,1,190,29.51v2c0,.11-.06.17-.18.17h-4.93c-.12,0-.18-.06-.18-.17v-2a3.63,3.63,0,0,0-.95-2.51,3,3,0,0,0-2.35-1.06A2.89,2.89,0,0,0,179,27a4,4,0,0,0-.83,2.49V43.25a3.74,3.74,0,0,0,.94,2.65,3.08,3.08,0,0,0,2.32,1,2.94,2.94,0,0,0,2.35-1.12,3.86,3.86,0,0,0,.95-2.54v-2a.16.16,0,0,1,.18-.18h5c.11,0,.17.06.17.18v2a8.9,8.9,0,0,1-1.17,4.54,9.17,9.17,0,0,1-3.1,3.24A8,8,0,0,1,181.4,52.24Z"/><path class="cls-2" d="M194.92,51.58l5.46-30.26a.21.21,0,0,1,.22-.18H207a.21.21,0,0,1,.22.18l5.24,30.26c0,.15,0,.22-.17.22h-4.89c-.12,0-.19-.07-.22-.22l-.49-3.22h-6l-.48,3.22c0,.15-.11.22-.22.22H195.1C195,51.8,194.92,51.73,194.92,51.58Zm6.65-7.93h4.23L204,31.27l-.26-1.63-.18,1.63Z"/><path class="cls-2" d="M218.93,51.8c-.24,0-.35-.1-.35-.31l-.05-30a.31.31,0,0,1,.35-.35h4l7.44,17.36-.22-17c0-.23.14-.35.4-.35h4.36c.18,0,.26.12.26.35l0,30.05c0,.17-.07.26-.22.26H231l-7.62-16.21.31,15.86c0,.23-.13.35-.4.35Z"/></svg>